<?xml version="1.0" encoding="utf-8"?>
<!-- Generator: Adobe Illustrator 16.0.0, SVG Export Plug-In . SVG Version: 6.00 Build 0)  -->
<!DOCTYPE svg PUBLIC "-//W3C//DTD SVG 1.1//EN" "http://www.w3.org/Graphics/SVG/1.1/DTD/svg11.dtd">
<svg version="1.1" id="Layer_1" xmlns="http://www.w3.org/2000/svg" xmlns:xlink="http://www.w3.org/1999/xlink" x="0px" y="0px"
	 width="290.038px" height="290.189px" viewBox="0 0 290.038 290.189" enable-background="new 0 0 290.038 290.189"
	 xml:space="preserve">
<g>
	<path display="none" fill-rule="evenodd" clip-rule="evenodd" fill="#FEFEFE" d="M0.038,290.189
		c-2.091-1.109-0.937-3.036-0.938-4.5c-0.069-93.333-0.062-186.667-0.062-280c0-4.167-1.626-9.959,0.458-12.043
		c2.083-2.083,7.876-0.457,12.042-0.457c91.833,0,183.666,0.01,275.5-0.049c2.692-0.002,4.114-0.126,4.109,3.549
		c-0.138,96.667-0.102,193.333-0.213,290c-0.002,1.024,1.595,2.95-0.896,3.5c-0.088-2.479-0.248-4.958-0.237-7.436
		c0.007-1.773-0.537-2.698-2.471-2.966c-18.353-2.537-29.533-13.881-36.794-30.055C222.425,187.111,194.29,124.5,166.163,61.885
		C156.989,41.459,147.813,21.034,138.365,0c-0.975,2.181-1.716,3.644-2.297,5.169C105.111,86.463,74.083,167.73,43.294,249.088
		c-6.072,16.044-17.634,25.203-33.562,29.906c-3.007,0.888-7.223-0.652-8.833,1.975C-0.548,283.331,0.237,287.063,0.038,290.189z"/>
	<path fill-rule="evenodd" clip-rule="evenodd" fill="#092C49" d="M0.038,290.189c0.199-3.127-0.586-6.858,0.861-9.221
		c1.61-2.627,5.826-1.087,8.833-1.975c15.928-4.703,27.49-13.862,33.562-29.906c30.79-81.357,61.817-162.625,92.774-243.919
		c0.581-1.525,1.322-2.988,2.297-5.169c9.449,21.034,18.625,41.459,27.798,61.885c28.127,62.615,56.262,125.227,84.373,187.849
		c7.261,16.174,18.441,27.518,36.794,30.055c1.934,0.268,2.478,1.192,2.471,2.966c-0.011,2.478,0.149,4.957,0.237,7.436
		c-41,0-82,0-123,0c-0.012-1.664,0.209-3.369-0.08-4.984c-0.738-4.135,0.986-5.67,5.006-5.571
		c5.186,0.128,10.295-0.607,15.246-2.192c6.479-2.073,9.369-5.936,9.883-12.781c0.521-6.944-0.777-13.542-3.558-19.872
		c-16.78-38.21-33.571-76.415-50.372-114.616c-4.728-10.749-9.5-21.479-14.296-32.319c-1.971,1.347-2.186,3.257-2.814,4.891
		c-17.35,45.102-34.705,90.199-51.957,135.338c-3.184,8.331-6.858,16.537-8.507,25.37c-1.377,7.379,1.746,12.238,8.9,14.4
		c3.358,1.016,6.814,1.514,10.317,1.673c10.647,0.481,10.647,0.479,11.232,10.665C64.038,290.189,32.038,290.189,0.038,290.189z"/>
	<path display="none" fill-rule="evenodd" clip-rule="evenodd" fill="#FDFDFD" d="M96.038,290.189
		c-0.585-10.186-0.585-10.184-11.232-10.665c-3.503-0.159-6.958-0.657-10.317-1.673c-7.155-2.162-10.278-7.021-8.9-14.4
		c1.649-8.833,5.323-17.039,8.507-25.37c17.252-45.139,34.607-90.236,51.957-135.338c0.628-1.634,0.844-3.544,2.814-4.891
		c4.796,10.84,9.568,21.57,14.296,32.319c16.801,38.201,33.592,76.406,50.372,114.616c2.78,6.33,4.079,12.928,3.558,19.872
		c-0.514,6.846-3.404,10.708-9.883,12.781c-4.951,1.585-10.061,2.32-15.246,2.192c-4.02-0.099-5.744,1.437-5.006,5.571
		c0.289,1.615,0.068,3.32,0.08,4.984C143.372,290.189,119.705,290.189,96.038,290.189z"/>
</g>
</svg>
