<?xml version="1.0" encoding="utf-8"?>
<!-- Generator: Adobe Illustrator 16.0.0, SVG Export Plug-In . SVG Version: 6.00 Build 0)  -->
<!DOCTYPE svg PUBLIC "-//W3C//DTD SVG 1.1//EN" "http://www.w3.org/Graphics/SVG/1.1/DTD/svg11.dtd">
<svg version="1.1" id="Layer_1" xmlns="http://www.w3.org/2000/svg" xmlns:xlink="http://www.w3.org/1999/xlink" x="0px" y="0px"
	 width="357px" height="365px" viewBox="0 0 357 365" enable-background="new 0 0 357 365" xml:space="preserve">
<g>
	<g>
		<path display="none" fill-rule="evenodd" clip-rule="evenodd" fill="#FEFEFE" d="M186.495,403.397
			c-86.575,0-173.15-0.017-259.726,0.076c-2.728,0.002-3.264-0.535-3.262-3.263c0.085-142.875,0.085-285.751,0-428.626
			c-0.001-2.727,0.535-3.263,3.262-3.262c173.415,0.084,346.831,0.084,520.247,0c2.728,0,3.264,0.534,3.263,3.262
			c-0.086,142.875-0.086,285.75,0,428.626c0.001,2.727-0.534,3.266-3.263,3.263C360.176,403.38,273.335,403.397,186.495,403.397z
			 M153.298,16.454c-3.813,0.184-7.659,0.306-11.494,0.564c-19.847,1.336-37.242,8.652-52.378,21.501
			c-2.123,1.802-3.527,4.247-5.91,5.846C64.058,57.415,48.095,74.072,36.12,94.03c-13.383,22.304-18.355,46.741-11.015,72.171
			c2.381,8.249,2.722,14.921-0.101,23.091c-6.787,19.64-4.921,39.729-0.206,59.644c12.55,53.004,50.71,87.149,105.121,91.021
			c1.047,0.075,1.726,0.422,2.408,1.082c6.139,5.937,13.841,8.73,21.92,10.556c27.16,6.137,54.277,5.202,81.193-1.36
			c12.967-3.161,25.368-7.826,34.554-18.319c0.586-0.67,1.241-0.758,2.107-0.73c5.834,0.188,10.928-2.03,15.491-5.366
			c15.076-11.023,27.508-24.485,36.596-40.862c3.609-6.504,7.287-13.399,6.752-20.904c-0.422-5.898,1.893-10.064,4.352-14.848
			c6.908-13.44,11.077-27.679,11.848-42.948c0.873-17.275-0.287-33.953-10.485-48.76c-0.894-1.299-0.532-2.562-0.257-3.814
			c1.314-5.968,2.182-12.003,2.66-18.083c2.006-25.543-3.541-48.793-21.322-68.1c-12.951-14.063-29.13-23.206-46.879-29.77
			c-9.253-3.423-18.932-5.694-27.348-11.291c-2.896-1.926-6.539-2.877-9.962-3.843c-16.434-4.636-33.048-4.062-49.7-1.378
			c-0.885,0.143-1.672,0.783-2.648,0.219C172.506,16.417,162.825,17.028,153.298,16.454z"/>
		<path fill-rule="evenodd" clip-rule="evenodd" fill="#482E16" d="M153.298,16.454c9.526,0.575,19.208-0.037,27.899,4.985
			c0.977,0.564,1.764-0.076,2.648-0.219c16.652-2.684,33.267-3.258,49.7,1.378c3.423,0.966,7.065,1.917,9.962,3.843
			c8.416,5.597,18.095,7.868,27.348,11.291c17.749,6.564,33.928,15.706,46.879,29.77c17.781,19.307,23.328,42.557,21.322,68.1
			c-0.479,6.08-1.346,12.115-2.66,18.083c-0.275,1.252-0.637,2.515,0.257,3.814c10.198,14.807,11.358,31.484,10.485,48.76
			c-0.771,15.27-4.939,29.508-11.848,42.948c-2.459,4.783-4.773,8.95-4.352,14.848c0.535,7.505-3.143,14.4-6.752,20.904
			c-9.088,16.376-21.52,29.839-36.596,40.862c-4.563,3.336-9.657,5.554-15.491,5.366c-0.866-0.028-1.521,0.06-2.107,0.73
			c-9.186,10.494-21.587,15.158-34.554,18.319c-26.916,6.562-54.033,7.497-81.193,1.36c-8.079-1.826-15.781-4.619-21.92-10.556
			c-0.683-0.66-1.361-1.007-2.408-1.082c-54.411-3.872-92.571-38.017-105.121-91.021c-4.715-19.915-6.581-40.004,0.206-59.644
			c2.823-8.17,2.482-14.842,0.101-23.091c-7.34-25.43-2.368-49.867,11.015-72.171c11.976-19.958,27.938-36.615,47.396-49.665
			c2.383-1.599,3.787-4.044,5.91-5.846c15.136-12.849,32.531-20.165,52.378-21.501C145.639,16.759,149.485,16.637,153.298,16.454z
			 M83.542,48.782c-2.53,1.842-4.612,3.227-6.551,4.791c-10.69,8.621-19.987,18.711-28.616,29.26
			c-13.146,16.069-20.822,34.687-22.355,55.564c-1.285,17.5,1.97,33.757,13.464,47.707c7.133,8.657,15.666,15.827,24.124,23.075
			c12.966,11.112,26.938,20.598,43.106,26.583c4.211,1.558,7.803,1.122,11.77-0.843c11.827-5.863,21.951-13.789,30.571-23.75
			c12.841-14.839,22.099-31.694,28.513-50.17c0.478-1.374,1.419-2.627-1.222-3.43c-19.327-5.879-37.069-15.141-53.44-26.804
			C95.135,110.98,79.846,84.839,83.542,48.782z M31.833,182.201c-2.11,3.411-3.021,6.69-3.93,9.948
			c-5.285,18.941-3.975,37.864,0.958,56.556c12.66,47.981,42.378,78.098,92.14,86.789c8.162,1.426,15.467,0.183,21.287-6.56
			c13.61-15.762,18.379-34.859,21.165-54.768c0.304-2.174-1.107-2.294-2.595-2.56c-6.533-1.167-12.958-2.781-19.116-5.269
			c-10.069-4.066-19.431-9.288-26.128-18.144c-4.684-6.194-4.519-6.321-11.577-9.171c-17.283-6.978-32.618-17.016-46.419-29.482
			C48.395,201.211,38.962,193.086,31.833,182.201z M208.792,23.109c-8.349,0.07-14.683,0.347-20.981,1.44
			c-3.077,0.535-4.753,1.9-5.769,4.979c-3.152,9.56-6.898,18.908-11.141,28.045c-11.676,25.149-26.098,48.277-48.444,65.53
			c-2.346,1.811-0.556,2.539,0.719,3.417c16.451,11.341,34.03,20.472,52.963,26.932c1.875,0.64,3.837,1.367,5.809,0.57
			c6.744-2.729,14.104-4.278,20.1-8.455c22.28-15.521,39.644-35.098,48.211-61.384c4.837-14.837,5.018-29.887,1.068-45.046
			c-0.922-3.544-2.719-5.743-5.795-7.46C233.46,24.941,220.393,22.908,208.792,23.109z M171.822,268.737
			c16.069-0.515,30.997-2.586,43.435-12.005c17.249-13.062,29.578-30.186,38.342-49.914c2.618-5.894,1.33-11.262-1.738-16.648
			c-5.975-10.493-14.88-18.208-23.876-25.867c-6.591-5.611-13.556-10.633-21.748-13.718c-1.527-0.576-2.927-0.952-4.577-0.258
			c-5.369,2.256-10.772,4.431-16.202,6.534c-1.865,0.722-2.94,1.832-3.631,3.773c-1.86,5.234-3.754,10.482-6.053,15.534
			c-12.458,27.381-29.829,50.347-57.905,63.493c-1.752,0.82-1.5,1.79-0.941,3.154c1.61,3.933,4.338,6.976,7.667,9.467
			C138.848,262.948,155.061,267.912,171.822,268.737z M329.11,252.004c3.526-6.118,6.352-12.382,8.818-18.8
			c6.318-16.429,6.578-33.406,4.226-50.555c-1.882-13.721-8.513-24.838-18.693-34.138c-13.236-12.09-28.511-21.122-43.813-30.181
			c-8.198-4.854-16.929-7.961-26.202-10.082c-6.025-1.377-9.781-0.919-13.514,5.071c-8.178,13.132-19.454,23.688-31.666,33.238
			c0.994,1.438,2.555,1.607,3.791,2.287c16.523,9.09,30.639,20.991,41.273,36.602c2.904,4.263,5.271,8.239,10.826,9.211
			c1.86,0.326,3.609,1.643,5.267,2.726C292.155,212.234,311.67,230.593,329.11,252.004z M190.94,351.727
			c14.501-0.01,28.852-1.499,42.928-4.995c10.869-2.7,21.328-6.546,30.01-13.968c5.09-4.35,5.615-7.31,2.986-13.329
			c-0.53-1.212-1.127-2.403-1.78-3.554c-11.993-21.101-28.505-38.151-47.494-52.986c-1.144-0.894-2.066-1.286-3.509-0.417
			c-13.273,7.997-27.877,10.534-43.114,10.099c-2.755-0.079-3.482,0.703-3.817,3.397c-1.472,11.875-4.148,23.494-8.961,34.498
			c-4.711,10.773-10.079,21.131-20.754,27.423c-2.417,1.424-0.281,2.188,0.528,2.777c4.003,2.915,8.481,4.885,13.249,6.192
			C164.215,350.432,177.497,351.718,190.94,351.727z M327.57,263.018c-0.388-5.345-2.726-10.183-6.345-14.385
			c-15.48-17.971-32.889-33.814-52.482-47.216c-2.299-1.573-4.752-2.874-7.379-3.854c-1.577-0.589-2.52-0.629-2.416,1.505
			c0.259,5.357-1.661,10.222-4.084,14.777c-8.584,16.139-18.873,31.026-32.934,42.979c-1.773,1.508-2.787,2.479-0.285,4.414
			c11.584,8.956,21.795,19.348,31.228,30.52c7.554,8.946,14.573,18.213,18.602,29.407c0.725,2.014-0.632,5.243,2.62,5.844
			c2.404,0.443,4.608-0.985,6.736-2.065c1.178-0.598,2.324-1.278,3.422-2.016c16.896-11.351,29.582-26.396,38.738-44.472
			C325.39,273.72,327.178,268.724,327.57,263.018z M153.094,20.169c-3.348,0.234-6.779,0.556-10.219,0.702
			c-17.553,0.744-32.991,7.202-47.098,17.308c-5.424,3.885-8.52,8.679-8.977,15.79c-1.739,27.042,9.036,48.425,28.547,66.192
			c1.59,1.447,2.689,1.492,4.387,0.178c6.746-5.219,12.895-11.056,18.414-17.538c18.426-21.644,30.42-46.795,39.826-73.343
			c1.771-5,1.695-5.221-3.506-6.879C167.545,20.371,160.319,20.768,153.094,20.169z M332.959,152.246
			c0.838-5.768,1.732-10.46,2.171-15.195c1.883-20.344-0.829-39.749-12.806-56.936c-15.979-22.934-39.322-34.828-65.155-42.863
			c-2.667-0.829-2.176,0.722-1.767,2.294c1.709,6.574,2.474,13.304,2.501,20.055c0.058,14.289-3.354,27.823-9.874,40.524
			c-1.323,2.579-0.898,3.369,1.938,3.736c12.127,1.569,23.347,5.722,33.749,12.163C300.807,126.608,318.633,136.166,332.959,152.246
			z"/>
		<path fill-rule="evenodd" clip-rule="evenodd" fill="#EA9923" d="M83.542,48.782c-3.696,36.057,11.593,62.198,39.364,81.982
			c16.371,11.664,34.113,20.925,53.44,26.804c2.641,0.803,1.699,2.056,1.222,3.43c-6.414,18.477-15.672,35.332-28.513,50.17
			c-8.62,9.961-18.744,17.887-30.571,23.75c-3.967,1.965-7.559,2.401-11.77,0.843c-16.169-5.985-30.141-15.471-43.106-26.583
			c-8.458-7.248-16.991-14.418-24.124-23.075c-11.495-13.95-14.749-30.207-13.464-47.707c1.533-20.878,9.209-39.496,22.355-55.564
			c8.629-10.548,17.926-20.639,28.616-29.26C78.93,52.009,81.012,50.625,83.542,48.782z"/>
		<path fill-rule="evenodd" clip-rule="evenodd" fill="#EA9923" d="M31.833,182.201c7.13,10.886,16.563,19.01,25.785,27.34
			c13.801,12.466,29.136,22.504,46.419,29.482c7.059,2.85,6.894,2.978,11.577,9.171c6.697,8.856,16.059,14.078,26.128,18.144
			c6.158,2.487,12.583,4.102,19.116,5.269c1.487,0.266,2.898,0.386,2.595,2.56c-2.786,19.908-7.555,39.005-21.165,54.768
			c-5.82,6.742-13.125,7.985-21.287,6.56c-49.762-8.691-79.48-38.808-92.14-86.789c-4.932-18.691-6.243-37.614-0.958-56.556
			C28.812,188.891,29.722,185.611,31.833,182.201z"/>
		<path fill-rule="evenodd" clip-rule="evenodd" fill="#EA9923" d="M208.792,23.109c11.601-0.201,24.668,1.832,36.739,8.567
			c3.076,1.717,4.873,3.916,5.795,7.46c3.949,15.16,3.769,30.209-1.068,45.046c-8.567,26.287-25.931,45.864-48.211,61.384
			c-5.996,4.177-13.355,5.726-20.1,8.455c-1.972,0.797-3.934,0.07-5.809-0.57c-18.933-6.46-36.512-15.591-52.963-26.932
			c-1.274-0.878-3.064-1.606-0.719-3.417c22.347-17.253,36.769-40.38,48.444-65.53c4.242-9.138,7.988-18.486,11.141-28.045
			c1.016-3.08,2.691-4.445,5.769-4.979C194.11,23.456,200.444,23.179,208.792,23.109z"/>
		<path fill-rule="evenodd" clip-rule="evenodd" fill="#EA9923" d="M171.822,268.737c-16.761-0.825-32.974-5.789-47.229-16.455
			c-3.329-2.491-6.057-5.534-7.667-9.467c-0.559-1.365-0.811-2.334,0.941-3.154c28.076-13.146,45.447-36.111,57.905-63.493
			c2.299-5.052,4.192-10.3,6.053-15.534c0.69-1.941,1.766-3.051,3.631-3.773c5.43-2.103,10.833-4.277,16.202-6.534
			c1.65-0.694,3.05-0.318,4.577,0.258c8.192,3.085,15.157,8.107,21.748,13.718c8.996,7.66,17.901,15.375,23.876,25.867
			c3.068,5.386,4.356,10.754,1.738,16.648c-8.764,19.728-21.093,36.853-38.342,49.914
			C202.819,266.151,187.891,268.222,171.822,268.737z"/>
		<path fill-rule="evenodd" clip-rule="evenodd" fill="#EA9923" d="M329.11,252.004c-17.439-21.411-36.955-39.771-59.687-54.621
			c-1.657-1.083-3.406-2.399-5.267-2.726c-5.555-0.972-7.922-4.948-10.826-9.211c-10.635-15.611-24.75-27.512-41.273-36.602
			c-1.236-0.68-2.797-0.849-3.791-2.287c12.212-9.55,23.488-20.106,31.666-33.238c3.732-5.991,7.488-6.448,13.514-5.071
			c9.273,2.121,18.004,5.229,26.202,10.082c15.302,9.059,30.576,18.091,43.813,30.181c10.181,9.3,16.812,20.417,18.693,34.138
			c2.353,17.148,2.093,34.126-4.226,50.555C335.461,239.622,332.636,245.887,329.11,252.004z"/>
		<path fill-rule="evenodd" clip-rule="evenodd" fill="#EA9923" d="M190.936,351.731c-13.439-0.013-26.721-1.299-39.725-4.864
			c-4.768-1.308-9.246-3.278-13.249-6.192c-0.81-0.59-2.945-1.354-0.528-2.777c10.675-6.292,16.043-16.65,20.754-27.423
			c4.813-11.004,7.489-22.624,8.961-34.498c0.335-2.694,1.063-3.476,3.817-3.397c15.237,0.435,29.841-2.103,43.114-10.099
			c1.442-0.869,2.365-0.478,3.509,0.417c18.989,14.834,35.501,31.885,47.494,52.986c0.653,1.15,1.25,2.341,1.78,3.554
			c2.629,6.02,2.104,8.979-2.986,13.329c-8.682,7.422-19.141,11.268-30.01,13.968C219.792,350.229,205.441,351.717,190.936,351.731z
			"/>
		<path fill-rule="evenodd" clip-rule="evenodd" fill="#EA9923" d="M327.57,263.018c-0.392,5.706-2.18,10.702-4.579,15.439
			c-9.156,18.076-21.842,33.121-38.738,44.472c-1.098,0.737-2.244,1.417-3.422,2.016c-2.128,1.08-4.332,2.508-6.736,2.065
			c-3.252-0.601-1.896-3.83-2.62-5.844c-4.028-11.194-11.048-20.461-18.602-29.407c-9.433-11.172-19.644-21.564-31.228-30.52
			c-2.502-1.934-1.488-2.906,0.285-4.414c14.061-11.953,24.35-26.84,32.934-42.979c2.423-4.556,4.343-9.42,4.084-14.777
			c-0.104-2.135,0.839-2.095,2.416-1.505c2.627,0.98,5.08,2.28,7.379,3.854c19.594,13.402,37.002,29.246,52.482,47.216
			C324.844,252.835,327.182,257.673,327.57,263.018z"/>
		<path fill-rule="evenodd" clip-rule="evenodd" fill="#EA9923" d="M153.094,20.169c7.225,0.598,14.451,0.201,21.375,2.41
			c5.201,1.659,5.277,1.879,3.506,6.879c-9.406,26.547-21.4,51.699-39.826,73.343c-5.52,6.482-11.668,12.319-18.414,17.538
			c-1.697,1.313-2.797,1.269-4.387-0.178c-19.511-17.768-30.286-39.15-28.547-66.192c0.457-7.111,3.553-11.905,8.977-15.79
			c14.106-10.106,29.545-16.564,47.098-17.308C146.315,20.726,149.747,20.403,153.094,20.169z"/>
		<path fill-rule="evenodd" clip-rule="evenodd" fill="#EA9923" d="M332.959,152.246c-14.326-16.08-32.152-25.637-49.242-36.222
			c-10.402-6.441-21.622-10.593-33.749-12.163c-2.837-0.367-3.262-1.158-1.938-3.736c6.52-12.702,9.932-26.236,9.874-40.524
			c-0.027-6.751-0.792-13.481-2.501-20.055c-0.409-1.572-0.9-3.123,1.767-2.294c25.833,8.035,49.176,19.929,65.155,42.863
			c11.977,17.188,14.688,36.592,12.806,56.936C334.692,141.786,333.797,146.478,332.959,152.246z"/>
	</g>
</g>
</svg>
