<?xml version="1.0" encoding="utf-8"?>
<!-- Generator: Adobe Illustrator 16.0.0, SVG Export Plug-In . SVG Version: 6.00 Build 0)  -->
<!DOCTYPE svg PUBLIC "-//W3C//DTD SVG 1.1//EN" "http://www.w3.org/Graphics/SVG/1.1/DTD/svg11.dtd">
<svg version="1.1" id="Layer_1" xmlns="http://www.w3.org/2000/svg" xmlns:xlink="http://www.w3.org/1999/xlink" x="0px" y="0px"
	 width="929.886px" height="131.5px" viewBox="36.314 0 929.886 131.5" enable-background="new 36.314 0 929.886 131.5"
	 xml:space="preserve">
<g>
	<g>
		<path display="none" fill="#FDFDFD" d="M501,149c-165.167,0-330.333-0.015-495.5,0.094c-3.75,0.003-4.609-0.843-4.597-4.594
			c0.148-46.666,0.133-93.333,0.014-140C0.909,1.518,1.519,0.919,4.5,0.92c331,0.085,662,0.085,993,0
			c2.98-0.001,3.591,0.598,3.583,3.58c-0.118,46.833-0.13,93.667,0.015,140.5c0.012,3.425-0.674,4.097-4.098,4.095
			C831.667,148.986,666.334,149,501,149z M925.35,95.63c1.411,0.34,2.822,0.679,4.625,1.112c0-1.752,0-3.217,0-4.68
			c-0.003-13.498,0.102-26.996-0.068-40.49c-0.055-4.321,1.003-6.688,5.89-6.059c2.403,0.311,4.992,0.563,6.874-1.837
			c1.146-1.461,2.236-0.344,3.432,0.339c2.59,1.478,6.179,2.016,7.97,0.207c4.807-4.853,8.297-10.818,12.131-16.921
			c-16.439-1.06-31.997,1.394-47.618,0.774c-5.989-0.237-11.996-0.024-17.994-0.043c-1.848-0.006-3.675-0.131-4.934,1.664
			c-2.855,4.074-5.785,8.097-8.623,12.183c-1.698,2.443-0.567,3.041,1.949,3.077c6.813,0.099,13.625,0.314,20.434,0.586
			c6.045,0.24,12.139-0.47,19.262,0.631c-6.208,4.428-11.453,8.372-16.923,11.979c-2.543,1.677-3.465,3.63-3.432,6.593
			c0.121,10.83,0.069,21.662,0.039,32.492c-0.041,14.761,0.767,15.462,15.62,13.264c5.507-0.814,7.664-4.407,5.928-9.71
			c-0.942-2.875-4.334-2.136-5.834-4.132C924.499,96.316,924.924,95.975,925.35,95.63z M267.275,66.656
			c0.381,0.095,0.763,0.189,1.145,0.286c0.204,0.585,0.507,1.155,0.599,1.758c1.974,12.952,4.025,25.894,5.808,38.872
			c0.454,3.305,1.625,4.623,5.055,4.399c4.313-0.28,8.66-0.155,12.988-0.034c3.004,0.082,4.106-0.512,3.309-4.018
			c-1.693-7.443-2.799-15.023-4.07-22.563c-2.976-17.649-5.951-35.301-8.808-52.971c-0.399-2.471-1.357-3.388-3.866-3.297
			c-4.491,0.165-9.006,0.253-13.487-0.023c-3.387-0.208-5.032,0.996-6.172,4.225c-4.082,11.556-8.411,23.025-12.824,34.46
			c-0.442,1.145,0.014,3.512-2.151,3.315c-1.824-0.166-1.735-2.229-2.233-3.557c-4.303-11.496-8.574-23.004-12.808-34.523
			c-0.937-2.55-2.095-4.164-5.354-3.914c-4.635,0.354-9.322,0.148-13.981,0.005c-2.589-0.081-3.82,0.68-4.278,3.483
			c-0.561,3.438-0.749,6.916-1.33,10.319c-3.736,21.902-7.646,43.775-11.534,65.651c-0.398,2.243,0,3.476,2.66,3.409
			c4.995-0.125,9.997-0.131,14.99-0.002c2.812,0.073,3.792-1.259,4.056-3.846c0.506-4.961,1.103-9.918,1.85-14.848
			c1.347-8.885,2.833-17.748,4.274-26.698c2.319,0.596,2.215,2.256,2.649,3.357c5.113,12.952,10.195,25.921,15.045,38.974
			c0.771,2.075,1.602,2.85,3.735,3.105c4.141,0.496,6.997-0.487,8.224-4.908c0.75-2.702,2.042-5.256,3.114-7.867
			C258.34,88.355,262.809,77.507,267.275,66.656z M413.061,113.963c14.758,0.985,27.153-4.273,36.661-15.752
			c13.442-16.229,12.104-42.28-2.585-57.021c-11.546-11.588-25.563-15.596-41.477-13.415c-27.1,3.713-42.913,26.528-37.148,53.884
			C372.308,99.676,389.727,115.75,413.061,113.963z M473.12,70.775c-0.019-0.001-0.035-0.001-0.054-0.001
			c0,12.664,0.086,25.328-0.062,37.989c-0.036,3.061,0.896,4.116,3.972,3.983c4.989-0.216,9.995,0.005,14.992-0.077
			c9.123-0.151,18.285,0.718,27.309-1.633c9.637-2.511,14.642-8.576,14.652-18.29c0.006-3.832-0.17-7.675,0.051-11.495
			c0.228-3.969-1.597-6.722-4.67-8.732c-1.918-1.253-4.054-2.227-6.191-3.073c-2.324-0.92-3.047-1.766-0.799-3.712
			c7.254-6.279,6.807-14.619,4.799-22.598c-2.41-9.565-10.848-14.522-22.68-13.832c-8.984,0.524-17.953,0.503-26.906,0.152
			c-3.743-0.146-4.523,0.904-4.479,4.343C473.221,46.123,473.12,58.45,473.12,70.775z M634.252,69.057
			c-0.434-0.194-0.867-0.392-1.301-0.588c0-7.957-0.098-15.916,0.057-23.87c0.051-2.526-0.501-3.542-3.249-3.441
			c-4.985,0.183-9.989,0.098-14.978-0.1c-2.863-0.113-3.85,0.985-3.672,3.78c0.261,4.143,0.369,8.3,0.377,12.451
			c0.039,16.766,0.094,33.532-0.06,50.297c-0.026,3.069,0.765,4.102,3.892,3.944c4.307-0.216,8.641,0.001,12.959,0.146
			c3.474,0.116,4.905-1.02,4.774-4.896c-0.325-9.646-0.131-19.309-0.096-28.964c0.004-1.095-0.541-2.502,0.677-3.201
			c1.271-0.732,2.116,0.514,3.009,1.163c4.563,3.321,9.015,6.802,13.679,9.97c2.637,1.791,3.774,3.911,3.563,7.088
			c-0.329,4.977-0.34,9.973-0.586,14.955c-0.12,2.426,0.571,3.742,3.303,3.693c5.314-0.094,10.636-0.063,15.949,0.076
			c2.667,0.068,3.404-1.043,3.323-3.593c-0.165-5.153-0.487-10.366,0.077-15.465c1.104-9.975-0.474-18.288-10.821-22.744
			c-2.229-0.96-2.337-2.719-0.773-4.842c3.842-5.218,7.358-10.674,11.198-15.894c1.787-2.429,1.576-3.9-0.959-5.623
			c-6.323-4.297-12.438-8.902-18.731-13.243c-3.127-2.156-13.582-1.365-15.414,1.043c-1.91,2.509-3.609,5.179-5.51,7.696
			c-1.365,1.81-0.808,2.911,0.918,4.025c2.93,1.893,5.774,3.916,8.629,5.923c1.36,0.956,3.028,1.952,1.699,3.966
			C642.479,58.432,638.637,63.96,634.252,69.057z M843.643,113.963c3.254,0,5.418,0.025,7.58-0.005
			c10.706-0.152,20.465-6.921,24.047-17.019c1.637-4.607,0.562-9.517,0.793-14.283c0.31-6.335-2.754-10.731-7.302-14.469
			c-3.517-2.891-7.624-4.625-11.905-6.071c-3.908-1.32-8.02-2.187-11.574-4.396c-4.856-3.019-4.751-8.854,0.234-11.634
			c3.924-2.188,7.938-1.274,12.082-0.33c2.913,0.663,5.142,4.975,7.963,2.858c2.264-1.698,3.054-5.364,4.487-8.162
			c0.604-1.181,1.073-2.447,1.8-3.546c1.576-2.386,1.159-3.723-1.628-4.829c-9.546-3.789-19.135-6.024-29.585-4.188
			c-18.482,3.249-27.779,26.354-16.247,41.138c3.448,4.421,8.64,5.987,13.591,7.889c4.022,1.545,8.207,2.757,12.047,4.663
			c3.021,1.5,5.703,4.057,4.906,7.895c-0.742,3.578-2.931,6.039-6.979,6.827c-7.62,1.484-14.12-0.834-19.789-5.543
			c-2.783-2.313-3.659-1.451-4.899,1.248c-1.521,3.312-3.298,6.522-5.182,9.646c-1.789,2.967-1.074,4.837,1.876,6.418
			C827.712,112.227,835.768,114.966,843.643,113.963z M542.854,70.496c0,12.162,0.209,24.33-0.109,36.484
			c-0.115,4.388,1.416,5.19,5.383,5.068c9.322-0.284,18.659-0.1,27.99-0.095c12.715,0.007,12.623,0.012,12.563-12.588
			c-0.015-3.068-0.529-4.571-4.07-4.435c-5.65,0.22-11.32-0.074-16.981-0.149c-1.896-0.025-3.459-0.03-3.815-2.72
			c-1.485-11.188-0.778-12.116,10.324-12.121c0.333,0,0.666,0,1,0c14.344-0.006,14.256-0.002,13.617-14.371
			c-0.131-2.931-1.186-3.686-3.893-3.604c-5.328,0.16-10.664-0.025-15.994,0.09c-3.395,0.073-5.199-0.833-5.069-4.784
			c0.378-11.5-1.517-9.651,9.755-9.844c0.667-0.012,1.336,0.038,2-0.008c4.289-0.299,9.883,1.863,12.528-0.956
			c2.576-2.744,0.445-8.279,0.833-12.561c0.309-3.41-0.803-4.714-4.416-4.665c-12.494,0.167-24.994,0.139-37.488-0.059
			c-3.382-0.053-4.248,1.153-4.211,4.337C542.939,45.844,542.855,58.17,542.854,70.496z M771.922,75.033
			c-0.585-0.121-1.171-0.241-1.756-0.361c0-8.754-0.029-17.508,0.018-26.262c0.016-2.634,1.325-3.701,4.108-3.555
			c5.147,0.271,10.315,0.315,15.47,0.198c2.016-0.047,4.316,0.52,5.864-1.778c3.056-4.535,6.3-8.942,9.444-13.418
			c1.554-2.212,0.594-2.847-1.722-2.796c-3.663,0.08-7.556-0.74-10.934,0.247c-4.101,1.198-9.138-1.225-12.39,3.271
			c-3.383,4.677-5.44,11.491-10.367,13.55c-5.119,2.139-11.788,0.662-17.776,0.582c-2.459-0.032-3.64,0.56-3.629,3.31
			c0.075,19.818,0.06,39.637,0.004,59.456c-0.006,2.479,0.729,3.555,3.433,3.527c12.989-0.128,25.98-0.064,38.973-0.116
			c1.995-0.008,3.906-0.204,5.244-2.186c2.88-4.267,5.921-8.427,8.912-12.619c1.753-2.456,0.73-3.033-1.82-2.991
			c-5.494,0.089-10.996,0.157-16.486-0.027c-3.221-0.107-5.184,1.116-6.861,3.861c-2.358,3.86-5.223,7.414-7.869,11.1
			c-0.542-0.094-1.083-0.188-1.624-0.279c0-8.873-0.044-17.747,0.025-26.619c0.021-2.713,1.975-3.025,4.196-3.02
			c5.66,0.014,11.322-0.084,16.982-0.153c1.313-0.017,2.787,0.239,3.684-1.032c3.766-5.344,7.477-10.727,11.747-16.872
			c-7.623,0-14.077,0.134-20.521-0.061c-2.881-0.087-4.654,1.054-6.168,3.323C777.463,67.276,774.658,71.132,771.922,75.033z
			 M689.645,70.896c-0.034,0-0.069,0-0.104,0c0,12.631,0.1,25.263-0.083,37.891c-0.036,2.521,0.633,3.218,2.998,3.168
			c4.827-0.102,9.664-0.146,14.485,0.059c2.771,0.119,3.789-0.638,3.692-3.584c-0.249-7.647,0.041-15.315-0.307-22.957
			c-0.19-4.16,0.589-6.164,5.356-5.679c4.614,0.47,9.321-0.052,13.976,0.155c3.069,0.137,4.351-0.512,4.369-4.036
			c0.073-13.83,0.214-13.821-13.55-13.831c-11.414-0.007-10.037,1.255-10.016-10.667c0.005-2.953,0.919-4.31,4.014-4.147
			c3.155,0.165,6.326,0.034,9.491,0.034c13.199,0,13.095,0.001,12.959-13.276c-0.032-3.297-0.69-4.696-4.366-4.627
			c-12.985,0.244-25.979,0.286-38.968,0.112c-3.563-0.047-4.034,1.406-4.004,4.413C689.72,46.247,689.645,58.572,689.645,70.896z
			 M53.891,79.409c0.023,0,0.046,0,0.068,0c0,9.653,0.096,19.31-0.059,28.961c-0.045,2.845,0.824,3.761,3.667,3.626
			c4.651-0.221,9.336-0.303,13.975,0.018c3.656,0.252,4.423-1.15,4.396-4.533c-0.147-18.477,0.039-36.956-0.164-55.431
			c-0.043-3.896,0.947-5.164,4.95-5.029c4.217,0.142,10.023,2.047,12.301-0.946c2.109-2.771,0.458-8.284,0.786-12.565
			c0.27-3.524-1.01-4.504-4.502-4.463c-15.645,0.187-31.293,0.142-46.94,0.064c-4.09-0.021-7.383-0.226-5.521,5.812
			c1.136,3.681-1.583,9.118,0.956,11.446c2.716,2.49,7.939,0.813,12.042,0.692c3.454-0.103,4.167,1.25,4.108,4.385
			C53.78,60.764,53.891,70.088,53.891,79.409z M342.814,79.773c0-7.155,0-14.313,0-21.47c0.003-10.94,0.01-11.134,10.967-10.824
			c4.527,0.128,6.969-0.746,6.098-5.881c-0.329-1.94-0.27-4.014-0.008-5.977c0.621-4.654-0.932-6.342-5.909-6.235
			c-14.471,0.31-28.954,0.068-43.432,0.05c-6.58-0.008-6.58-0.002-6.51,6.669c0.117,11.211,0.124,11.443,11.466,11.122
			c4.837-0.137,6.208,1.346,6.137,6.151c-0.266,17.971-0.004,35.948-0.181,53.921c-0.037,3.742,1.047,4.984,4.79,4.703
			c4.304-0.322,8.658-0.239,12.974-0.013c2.951,0.154,3.687-1.038,3.654-3.758C342.746,98.748,342.814,89.261,342.814,79.773z
			 M160.118,79.525c0,7.994,0.067,13.821-0.034,19.646c-0.039,2.247,0.518,3.307,3.044,3.268c4.816-0.074,9.649,0.005,14.452,0.352
			c3.64,0.263,4.379-1.266,4.41-4.614c0.131-14.455,0.452-28.911,0.932-43.357c0.097-2.906-0.911-4.523-3.181-6.105
			c-9.655-6.729-19.199-13.618-28.771-20.466c-9.375-6.706-9.368-6.715-16.21,2.829c-1.452,2.026-2.86,4.087-4.375,6.064
			c-1.619,2.111-1.738,3.46,0.974,5.067c4.852,2.875,9.093,6.872,14.102,9.374C158.232,57.962,163.931,67.424,160.118,79.525z
			 M105.292,66.056c0,7.161,0.224,14.332-0.096,21.479c-0.157,3.501,1.198,5.519,3.908,7.331
			c8.954,5.989,17.841,12.081,26.705,18.204c7.691,5.313,14.267,4.132,19.324-3.578c0.73-1.113,1.396-2.29,2.268-3.283
			c2.316-2.643,1.817-4.369-1.132-6.323c-8.157-5.403-16.028-11.241-24.19-16.639c-3.156-2.088-4.382-4.542-4.31-8.265
			c0.204-10.487,0.02-20.981,0.226-31.469c0.056-2.859-0.771-3.699-3.587-3.583c-5.153,0.212-10.328,0.222-15.48-0.003
			c-2.877-0.125-3.747,0.835-3.688,3.653C105.395,51.069,105.292,58.563,105.292,66.056z"/>
		<path fill="#1D4D7D" d="M267.275,66.656c-4.466,10.851-8.935,21.699-13.395,32.554c-1.073,2.611-2.365,5.165-3.114,7.867
			c-1.227,4.421-4.083,5.405-8.224,4.908c-2.133-0.257-2.964-1.03-3.735-3.105c-4.85-13.053-9.932-26.021-15.045-38.974
			c-0.435-1.103-0.331-2.762-2.649-3.357c-1.441,8.95-2.927,17.813-4.274,26.698c-0.748,4.93-1.344,9.887-1.85,14.848
			c-0.264,2.587-1.245,3.919-4.056,3.847c-4.994-0.129-9.996-0.123-14.99,0.002c-2.66,0.064-3.059-1.168-2.66-3.41
			c3.888-21.876,7.798-43.749,11.534-65.651c0.581-3.403,0.769-6.882,1.33-10.319c0.458-2.804,1.689-3.564,4.278-3.483
			c4.659,0.145,9.347,0.35,13.981-0.005c3.259-0.25,4.417,1.364,5.354,3.914c4.234,11.521,8.505,23.028,12.808,34.523
			c0.498,1.328,0.409,3.392,2.233,3.558c2.165,0.195,1.709-2.171,2.151-3.315c4.413-11.435,8.743-22.904,12.824-34.46
			c1.141-3.229,2.785-4.433,6.172-4.225c4.48,0.275,8.996,0.188,13.487,0.022c2.508-0.091,3.466,0.826,3.866,3.297
			c2.856,17.67,5.832,35.32,8.808,52.972c1.271,7.537,2.377,15.117,4.07,22.562c0.797,3.506-0.304,4.101-3.309,4.017
			c-4.328-0.119-8.675-0.244-12.988,0.035c-3.43,0.224-4.601-1.096-5.055-4.399c-1.783-12.979-3.834-25.92-5.808-38.872
			c-0.092-0.603-0.395-1.173-0.599-1.758C268.038,66.847,267.656,66.751,267.275,66.656z"/>
		<path fill="#1D4D7D" d="M413.061,113.963c-23.334,1.787-40.753-14.287-44.549-32.305c-5.765-27.355,10.049-50.171,37.148-53.884
			c15.915-2.181,29.931,1.827,41.477,13.415c14.688,14.741,16.027,40.793,2.585,57.021
			C440.214,109.688,427.817,114.948,413.061,113.963z M436.318,70.472c1.244-11.746-10.992-23.645-24.7-22.864
			c-12.288,0.7-22.879,11.354-22.638,23.35c0.261,13.004,11.561,24.237,24.168,23.563C426.631,93.8,437.063,83.83,436.318,70.472z"
			/>
		<path fill="#1D4D7D" d="M473.12,70.775c0-12.325,0.101-24.652-0.064-36.976c-0.046-3.438,0.734-4.489,4.479-4.343
			c8.954,0.351,17.922,0.372,26.905-0.152c11.834-0.69,20.271,4.267,22.681,13.832c2.008,7.979,2.455,16.318-4.799,22.598
			c-2.248,1.947-1.525,2.792,0.799,3.712c2.139,0.847,4.272,1.82,6.19,3.073c3.074,2.011,4.897,4.764,4.67,8.732
			c-0.22,3.82-0.045,7.663-0.05,11.495c-0.012,9.714-5.017,15.779-14.653,18.29c-9.022,2.351-18.186,1.481-27.308,1.633
			c-4.997,0.082-10.003-0.139-14.991,0.077c-3.078,0.133-4.008-0.924-3.973-3.983c0.146-12.661,0.063-25.325,0.063-37.989
			C473.085,70.774,473.104,70.774,473.12,70.775z M493.975,86.813c-0.002,10.132,1.08,10.988,11.197,8.859
			c0.971-0.204,1.941-0.402,2.903-0.64c4.28-1.052,6.437-3.767,6.403-8.195c-0.033-4.524-2.562-6.999-6.737-7.915
			c-2.255-0.495-4.579-0.742-6.886-0.93c-6.172-0.503-6.863,0.169-6.881,6.332C493.972,85.153,493.975,85.982,493.975,86.813z
			 M493.816,54.049c1.658,2.485-3.077,8.187,4.273,8.139c7.035-0.046,10.675-2.771,10.609-8.232
			c-0.064-5.258-3.479-7.701-9.756-8.17C491.504,45.229,494.712,50.592,493.816,54.049z"/>
		<path fill="#1D4D7D" d="M634.252,69.057c4.385-5.097,8.227-10.625,11.936-16.245c1.328-2.014-0.34-3.01-1.7-3.966
			c-2.854-2.007-5.699-4.03-8.628-5.923c-1.727-1.114-2.284-2.216-0.92-4.025c1.9-2.518,3.601-5.188,5.511-7.696
			c1.832-2.408,12.287-3.199,15.414-1.043c6.295,4.341,12.407,8.946,18.731,13.243c2.535,1.723,2.746,3.193,0.959,5.623
			c-3.84,5.22-7.356,10.676-11.199,15.894c-1.563,2.123-1.455,3.882,0.774,4.842c10.349,4.456,11.927,12.771,10.821,22.744
			c-0.564,5.099-0.242,10.312-0.077,15.465c0.081,2.55-0.656,3.661-3.323,3.593c-5.314-0.14-10.635-0.17-15.949-0.076
			c-2.73,0.049-3.423-1.269-3.303-3.693c0.246-4.982,0.258-9.979,0.586-14.955c0.211-3.177-0.928-5.297-3.563-7.088
			c-4.664-3.168-9.116-6.648-13.679-9.97c-0.893-0.649-1.735-1.896-3.009-1.163c-1.218,0.699-0.673,2.107-0.677,3.201
			c-0.035,9.656-0.229,19.318,0.096,28.964c0.131,3.876-1.302,5.012-4.774,4.896c-4.318-0.145-8.652-0.361-12.959-0.146
			c-3.126,0.155-3.919-0.875-3.892-3.944c0.152-16.765,0.099-33.531,0.061-50.297c-0.01-4.151-0.117-8.309-0.378-12.451
			c-0.177-2.795,0.809-3.894,3.672-3.78c4.987,0.197,9.991,0.282,14.978,0.1c2.748-0.101,3.299,0.915,3.249,3.441
			c-0.153,7.954-0.057,15.913-0.057,23.87C633.385,68.665,633.818,68.861,634.252,69.057z"/>
		<path fill="#1D4D7D" d="M843.643,113.963c-7.875,1.003-15.931-1.736-23.686-5.895c-2.95-1.581-3.665-3.451-1.876-6.418
			c1.884-3.122,3.661-6.334,5.183-9.646c1.239-2.699,2.115-3.561,4.898-1.248c5.669,4.709,12.169,7.027,19.789,5.543
			c4.05-0.788,6.238-3.249,6.98-6.827c0.795-3.838-1.887-6.395-4.906-7.895c-3.842-1.906-8.024-3.118-12.049-4.663
			c-4.95-1.9-10.142-3.468-13.59-7.889c-11.531-14.782-2.234-37.888,16.247-41.137c10.45-1.837,20.039,0.398,29.585,4.188
			c2.787,1.106,3.204,2.443,1.629,4.829c-0.728,1.099-1.195,2.365-1.801,3.546c-1.435,2.798-2.225,6.464-4.488,8.162
			c-2.82,2.116-5.049-2.195-7.961-2.858c-4.145-0.944-8.158-1.857-12.084,0.33c-4.984,2.778-5.091,8.615-0.233,11.634
			c3.556,2.21,7.666,3.075,11.575,4.396c4.281,1.446,8.389,3.181,11.904,6.071c4.549,3.737,7.61,8.134,7.303,14.469
			c-0.232,4.768,0.843,9.676-0.793,14.283c-3.584,10.098-13.342,16.865-24.047,17.019
			C849.061,113.988,846.896,113.963,843.643,113.963z"/>
		<path fill="#1D4D7D" d="M542.855,70.496c0-12.326,0.084-24.652-0.058-36.977c-0.037-3.184,0.829-4.39,4.211-4.337
			c12.494,0.196,24.994,0.226,37.488,0.059c3.612-0.049,4.724,1.255,4.416,4.665c-0.388,4.281,1.743,9.815-0.833,12.561
			c-2.646,2.819-8.239,0.657-12.528,0.956c-0.664,0.046-1.333-0.004-2,0.008c-11.271,0.192-9.377-1.656-9.755,9.844
			c-0.13,3.951,1.676,4.857,5.069,4.784c5.329-0.115,10.666,0.07,15.993-0.09c2.707-0.081,3.763,0.674,3.894,3.604
			c0.639,14.369,0.726,14.365-13.617,14.372c-0.334,0-0.667,0-1,0c-11.104,0.004-11.811,0.934-10.325,12.12
			c0.357,2.688,1.922,2.693,3.816,2.72c5.661,0.075,11.331,0.369,16.98,0.149c3.541-0.138,4.058,1.365,4.071,4.435
			c0.06,12.6,0.151,12.595-12.563,12.588c-9.331-0.005-18.669-0.188-27.99,0.095c-3.967,0.122-5.498-0.682-5.383-5.068
			C543.063,94.826,542.854,82.658,542.855,70.496z"/>
		<path fill="#204E7E" d="M771.922,75.033c2.736-3.901,5.541-7.757,8.182-11.722c1.514-2.27,3.287-3.41,6.168-3.323
			c6.443,0.193,12.897,0.061,20.521,0.061c-4.271,6.146-7.981,11.528-11.747,16.872c-0.896,1.271-2.371,1.017-3.684,1.032
			c-5.66,0.07-11.322,0.167-16.982,0.152c-2.223-0.006-4.175,0.308-4.195,3.021c-0.07,8.872-0.026,17.746-0.026,26.619
			c0.541,0.093,1.082,0.187,1.624,0.278c2.646-3.685,5.511-7.237,7.869-11.099c1.679-2.745,3.642-3.97,6.861-3.86
			c5.49,0.185,10.992,0.115,16.486,0.026c2.552-0.042,3.573,0.535,1.82,2.991c-2.991,4.191-6.032,8.354-8.912,12.619
			c-1.337,1.979-3.249,2.178-5.244,2.186c-12.991,0.051-25.982-0.012-38.973,0.116c-2.702,0.026-3.438-1.05-3.433-3.526
			c0.056-19.819,0.071-39.639-0.004-59.457c-0.011-2.75,1.17-3.342,3.629-3.31c5.988,0.08,12.657,1.557,17.776-0.582
			c4.927-2.059,6.984-8.873,10.367-13.55c3.252-4.495,8.289-2.072,12.39-3.271c3.378-0.986,7.271-0.167,10.935-0.247
			c2.313-0.051,3.273,0.584,1.721,2.796c-3.146,4.476-6.389,8.883-9.444,13.418c-1.548,2.297-3.849,1.731-5.864,1.778
			c-5.154,0.117-10.322,0.073-15.47-0.198c-2.783-0.146-4.094,0.921-4.108,3.555c-0.047,8.754-0.018,17.508-0.018,26.262
			C770.751,74.792,771.337,74.912,771.922,75.033z"/>
		<path fill="#1D4D7D" d="M689.645,70.896c0-12.324,0.075-24.649-0.055-36.973c-0.031-3.007,0.44-4.46,4.004-4.413
			c12.987,0.174,25.981,0.132,38.967-0.112c3.677-0.069,4.334,1.33,4.367,4.627c0.135,13.277,0.24,13.276-12.959,13.276
			c-3.164,0-6.336,0.131-9.492-0.034c-3.094-0.162-4.008,1.194-4.013,4.147c-0.021,11.922-1.399,10.66,10.015,10.667
			c13.765,0.01,13.625,0.001,13.551,13.831c-0.02,3.523-1.301,4.173-4.369,4.036c-4.653-0.207-9.36,0.313-13.977-0.155
			c-4.768-0.484-5.547,1.52-5.355,5.679c0.348,7.642,0.058,15.31,0.307,22.957c0.098,2.946-0.923,3.703-3.691,3.584
			c-4.822-0.206-9.659-0.159-14.486-0.059c-2.365,0.05-3.034-0.646-2.998-3.168c0.182-12.628,0.083-25.26,0.083-37.891
			C689.574,70.896,689.609,70.896,689.645,70.896z"/>
		<path fill="#204E7E" d="M924.074,96.66c1.5,1.996,4.892,1.257,5.834,4.132c1.736,5.303-0.422,8.896-5.928,9.71
			c-14.854,2.198-15.662,1.497-15.621-13.264c0.031-10.83,0.082-21.662-0.038-32.492c-0.033-2.963,0.889-4.916,3.432-6.593
			c5.469-3.606,10.715-7.551,16.923-11.979c-7.123-1.101-13.217-0.391-19.262-0.631c-6.809-0.271-13.621-0.487-20.434-0.586
			c-2.518-0.036-3.647-0.634-1.949-3.077c2.838-4.086,5.768-8.108,8.623-12.183c1.259-1.795,3.086-1.67,4.934-1.664
			c5.998,0.019,12.005-0.194,17.994,0.043c15.621,0.618,31.179-1.834,47.618-0.774c-3.834,6.103-7.324,12.068-12.132,16.921
			c-1.791,1.81-5.379,1.271-7.969-0.207c-1.194-0.683-2.285-1.8-3.432-0.339c-1.882,2.398-4.471,2.146-6.874,1.837
			c-4.887-0.629-5.944,1.736-5.89,6.059c0.17,13.495,0.065,26.992,0.067,40.49c0.001,1.464,0,2.928,0,4.68
			c-1.802-0.434-3.213-0.772-4.624-1.112c-0.597-0.737-1.461-1.085-2.086-0.371C922.77,95.825,923.43,96.391,924.074,96.66z"/>
		<path fill="#1D4D7D" d="M53.891,79.409c0-9.321-0.111-18.646,0.063-27.964c0.059-3.135-0.654-4.487-4.108-4.385
			c-4.103,0.12-9.326,1.798-12.042-0.692c-2.539-2.328,0.18-7.766-0.956-11.446c-1.863-6.036,1.43-5.831,5.521-5.812
			c15.646,0.077,31.295,0.122,46.94-0.064c3.492-0.041,4.772,0.938,4.502,4.463c-0.327,4.281,1.323,9.795-0.786,12.565
			c-2.278,2.993-8.084,1.088-12.301,0.946c-4.002-0.135-4.993,1.132-4.95,5.029c0.203,18.475,0.017,36.954,0.164,55.43
			c0.027,3.384-0.74,4.786-4.396,4.534c-4.639-0.319-9.324-0.237-13.975-0.018c-2.842,0.135-3.712-0.781-3.667-3.626
			c0.155-9.651,0.059-19.307,0.059-28.961C53.937,79.409,53.914,79.409,53.891,79.409z"/>
		<path fill="#1D4D7D" d="M342.814,79.773c0,9.486-0.068,18.975,0.045,28.459c0.032,2.721-0.703,3.912-3.654,3.759
			c-4.315-0.228-8.67-0.311-12.973,0.013c-3.744,0.281-4.828-0.961-4.791-4.703c0.177-17.973-0.084-35.95,0.181-53.921
			c0.071-4.806-1.299-6.288-6.137-6.151c-11.342,0.321-11.35,0.089-11.466-11.122c-0.07-6.671-0.07-6.677,6.51-6.669
			c14.478,0.019,28.961,0.259,43.432-0.05c4.977-0.105,6.53,1.581,5.909,6.235c-0.262,1.963-0.321,4.036,0.008,5.977
			c0.871,5.135-1.569,6.009-6.098,5.881c-10.957-0.31-10.964-0.117-10.966,10.824C342.814,65.462,342.814,72.618,342.814,79.773z"/>
		<path fill="#204E7E" d="M160.118,79.525c3.813-12.103-1.886-21.563-14.659-27.944c-5.009-2.502-9.25-6.499-14.102-9.374
			c-2.712-1.607-2.593-2.956-0.974-5.067c1.516-1.978,2.923-4.038,4.375-6.063c6.842-9.544,6.835-9.535,16.21-2.829
			c9.573,6.848,19.116,13.737,28.771,20.466c2.271,1.582,3.278,3.199,3.181,6.105c-0.48,14.446-0.801,28.902-0.932,43.357
			c-0.03,3.35-0.771,4.877-4.41,4.614c-4.802-0.347-9.636-0.426-14.452-0.353c-2.526,0.039-3.083-1.02-3.044-3.267
			C160.185,93.348,160.118,87.52,160.118,79.525z"/>
		<path fill="#204E7E" d="M105.292,66.056c0-7.492,0.103-14.985-0.053-22.475c-0.059-2.818,0.811-3.778,3.688-3.653
			c5.152,0.225,10.327,0.215,15.48,0.003c2.816-0.116,3.644,0.724,3.587,3.583c-0.206,10.486-0.022,20.98-0.226,31.469
			c-0.072,3.723,1.154,6.177,4.31,8.265c8.162,5.397,16.033,11.233,24.19,16.639c2.95,1.954,3.448,3.683,1.132,6.323
			c-0.871,0.993-1.538,2.17-2.268,3.283c-5.057,7.71-11.633,8.891-19.324,3.578c-8.864-6.123-17.751-12.215-26.705-18.204
			c-2.71-1.813-4.064-3.83-3.908-7.331C105.517,80.388,105.292,73.217,105.292,66.056z"/>
		<path display="none" fill="#FDFDFD" d="M436.318,70.472c0.744,13.358-9.688,23.328-23.17,24.05
			c-12.608,0.674-23.907-10.561-24.168-23.563c-0.241-11.996,10.35-22.649,22.638-23.35
			C425.326,46.827,437.563,58.726,436.318,70.472z"/>
		<path display="none" fill="#FDFDFD" d="M493.975,86.813c0-0.83-0.003-1.658,0-2.487c0.019-6.163,0.709-6.835,6.881-6.332
			c2.307,0.188,4.631,0.435,6.886,0.93c4.177,0.916,6.704,3.392,6.737,7.915c0.032,4.43-2.123,7.145-6.403,8.195
			c-0.962,0.236-1.935,0.436-2.903,0.64C495.055,97.801,493.973,96.943,493.975,86.813z"/>
		<path display="none" fill="#FDFDFD" d="M493.816,54.049c0.896-3.457-2.313-8.82,5.127-8.264c6.276,0.469,9.69,2.912,9.756,8.17
			c0.066,5.461-3.574,8.187-10.609,8.232C490.74,62.234,495.477,56.534,493.816,54.049z"/>
		<path display="none" fill="#FDFDFD" d="M924.074,96.66c-0.646-0.271-1.307-0.835-0.812-1.401c0.625-0.714,1.489-0.366,2.087,0.371
			C924.924,95.975,924.499,96.316,924.074,96.66z"/>
	</g>
</g>
</svg>
