<?xml version="1.0" encoding="utf-8"?>
<!-- Generator: Adobe Illustrator 16.0.0, SVG Export Plug-In . SVG Version: 6.00 Build 0)  -->
<!DOCTYPE svg PUBLIC "-//W3C//DTD SVG 1.1//EN" "http://www.w3.org/Graphics/SVG/1.1/DTD/svg11.dtd">
<svg version="1.1" id="Layer_1" xmlns="http://www.w3.org/2000/svg" xmlns:xlink="http://www.w3.org/1999/xlink" x="0px" y="0px"
	 width="994px" height="148px" viewBox="0 0 994 148" enable-background="new 0 0 994 148" xml:space="preserve">
<g>
	<g>
		<path display="none" fill-rule="evenodd" clip-rule="evenodd" fill="#FDFDFD" d="M501,149c-165.167,0-330.333-0.015-495.5,0.094
			c-3.75,0.003-4.609-0.843-4.597-4.594c0.148-46.666,0.133-93.333,0.014-140C0.909,1.518,1.519,0.919,4.5,0.92
			c331,0.085,662,0.085,993,0c2.981-0.001,3.591,0.598,3.583,3.58c-0.118,46.833-0.13,93.667,0.015,140.5
			c0.011,3.425-0.674,4.097-4.098,4.095C831.667,148.986,666.334,149,501,149z M925.35,95.63c1.411,0.34,2.822,0.679,4.624,1.112
			c0-1.752,0.001-3.216,0-4.68c-0.002-13.497,0.102-26.995-0.068-40.49c-0.055-4.321,1.003-6.687,5.89-6.058
			c2.403,0.31,4.992,0.562,6.874-1.837c1.146-1.461,2.236-0.344,3.432,0.339c2.589,1.478,6.178,2.016,7.969,0.207
			c4.807-4.853,8.297-10.819,12.131-16.921c-16.439-1.06-31.997,1.393-47.618,0.774c-5.989-0.237-11.996-0.024-17.994-0.043
			c-1.848-0.006-3.675-0.131-4.934,1.664c-2.855,4.074-5.785,8.097-8.623,12.183c-1.698,2.443-0.567,3.041,1.949,3.077
			c6.813,0.099,13.625,0.314,20.434,0.586c6.045,0.24,12.139-0.47,19.262,0.631c-6.208,4.428-11.454,8.372-16.923,11.979
			c-2.543,1.677-3.465,3.63-3.432,6.593c0.121,10.83,0.069,21.662,0.039,32.492c-0.041,14.761,0.767,15.462,15.62,13.264
			c5.507-0.815,7.665-4.407,5.928-9.71c-0.942-2.875-4.334-2.136-5.834-4.132C924.499,96.316,924.924,95.974,925.35,95.63z
			 M267.275,66.656c0.381,0.095,0.763,0.19,1.145,0.286c0.204,0.585,0.507,1.155,0.599,1.758
			c1.974,12.952,4.025,25.894,5.808,38.872c0.454,3.305,1.625,4.623,5.055,4.4c4.313-0.28,8.66-0.155,12.988-0.035
			c3.004,0.083,4.106-0.511,3.309-4.017c-1.693-7.444-2.799-15.024-4.07-22.562c-2.976-17.65-5.951-35.301-8.808-52.971
			c-0.399-2.471-1.357-3.388-3.866-3.297c-4.491,0.165-9.006,0.253-13.487-0.023c-3.387-0.208-5.032,0.996-6.172,4.225
			c-4.082,11.556-8.411,23.025-12.824,34.46c-0.442,1.145,0.014,3.512-2.151,3.315c-1.824-0.166-1.735-2.229-2.233-3.557
			c-4.303-11.496-8.574-23.004-12.808-34.524c-0.937-2.55-2.095-4.164-5.354-3.914c-4.635,0.354-9.322,0.149-13.981,0.005
			c-2.589-0.081-3.82,0.68-4.278,3.483c-0.561,3.438-0.749,6.916-1.33,10.319c-3.736,21.902-7.646,43.775-11.534,65.651
			c-0.398,2.243,0,3.476,2.66,3.41c4.995-0.125,9.997-0.131,14.99-0.002c2.812,0.073,3.792-1.259,4.056-3.846
			c0.506-4.961,1.103-9.918,1.85-14.848c1.347-8.885,2.833-17.748,4.274-26.698c2.319,0.596,2.215,2.256,2.65,3.357
			c5.113,12.953,10.195,25.921,15.045,38.974c0.771,2.075,1.602,2.849,3.735,3.105c4.141,0.497,6.997-0.487,8.224-4.908
			c0.75-2.702,2.042-5.256,3.114-7.867C258.34,88.356,262.809,77.507,267.275,66.656z M413.06,113.963
			c14.758,0.985,27.154-4.274,36.662-15.752c13.442-16.228,12.103-42.28-2.585-57.021c-11.546-11.588-25.563-15.596-41.477-13.415
			c-27.099,3.713-42.913,26.528-37.148,53.884C372.308,99.676,389.727,115.75,413.06,113.963z M473.12,70.775
			c-0.018-0.001-0.035-0.001-0.053-0.001c0,12.663,0.085,25.327-0.062,37.989c-0.036,3.06,0.895,4.116,3.972,3.983
			c4.989-0.216,9.995,0.005,14.992-0.077c9.123-0.151,18.285,0.718,27.308-1.633c9.637-2.511,14.642-8.576,14.653-18.29
			c0.005-3.832-0.17-7.675,0.05-11.495c0.228-3.969-1.596-6.722-4.67-8.732c-1.918-1.253-4.053-2.227-6.191-3.073
			c-2.324-0.92-3.047-1.765-0.799-3.712c7.254-6.279,6.807-14.619,4.799-22.598c-2.41-9.566-10.847-14.523-22.68-13.832
			c-8.984,0.524-17.953,0.503-26.906,0.152c-3.743-0.146-4.523,0.904-4.478,4.343C473.221,46.123,473.12,58.45,473.12,70.775z
			 M634.252,69.057c-0.434-0.195-0.867-0.392-1.301-0.588c0-7.957-0.097-15.916,0.057-23.87c0.05-2.526-0.501-3.542-3.249-3.441
			c-4.985,0.183-9.989,0.098-14.978-0.1c-2.863-0.113-3.849,0.985-3.672,3.78c0.261,4.143,0.369,8.3,0.378,12.451
			c0.038,16.766,0.093,33.532-0.06,50.297c-0.027,3.069,0.765,4.101,3.891,3.944c4.307-0.216,8.641,0.001,12.959,0.146
			c3.474,0.116,4.906-1.02,4.775-4.896c-0.325-9.645-0.131-19.308-0.096-28.964c0.004-1.094-0.541-2.501,0.677-3.201
			c1.272-0.732,2.116,0.514,3.009,1.163c4.562,3.321,9.014,6.802,13.678,9.97c2.637,1.791,3.775,3.911,3.564,7.088
			c-0.329,4.976-0.34,9.972-0.586,14.955c-0.12,2.426,0.571,3.742,3.303,3.693c5.314-0.093,10.635-0.063,15.949,0.076
			c2.667,0.069,3.404-1.042,3.323-3.592c-0.165-5.153-0.487-10.367,0.077-15.465c1.105-9.975-0.473-18.288-10.821-22.744
			c-2.229-0.96-2.337-2.719-0.774-4.842c3.842-5.218,7.359-10.674,11.199-15.894c1.787-2.429,1.576-3.9-0.959-5.623
			c-6.324-4.297-12.438-8.902-18.732-13.243c-3.127-2.156-13.582-1.365-15.414,1.043c-1.91,2.509-3.609,5.179-5.51,7.696
			c-1.365,1.81-0.807,2.911,0.919,4.025c2.929,1.893,5.774,3.916,8.628,5.923c1.361,0.956,3.029,1.952,1.7,3.966
			C642.479,58.432,638.637,63.96,634.252,69.057z M843.643,113.963c3.253,0,5.417,0.025,7.58-0.005
			c10.706-0.152,20.464-6.921,24.047-17.018c1.636-4.608,0.561-9.517,0.793-14.284c0.309-6.335-2.754-10.731-7.302-14.469
			c-3.517-2.891-7.624-4.625-11.905-6.071c-3.909-1.32-8.02-2.186-11.575-4.396c-4.856-3.019-4.751-8.855,0.234-11.634
			c3.925-2.188,7.939-1.274,12.083-0.33c2.913,0.663,5.141,4.975,7.962,2.858c2.264-1.698,3.054-5.364,4.488-8.162
			c0.604-1.181,1.073-2.447,1.8-3.546c1.576-2.386,1.159-3.723-1.628-4.829c-9.546-3.789-19.135-6.024-29.585-4.188
			c-18.482,3.249-27.779,26.354-16.247,41.137c3.448,4.421,8.639,5.988,13.59,7.889c4.023,1.545,8.207,2.757,12.048,4.663
			c3.021,1.5,5.702,4.057,4.906,7.895c-0.742,3.578-2.931,6.039-6.98,6.827c-7.62,1.484-14.12-0.834-19.789-5.543
			c-2.783-2.313-3.659-1.451-4.899,1.248c-1.521,3.312-3.298,6.522-5.182,9.645c-1.789,2.967-1.074,4.837,1.876,6.418
			C827.712,112.226,835.768,114.966,843.643,113.963z M542.854,70.496c0,12.162,0.208,24.33-0.11,36.484
			c-0.115,4.388,1.416,5.191,5.383,5.069c9.322-0.284,18.659-0.1,27.99-0.095c12.715,0.007,12.623,0.012,12.563-12.588
			c-0.015-3.068-0.53-4.571-4.071-4.434c-5.65,0.219-11.32-0.075-16.981-0.15c-1.895-0.025-3.459-0.03-3.816-2.72
			c-1.485-11.187-0.778-12.116,10.325-12.12c0.333,0,0.666,0,1,0c14.343-0.007,14.256-0.003,13.617-14.372
			c-0.131-2.93-1.186-3.685-3.893-3.604c-5.328,0.16-10.664-0.025-15.994,0.09c-3.394,0.073-5.199-0.833-5.069-4.784
			c0.378-11.5-1.517-9.651,9.755-9.844c0.667-0.012,1.336,0.038,2-0.008c4.289-0.299,9.882,1.863,12.528-0.956
			c2.576-2.744,0.445-8.279,0.833-12.561c0.308-3.41-0.803-4.714-4.416-4.665c-12.494,0.167-24.994,0.139-37.488-0.058
			c-3.382-0.053-4.248,1.153-4.211,4.337C542.94,45.844,542.855,58.17,542.854,70.496z M771.922,75.033
			c-0.585-0.121-1.171-0.241-1.756-0.361c0-8.754-0.029-17.508,0.018-26.262c0.015-2.634,1.325-3.701,4.108-3.555
			c5.147,0.271,10.315,0.315,15.47,0.198c2.016-0.047,4.316,0.519,5.864-1.778c3.056-4.535,6.3-8.942,9.444-13.418
			c1.554-2.212,0.594-2.847-1.721-2.796c-3.663,0.08-7.556-0.74-10.934,0.247c-4.1,1.198-9.138-1.225-12.389,3.271
			c-3.384,4.677-5.441,11.491-10.368,13.55c-5.119,2.139-11.788,0.662-17.776,0.582c-2.459-0.032-3.64,0.56-3.629,3.31
			c0.075,19.818,0.059,39.637,0.004,59.456c-0.006,2.478,0.729,3.554,3.432,3.527c12.99-0.128,25.981-0.065,38.973-0.116
			c1.995-0.008,3.907-0.205,5.244-2.186c2.88-4.267,5.921-8.427,8.912-12.619c1.753-2.456,0.731-3.033-1.82-2.991
			c-5.494,0.089-10.996,0.157-16.486-0.027c-3.221-0.108-5.184,1.116-6.861,3.861c-2.359,3.86-5.223,7.414-7.87,11.099
			c-0.542-0.093-1.083-0.187-1.624-0.279c0-8.873-0.044-17.747,0.026-26.619c0.021-2.713,1.974-3.025,4.196-3.02
			c5.66,0.014,11.322-0.083,16.982-0.153c1.313-0.017,2.787,0.239,3.684-1.032c3.766-5.344,7.477-10.727,11.747-16.872
			c-7.623,0-14.077,0.134-20.521-0.061c-2.88-0.087-4.654,1.054-6.167,3.323C777.463,67.276,774.658,71.132,771.922,75.033z
			 M689.645,70.896c-0.035,0-0.07,0-0.104,0c0,12.631,0.099,25.263-0.083,37.891c-0.036,2.522,0.633,3.218,2.998,3.168
			c4.827-0.102,9.664-0.147,14.486,0.059c2.77,0.119,3.789-0.638,3.692-3.584c-0.249-7.648,0.041-15.316-0.307-22.957
			c-0.19-4.16,0.589-6.164,5.356-5.679c4.615,0.47,9.322-0.052,13.976,0.155c3.069,0.137,4.351-0.512,4.369-4.036
			c0.074-13.83,0.214-13.821-13.55-13.831c-11.414-0.007-10.037,1.255-10.015-10.667c0.005-2.953,0.919-4.31,4.013-4.147
			c3.156,0.165,6.327,0.034,9.492,0.034c13.199,0,13.094,0.001,12.959-13.276c-0.033-3.297-0.691-4.696-4.367-4.627
			c-12.985,0.244-25.979,0.286-38.967,0.112c-3.563-0.047-4.035,1.406-4.004,4.413C689.72,46.247,689.645,58.572,689.645,70.896z
			 M53.891,79.409c0.023,0,0.046,0,0.068,0c0,9.654,0.096,19.31-0.059,28.961c-0.045,2.845,0.824,3.761,3.667,3.626
			c4.651-0.22,9.336-0.303,13.975,0.018c3.656,0.252,4.423-1.151,4.396-4.534c-0.147-18.476,0.039-36.955-0.164-55.43
			c-0.043-3.897,0.947-5.164,4.95-5.029c4.217,0.142,10.023,2.047,12.301-0.946c2.109-2.771,0.458-8.284,0.786-12.565
			c0.27-3.525-1.01-4.504-4.502-4.463c-15.645,0.187-31.293,0.142-46.94,0.064c-4.09-0.02-7.383-0.225-5.521,5.812
			c1.136,3.681-1.583,9.118,0.956,11.446c2.716,2.49,7.939,0.813,12.042,0.692c3.454-0.103,4.167,1.25,4.108,4.385
			C53.78,60.764,53.891,70.088,53.891,79.409z M342.815,79.774c0-7.156-0.001-14.313,0-21.47
			c0.002-10.941,0.009-11.134,10.966-10.824c4.528,0.128,6.969-0.746,6.098-5.881c-0.329-1.94-0.27-4.014-0.008-5.977
			c0.621-4.654-0.932-6.342-5.909-6.235c-14.471,0.309-28.954,0.068-43.432,0.05c-6.58-0.008-6.58-0.002-6.51,6.669
			c0.117,11.211,0.124,11.443,11.466,11.122c4.837-0.137,6.208,1.346,6.137,6.151c-0.266,17.971-0.004,35.948-0.181,53.921
			c-0.037,3.742,1.047,4.984,4.791,4.703c4.303-0.322,8.658-0.239,12.973-0.013c2.951,0.154,3.687-1.038,3.654-3.758
			C342.746,98.748,342.815,89.261,342.815,79.774z M160.118,79.526c0,7.993,0.067,13.821-0.034,19.646
			c-0.039,2.247,0.518,3.306,3.044,3.267c4.816-0.074,9.649,0.005,14.452,0.352c3.64,0.263,4.379-1.265,4.41-4.614
			c0.131-14.455,0.452-28.911,0.932-43.358c0.097-2.906-0.911-4.523-3.181-6.105c-9.655-6.729-19.199-13.618-28.771-20.466
			c-9.375-6.706-9.368-6.715-16.21,2.829c-1.452,2.026-2.86,4.087-4.375,6.064c-1.619,2.111-1.738,3.46,0.974,5.067
			c4.852,2.875,9.093,6.872,14.102,9.374C158.232,57.962,163.931,67.424,160.118,79.526z M105.292,66.056
			c0,7.161,0.224,14.332-0.096,21.479c-0.157,3.501,1.198,5.519,3.908,7.331c8.954,5.99,17.841,12.081,26.705,18.204
			c7.691,5.313,14.267,4.132,19.324-3.578c0.73-1.113,1.396-2.29,2.268-3.283c2.316-2.642,1.817-4.369-1.132-6.323
			c-8.157-5.404-16.028-11.241-24.19-16.639c-3.156-2.088-4.382-4.542-4.31-8.265c0.204-10.487,0.02-20.981,0.226-31.468
			c0.056-2.86-0.771-3.699-3.587-3.583c-5.153,0.212-10.328,0.221-15.48-0.003c-2.877-0.125-3.747,0.835-3.688,3.653
			C105.395,51.069,105.292,58.563,105.292,66.056z"/>
		<path fill-rule="evenodd" clip-rule="evenodd" fill="#1D4D7D" d="M267.275,66.656c-4.466,10.851-8.935,21.7-13.395,32.554
			c-1.073,2.611-2.365,5.165-3.114,7.867c-1.227,4.421-4.083,5.405-8.224,4.908c-2.133-0.257-2.964-1.03-3.735-3.105
			c-4.85-13.053-9.932-26.021-15.045-38.974c-0.435-1.102-0.331-2.762-2.65-3.357c-1.441,8.95-2.927,17.813-4.274,26.698
			c-0.748,4.93-1.344,9.887-1.85,14.848c-0.264,2.587-1.245,3.919-4.056,3.846c-4.994-0.129-9.996-0.123-14.99,0.002
			c-2.66,0.065-3.059-1.167-2.66-3.41c3.888-21.876,7.798-43.749,11.534-65.651c0.581-3.403,0.769-6.882,1.33-10.319
			c0.458-2.804,1.689-3.564,4.278-3.483c4.659,0.145,9.347,0.35,13.981-0.005c3.259-0.25,4.417,1.364,5.354,3.914
			c4.234,11.521,8.505,23.028,12.808,34.524c0.498,1.328,0.409,3.391,2.233,3.557c2.165,0.196,1.709-2.171,2.151-3.315
			c4.413-11.435,8.743-22.904,12.824-34.46c1.141-3.229,2.785-4.433,6.172-4.225c4.481,0.276,8.996,0.188,13.487,0.023
			c2.508-0.091,3.466,0.826,3.866,3.297c2.856,17.67,5.832,35.32,8.808,52.971c1.271,7.537,2.377,15.117,4.07,22.562
			c0.797,3.506-0.304,4.1-3.309,4.017c-4.328-0.12-8.675-0.245-12.988,0.035c-3.43,0.223-4.601-1.096-5.055-4.4
			c-1.783-12.979-3.834-25.92-5.808-38.872c-0.092-0.603-0.395-1.173-0.599-1.758C268.038,66.847,267.656,66.751,267.275,66.656z"/>
		<path fill-rule="evenodd" clip-rule="evenodd" fill="#1D4D7D" d="M413.06,113.963c-23.333,1.787-40.752-14.287-44.548-32.305
			c-5.765-27.355,10.049-50.171,37.148-53.884c15.915-2.181,29.931,1.827,41.477,13.415c14.688,14.741,16.027,40.794,2.585,57.021
			C440.214,109.688,427.817,114.948,413.06,113.963z M436.318,70.472c1.245-11.746-10.992-23.645-24.7-22.864
			c-12.288,0.7-22.879,11.354-22.638,23.35c0.261,13.004,11.561,24.237,24.168,23.563C426.631,93.8,437.062,83.83,436.318,70.472z"
			/>
		<path fill-rule="evenodd" clip-rule="evenodd" fill="#1D4D7D" d="M473.12,70.775c0-12.325,0.101-24.652-0.064-36.976
			c-0.046-3.438,0.734-4.489,4.478-4.343c8.954,0.351,17.922,0.372,26.906-0.152c11.833-0.691,20.27,4.266,22.68,13.832
			c2.008,7.979,2.455,16.318-4.799,22.598c-2.248,1.947-1.525,2.792,0.799,3.712c2.139,0.847,4.273,1.82,6.191,3.073
			c3.074,2.011,4.897,4.764,4.67,8.732c-0.22,3.82-0.045,7.663-0.05,11.495c-0.012,9.714-5.017,15.779-14.653,18.29
			c-9.023,2.351-18.186,1.481-27.308,1.633c-4.997,0.082-10.003-0.139-14.992,0.077c-3.077,0.133-4.007-0.924-3.972-3.983
			c0.147-12.662,0.062-25.326,0.062-37.989C473.085,70.774,473.103,70.774,473.12,70.775z M493.974,86.812
			c-0.001,10.132,1.081,10.989,11.198,8.86c0.97-0.204,1.941-0.403,2.903-0.64c4.28-1.051,6.437-3.766,6.404-8.195
			c-0.034-4.524-2.562-6.999-6.738-7.915c-2.255-0.495-4.579-0.742-6.886-0.93c-6.172-0.503-6.863,0.169-6.881,6.332
			C493.972,85.153,493.974,85.982,493.974,86.812z M493.817,54.049c1.658,2.485-3.078,8.186,4.273,8.139
			c7.035-0.046,10.675-2.771,10.609-8.232c-0.064-5.258-3.479-7.701-9.756-8.17C491.504,45.229,494.712,50.592,493.817,54.049z"/>
		<path fill-rule="evenodd" clip-rule="evenodd" fill="#1D4D7D" d="M634.252,69.057c4.385-5.097,8.227-10.625,11.935-16.245
			c1.329-2.014-0.339-3.01-1.7-3.966c-2.854-2.007-5.699-4.03-8.628-5.923c-1.726-1.114-2.284-2.216-0.919-4.025
			c1.9-2.518,3.6-5.188,5.51-7.696c1.832-2.408,12.287-3.199,15.414-1.043c6.295,4.341,12.408,8.946,18.732,13.243
			c2.535,1.723,2.746,3.194,0.959,5.623c-3.84,5.22-7.357,10.676-11.199,15.894c-1.563,2.123-1.455,3.882,0.774,4.842
			c10.349,4.456,11.927,12.77,10.821,22.744c-0.564,5.098-0.242,10.312-0.077,15.465c0.081,2.55-0.656,3.661-3.323,3.592
			c-5.314-0.139-10.635-0.169-15.949-0.076c-2.731,0.049-3.423-1.268-3.303-3.693c0.246-4.983,0.257-9.979,0.586-14.955
			c0.211-3.177-0.928-5.297-3.564-7.088c-4.664-3.168-9.116-6.648-13.678-9.97c-0.893-0.649-1.736-1.896-3.009-1.163
			c-1.218,0.7-0.673,2.107-0.677,3.201c-0.035,9.656-0.229,19.319,0.096,28.964c0.131,3.876-1.302,5.012-4.775,4.896
			c-4.318-0.145-8.652-0.361-12.959-0.146c-3.126,0.156-3.918-0.875-3.891-3.944c0.152-16.765,0.098-33.531,0.06-50.297
			c-0.009-4.151-0.117-8.309-0.378-12.451c-0.177-2.795,0.809-3.894,3.672-3.78c4.988,0.197,9.992,0.282,14.978,0.1
			c2.748-0.101,3.299,0.915,3.249,3.441c-0.153,7.954-0.057,15.913-0.057,23.87C633.385,68.665,633.818,68.861,634.252,69.057z"/>
		<path fill-rule="evenodd" clip-rule="evenodd" fill="#1D4D7D" d="M843.643,113.963c-7.875,1.003-15.931-1.737-23.686-5.895
			c-2.95-1.581-3.665-3.451-1.876-6.418c1.884-3.122,3.661-6.333,5.182-9.645c1.24-2.699,2.116-3.561,4.899-1.248
			c5.669,4.709,12.169,7.027,19.789,5.543c4.05-0.788,6.238-3.249,6.98-6.827c0.796-3.838-1.886-6.395-4.906-7.895
			c-3.841-1.906-8.024-3.118-12.048-4.663c-4.951-1.9-10.142-3.468-13.59-7.889c-11.532-14.782-2.235-37.888,16.247-41.137
			c10.45-1.837,20.039,0.398,29.585,4.188c2.787,1.106,3.204,2.443,1.628,4.829c-0.727,1.099-1.195,2.365-1.8,3.546
			c-1.435,2.798-2.225,6.464-4.488,8.162c-2.821,2.116-5.049-2.195-7.962-2.858c-4.144-0.944-8.158-1.857-12.083,0.33
			c-4.985,2.778-5.091,8.615-0.234,11.634c3.556,2.21,7.666,3.075,11.575,4.396c4.281,1.446,8.389,3.181,11.905,6.071
			c4.548,3.737,7.61,8.134,7.302,14.469c-0.232,4.768,0.843,9.676-0.793,14.284c-3.583,10.097-13.341,16.865-24.047,17.018
			C849.06,113.988,846.896,113.963,843.643,113.963z"/>
		<path fill-rule="evenodd" clip-rule="evenodd" fill="#1D4D7D" d="M542.855,70.496c0-12.326,0.085-24.652-0.057-36.977
			c-0.037-3.184,0.829-4.39,4.211-4.337c12.494,0.196,24.994,0.225,37.488,0.058c3.613-0.049,4.724,1.255,4.416,4.665
			c-0.388,4.281,1.743,9.816-0.833,12.561c-2.646,2.819-8.239,0.657-12.528,0.956c-0.664,0.046-1.333-0.004-2,0.008
			c-11.271,0.192-9.377-1.656-9.755,9.844c-0.13,3.951,1.676,4.857,5.069,4.784c5.33-0.115,10.666,0.07,15.994-0.09
			c2.707-0.081,3.762,0.674,3.893,3.604c0.639,14.369,0.726,14.365-13.617,14.372c-0.334,0-0.667,0-1,0
			c-11.104,0.004-11.811,0.934-10.325,12.12c0.357,2.689,1.922,2.694,3.816,2.72c5.661,0.075,11.331,0.369,16.981,0.15
			c3.541-0.138,4.057,1.365,4.071,4.434c0.06,12.6,0.151,12.595-12.563,12.588c-9.331-0.005-18.668-0.189-27.99,0.095
			c-3.967,0.122-5.498-0.682-5.383-5.069C543.063,94.826,542.854,82.658,542.855,70.496z"/>
		<path fill-rule="evenodd" clip-rule="evenodd" fill="#204E7E" d="M771.922,75.033c2.736-3.901,5.541-7.757,8.182-11.722
			c1.513-2.27,3.287-3.41,6.167-3.323c6.444,0.194,12.898,0.061,20.521,0.061c-4.271,6.146-7.981,11.528-11.747,16.872
			c-0.896,1.271-2.371,1.016-3.684,1.032c-5.66,0.07-11.322,0.167-16.982,0.153c-2.223-0.006-4.175,0.307-4.196,3.02
			c-0.07,8.872-0.026,17.746-0.026,26.619c0.541,0.093,1.082,0.187,1.624,0.279c2.647-3.685,5.511-7.238,7.87-11.099
			c1.678-2.745,3.641-3.97,6.861-3.861c5.49,0.185,10.992,0.116,16.486,0.027c2.552-0.042,3.573,0.535,1.82,2.991
			c-2.991,4.192-6.032,8.353-8.912,12.619c-1.337,1.98-3.249,2.178-5.244,2.186c-12.991,0.051-25.982-0.012-38.973,0.116
			c-2.702,0.026-3.438-1.05-3.432-3.527c0.055-19.819,0.071-39.638-0.004-59.456c-0.011-2.75,1.17-3.342,3.629-3.31
			c5.988,0.08,12.657,1.557,17.776-0.582c4.927-2.059,6.984-8.873,10.368-13.55c3.251-4.495,8.289-2.072,12.389-3.271
			c3.378-0.987,7.271-0.167,10.934-0.247c2.314-0.051,3.274,0.584,1.721,2.796c-3.145,4.476-6.389,8.883-9.444,13.418
			c-1.548,2.297-3.849,1.731-5.864,1.778c-5.154,0.117-10.322,0.073-15.47-0.198c-2.783-0.146-4.094,0.921-4.108,3.555
			c-0.047,8.754-0.018,17.508-0.018,26.262C770.751,74.792,771.337,74.912,771.922,75.033z"/>
		<path fill-rule="evenodd" clip-rule="evenodd" fill="#1D4D7D" d="M689.645,70.896c0-12.324,0.075-24.649-0.055-36.973
			c-0.031-3.007,0.44-4.46,4.004-4.413c12.987,0.174,25.981,0.132,38.967-0.112c3.676-0.069,4.334,1.33,4.367,4.627
			c0.135,13.277,0.24,13.276-12.959,13.276c-3.165,0-6.336,0.131-9.492-0.034c-3.094-0.162-4.008,1.194-4.013,4.147
			c-0.022,11.922-1.399,10.66,10.015,10.667c13.764,0.01,13.624,0.001,13.55,13.831c-0.019,3.524-1.3,4.173-4.369,4.036
			c-4.653-0.207-9.36,0.314-13.976-0.155c-4.768-0.485-5.547,1.519-5.356,5.679c0.348,7.641,0.058,15.309,0.307,22.957
			c0.097,2.946-0.923,3.703-3.692,3.584c-4.822-0.206-9.659-0.16-14.486-0.059c-2.365,0.05-3.034-0.646-2.998-3.168
			c0.182-12.628,0.083-25.26,0.083-37.891C689.574,70.896,689.609,70.896,689.645,70.896z"/>
		<path fill-rule="evenodd" clip-rule="evenodd" fill="#204E7E" d="M924.074,96.66c1.5,1.996,4.892,1.257,5.834,4.132
			c1.737,5.303-0.421,8.895-5.928,9.71c-14.854,2.198-15.661,1.497-15.62-13.264c0.03-10.83,0.082-21.662-0.039-32.492
			c-0.033-2.963,0.889-4.916,3.432-6.593c5.469-3.606,10.715-7.551,16.923-11.979c-7.123-1.101-13.217-0.391-19.262-0.631
			c-6.809-0.271-13.621-0.487-20.434-0.586c-2.517-0.036-3.647-0.634-1.949-3.077c2.838-4.086,5.768-8.108,8.623-12.183
			c1.259-1.795,3.086-1.67,4.934-1.664c5.998,0.019,12.005-0.194,17.994,0.043c15.621,0.618,31.179-1.834,47.618-0.774
			c-3.834,6.102-7.324,12.068-12.131,16.921c-1.791,1.809-5.38,1.271-7.969-0.207c-1.195-0.683-2.285-1.8-3.432-0.339
			c-1.882,2.398-4.471,2.146-6.874,1.837c-4.887-0.629-5.944,1.736-5.89,6.058c0.17,13.495,0.066,26.993,0.068,40.49
			c0.001,1.464,0,2.928,0,4.68c-1.802-0.434-3.213-0.772-4.624-1.112c-0.597-0.737-1.461-1.085-2.086-0.371
			C922.769,95.825,923.43,96.391,924.074,96.66z"/>
		<path fill-rule="evenodd" clip-rule="evenodd" fill="#1D4D7D" d="M53.891,79.409c0-9.321-0.111-18.646,0.063-27.964
			c0.059-3.135-0.654-4.487-4.108-4.385c-4.103,0.12-9.326,1.798-12.042-0.692c-2.539-2.328,0.18-7.766-0.956-11.446
			c-1.863-6.036,1.43-5.831,5.521-5.812c15.646,0.077,31.295,0.122,46.94-0.064c3.492-0.041,4.772,0.938,4.502,4.463
			c-0.327,4.281,1.323,9.795-0.786,12.565c-2.278,2.993-8.084,1.088-12.301,0.946c-4.002-0.135-4.993,1.132-4.95,5.029
			c0.203,18.475,0.017,36.954,0.164,55.43c0.027,3.383-0.74,4.786-4.396,4.534c-4.639-0.32-9.324-0.237-13.975-0.018
			c-2.842,0.135-3.712-0.781-3.667-3.626c0.155-9.651,0.059-19.307,0.059-28.961C53.937,79.409,53.914,79.409,53.891,79.409z"/>
		<path fill-rule="evenodd" clip-rule="evenodd" fill="#1D4D7D" d="M342.815,79.774c0,9.486-0.069,18.974,0.044,28.459
			c0.033,2.72-0.703,3.912-3.654,3.758c-4.315-0.227-8.67-0.31-12.973,0.013c-3.744,0.281-4.828-0.961-4.791-4.703
			c0.177-17.973-0.084-35.95,0.181-53.921c0.071-4.806-1.299-6.288-6.137-6.151c-11.342,0.321-11.349,0.089-11.466-11.122
			c-0.07-6.671-0.07-6.677,6.51-6.669c14.478,0.019,28.961,0.259,43.432-0.05c4.977-0.106,6.53,1.581,5.909,6.235
			c-0.262,1.963-0.321,4.036,0.008,5.977c0.871,5.135-1.57,6.009-6.098,5.881c-10.957-0.31-10.964-0.117-10.966,10.824
			C342.814,65.462,342.815,72.618,342.815,79.774z"/>
		<path fill-rule="evenodd" clip-rule="evenodd" fill="#204E7E" d="M160.118,79.526c3.813-12.103-1.886-21.564-14.659-27.945
			c-5.009-2.502-9.25-6.499-14.102-9.374c-2.712-1.607-2.593-2.956-0.974-5.067c1.516-1.978,2.923-4.038,4.375-6.064
			c6.842-9.544,6.835-9.535,16.21-2.829c9.573,6.848,19.116,13.737,28.771,20.466c2.271,1.582,3.278,3.199,3.181,6.105
			c-0.48,14.447-0.801,28.903-0.932,43.358c-0.03,3.35-0.77,4.877-4.41,4.614c-4.802-0.347-9.636-0.426-14.452-0.352
			c-2.526,0.039-3.083-1.02-3.044-3.267C160.185,93.348,160.118,87.52,160.118,79.526z"/>
		<path fill-rule="evenodd" clip-rule="evenodd" fill="#204E7E" d="M105.292,66.056c0-7.492,0.103-14.986-0.053-22.475
			c-0.059-2.818,0.811-3.778,3.688-3.653c5.152,0.224,10.327,0.215,15.48,0.003c2.816-0.116,3.644,0.723,3.587,3.583
			c-0.206,10.486-0.022,20.98-0.226,31.468c-0.072,3.723,1.154,6.177,4.31,8.265c8.162,5.397,16.033,11.234,24.19,16.639
			c2.95,1.954,3.448,3.682,1.132,6.323c-0.871,0.993-1.538,2.17-2.268,3.283c-5.057,7.71-11.633,8.891-19.324,3.578
			c-8.864-6.123-17.751-12.214-26.705-18.204c-2.71-1.813-4.064-3.83-3.908-7.331C105.517,80.388,105.292,73.217,105.292,66.056z"/>
		<path display="none" fill-rule="evenodd" clip-rule="evenodd" fill="#FDFDFD" d="M436.318,70.472
			c0.744,13.358-9.687,23.328-23.17,24.049c-12.608,0.674-23.907-10.56-24.168-23.563c-0.241-11.996,10.35-22.649,22.638-23.35
			C425.326,46.827,437.563,58.726,436.318,70.472z"/>
		<path display="none" fill-rule="evenodd" clip-rule="evenodd" fill="#FDFDFD" d="M493.974,86.812c0-0.829-0.002-1.658,0-2.487
			c0.019-6.163,0.709-6.835,6.881-6.332c2.307,0.188,4.631,0.435,6.886,0.93c4.177,0.916,6.704,3.391,6.738,7.915
			c0.032,4.43-2.124,7.145-6.404,8.195c-0.962,0.236-1.934,0.436-2.903,0.64C495.055,97.801,493.973,96.943,493.974,86.812z"/>
		<path display="none" fill-rule="evenodd" clip-rule="evenodd" fill="#FDFDFD" d="M493.817,54.049
			c0.895-3.457-2.313-8.82,5.126-8.264c6.277,0.469,9.691,2.912,9.756,8.17c0.066,5.461-3.574,8.187-10.609,8.232
			C490.74,62.234,495.476,56.534,493.817,54.049z"/>
		<path display="none" fill-rule="evenodd" clip-rule="evenodd" fill="#FDFDFD" d="M924.074,96.66
			c-0.645-0.27-1.306-0.835-0.811-1.401c0.625-0.714,1.489-0.366,2.086,0.371C924.924,95.974,924.499,96.316,924.074,96.66z"/>
	</g>
</g>
</svg>
