<?xml version="1.0" encoding="utf-8"?>
<!-- Generator: Adobe Illustrator 16.0.0, SVG Export Plug-In . SVG Version: 6.00 Build 0)  -->
<!DOCTYPE svg PUBLIC "-//W3C//DTD SVG 1.1//EN" "http://www.w3.org/Graphics/SVG/1.1/DTD/svg11.dtd">
<svg version="1.1" id="Layer_1" xmlns="http://www.w3.org/2000/svg" xmlns:xlink="http://www.w3.org/1999/xlink" x="0px" y="0px"
	 width="956px" height="452px" viewBox="0 0 956 452" enable-background="new 0 0 956 452" xml:space="preserve">
<g>
	<g>
		<path display="none" fill-rule="evenodd" clip-rule="evenodd" fill="#FEFEFE" d="M467.847-111.769
			c174.808,0,349.615,0.019,524.424-0.114c4.094-0.003,4.84,0.868,4.838,4.883c-0.123,207.803-0.121,415.605-0.008,623.406
			c0.002,3.9-0.563,4.945-4.775,4.945c-349.616-0.131-699.231-0.129-1048.846-0.023c-3.797,0-4.572-0.916-4.57-4.615
			c0.101-207.97,0.1-415.938,0.005-623.907c-0.002-3.61,0.59-4.682,4.509-4.68C118.231-111.752,293.039-111.769,467.847-111.769z
			 M658.671,201.275c-0.357-0.502-0.715-1.004-1.073-1.505c-0.082-16.139-0.281-32.277-0.162-48.413
			c0.027-3.659-0.8-4.856-4.658-4.779c-12.828,0.258-25.666-0.007-38.497,0.166c-3.485,0.047-5.258-0.561-4.913-4.582
			c0.355-4.136,0.294-8.341,0.012-12.488c-0.235-3.457,0.84-4.538,4.394-4.483c13.33,0.208,26.666,0.005,39.998,0.146
			c2.844,0.03,3.59-0.824,3.645-3.633c0.305-15.483,0.282-30.961-0.001-46.444c-0.052-2.866-0.948-3.652-3.733-3.637
			c-18.499,0.104-36.999,0.076-55.499,0.023c-1.978-0.006-3.478,0.612-4.915,1.936c-7.6,6.998-15.216,13.98-22.931,20.851
			c-1.783,1.588-2.404,3.252-2.396,5.607c0.081,24,0.083,47.999,0.001,71.999c-0.008,2.385,0.707,3.994,2.489,5.572
			c7.235,6.407,14.347,12.956,21.477,19.48c1.971,1.803,3.765,3.755,6.885,3.187c2.326-0.423,2.174,1.321,2.167,2.857
			c-0.025,5.5-0.179,11.005,0.022,16.497c0.104,2.83-0.739,3.714-3.61,3.653c-8.496-0.18-17.001-0.189-25.497,0.003
			c-2.971,0.067-4.056-0.575-3.947-3.798c0.258-7.658-0.031-15.333,0.144-22.995c0.061-2.677-0.781-3.438-3.384-3.328
			c-4.658,0.194-9.347-0.186-13.992,0.129c-3.785,0.256-5.108-0.718-5.011-4.811c0.297-12.488-0.026-24.991,0.194-37.482
			c0.063-3.615-1.131-4.486-4.543-4.4c-8.661,0.219-17.333-0.042-25.997,0.133c-3.089,0.063-4.089-0.979-3.946-4.011
			c0.212-4.49,0.292-9.014-0.021-13.492c-0.249-3.553,1.318-4.068,4.344-4.015c8.831,0.157,17.667-0.052,26.498,0.117
			c2.876,0.055,3.659-0.871,3.636-3.686c-0.122-15.328-0.175-30.659,0.032-45.984c0.048-3.574-1.355-4.1-4.383-4.042
			c-8.164,0.154-16.341-0.168-24.495,0.144c-4.197,0.161-5.915-0.712-5.679-5.383c0.37-7.307-0.255-14.658-0.06-21.98
			c0.091-3.443-1.156-4.137-4.292-4.089c-10.998,0.165-22.001,0.207-32.997-0.021c-3.454-0.072-4.057,1.151-4.05,4.274
			c0.094,42.333,0.091,84.665,0.004,126.998c-0.005,2.764,0.824,4.61,2.888,6.403c5.427,4.715,10.656,9.658,16.773,15.251
			c-10.245,0-19.214,0.074-28.181-0.023c-6.936-0.076-6.316,1.472-6.207-6.404c0.664-47.474-0.063-94.947,0.052-142.42
			c0.009-3.474-1.22-4.1-4.312-4.056c-10.998,0.156-22.002,0.211-32.997-0.026c-3.508-0.076-4.022,1.234-4.017,4.306
			c0.083,50.499,0.084,100.999,0,151.498c-0.005,3.08,0.548,4.799,4.001,4.145c4.133-0.784,5.193,0.839,5.165,5.028
			c-0.201,29.831-0.097,59.665-0.121,89.498c-0.002,2.561-0.441,5.306,3.626,4.472c4.874-0.999,5.49,1.481,5.474,5.701
			c-0.149,36.998-0.063,73.997-0.127,110.997c-0.005,2.834,0.095,4.424,3.833,4.402c29.832-0.176,59.665-0.117,89.498-0.061
			c2.145,0.004,3.731-0.584,5.317-2.057c7.449-6.914,14.94-13.789,22.583-20.486c2.109-1.85,2.808-3.771,2.77-6.475
			c-0.131-9.496-0.048-18.996-0.048-28.493c0-8.214,0-8.209-8.093-8.642c-0.213-0.012-0.406-0.412-0.779-0.817
			c1.086-1.005,2.052-2.189,3.273-2.977c4.704-3.028,6.656-7.279,5.556-12.702c-1.203-5.932,0.273-11.797,0.101-17.697
			c-0.063-2.15-0.57-3.717-2.228-5.191c-7.719-6.867-15.328-13.858-22.977-20.804c-1.23-1.117-2.41-2.543-4.269-2.217
			c-4.621,0.809-4.504-1.972-4.492-5.268c0.089-22.833-0.03-45.666,0.131-68.498c0.025-3.506-0.94-5.912-3.667-8.085
			c-3.395-2.706-6.45-5.838-10.567-9.628c9.064,0,16.69,0.116,24.31-0.062c2.775-0.064,2.831,1.315,2.813,3.367
			c-0.067,7.832-0.047,15.666-0.021,23.499c0.025,7.327-1.966,15.557,0.732,21.727c2.692,6.157,10.341,10.024,15.367,15.322
			c3.724,3.924,7.722,6.094,13.132,5.171c3.31-0.564,3.815,1.104,3.752,3.972c-0.163,7.329-0.054,14.665-0.001,21.998
			c0.009,1.29-0.535,3.527,0.576,3.695c3.997,0.604,2.36,3.508,2.365,5.372c0.097,37.166,0.114,74.332,0.003,111.496
			c-0.01,3.287,0.507,4.561,4.226,4.533c24.998-0.18,49.999-0.137,74.998-0.027c2.581,0.01,4.351-0.865,6.146-2.527
			c6.846-6.342,13.674-12.711,20.752-18.785c2.895-2.484,4.096-5.031,4.061-8.914c-0.193-22.331-0.266-44.667,0.045-66.996
			c0.068-4.862-1.43-8.037-5.055-10.979c-4.635-3.762-8.895-7.985-14.254-12.864c10.732,0,19.889,0.218,29.023-0.1
			c4.043-0.14,5.264,0.768,5.24,5.068c-0.195,37.165-0.049,74.331-0.205,111.497c-0.016,3.764,0.926,4.723,4.656,4.629
			c10.826-0.27,21.666-0.207,32.496-0.025c3.164,0.053,4.293-0.686,4.213-4.07c-0.186-7.822,0.213-15.658,0.123-23.484
			c-0.033-2.814,0.791-3.721,3.65-3.684c11.164,0.146,22.334,0.15,33.498-0.004c2.844-0.039,3.676,0.791,3.637,3.633
			c-0.109,7.992,0.221,15.99,0.117,23.98c-0.037,2.887,0.912,3.652,3.709,3.617c11.33-0.141,22.668-0.211,33.997,0.031
			c3.57,0.078,3.969-1.352,3.959-4.342c-0.084-31.832-0.086-63.663,0.014-95.493c0.008-2.78-0.902-4.596-2.93-6.384
			c-6.996-6.174-13.935-12.423-20.702-18.846c-2.709-2.57-5.479-3.701-9.295-3.674c-23.664,0.171-47.332,0.105-70.998,0.044
			c-1.672-0.004-3.598,0.777-5.359-1.071c3.254-2.98,6.328-5.985,9.613-8.735c1.945-1.629,2.783-3.342,2.773-5.954
			c-0.1-26.333-0.057-52.666-0.066-78.999c0-0.988,0.211-2.633-0.242-2.863c-4.457-2.273-2.123-6.225-2.455-9.451
			c-0.203-1.969,0.131-3.987,0.133-5.984c0.016-16.166,0.148-32.335-0.09-48.498c-0.059-4.028,1.182-5.025,5.021-4.89
			c7.99,0.284,16.004,0.277,23.994,0.003c3.781-0.131,5.096,0.746,5.033,4.837c-0.254,16.495-0.137,32.997-0.088,49.497
			c0.018,6.155-1.297,12.886,0.756,18.31c2.242,5.925-1.039,9.435-2.381,13.896c-0.811,2.696-2.137,5.234-3.061,7.902
			c-3.742,10.796,2.547,22.151,13.373,25.534c9.475,2.96,16.275-1.29,23.008-6.826c4.92-4.046,8.199-9.527,12.523-14.111
			c3.27-3.466,5.004-2.936,8.042-0.334c9.375,8.023,16.479,8.496,26.52,1.453c4.623-3.244,9.059-4.997,14.492-2.454
			c0.873,0.409,1.941,0.438,2.932,0.555c4.684,0.552,8.078,2.422,9.082,7.587c0.324,1.66,1.697,3.248,2.906,4.579
			c5.971,6.567,13.258,9.376,21.979,6.718c4.77-1.453,7.195,0.021,7.867,4.834c0.113,0.815,0.361,1.615,0.578,2.414
			c1.854,6.854,3.135,13.89,6.734,20.174c6.883,12.013,20.795,14.393,31.42,5.576c6.002-4.98,6.387-12.113,6.771-18.651
			c0.791-13.499,3.508-26.718,4.705-40.134c0.871-9.744,2.621-19.583-1.436-29.003c-3.271-7.594-8.166-14.555-8.592-23.205
			c-0.02-0.414-0.578-0.792-0.857-1.205c-6.6-9.74-23.574-8.916-29.266,1.701c-2.365,4.411-4.764,6.501-9.855,4.469
			c-2.887-1.151-6.08-1.604-9.172-2.158c-3.348-0.599-4.367-1.707-3.338-5.517c4.84-17.912,7.85-36.164,7.756-54.773
			c-0.057-11.347-0.871-22.709-4.703-33.52c-4.635-13.079-13.869-18.51-27.611-16.748c-6.674,0.855-12.965,2.967-19.104,5.65
			c-14.859,6.495-28.57,15.103-42.392,23.445c-4.801,2.897-8.039,2.03-11.617-1.303c-3.535-3.294-7.25-6.403-10.68-9.801
			c-2.17-2.15-4.473-3.002-7.547-2.967c-13.164,0.149-26.334-0.025-39.498,0.125c-3.219,0.037-4.332-0.891-4.271-4.205
			c0.143-7.658-0.264-15.327-0.119-22.985c0.061-3.217-0.764-4.316-4.139-4.247c-10.494,0.214-21.004,0.308-31.494-0.029
			c-4.494-0.145-5.766,1.006-5.748,5.654c0.189,47.498,0.068,94.998,0.211,142.497c0.012,3.901-0.955,5.482-4.883,4.809
			c-4.469-0.767-8.063,0.662-10.996,4.181C661.951,198.914,660.197,200,658.671,201.275z M308.426,200.243
			c7.577,0,14.354,0.27,21.096-0.103c3.936-0.217,4.565,1.163,4.546,4.737c-0.15,27.331-0.17,54.664,0.018,81.995
			c0.028,4.002-1.142,4.918-4.972,4.882c-19.664-0.188-39.331-0.06-58.996-0.119c-2.614-0.008-4.228,0.057-4.216,3.596
			c0.134,40.498,0.115,80.995,0.026,121.493c-0.006,2.865,0.853,3.615,3.638,3.578c10.997-0.146,22.001-0.219,32.995,0.029
			c3.652,0.082,4.745-0.758,4.722-4.598c-0.125-20.66,0.092-41.322,0.167-61.982c0.031-8.491,0.024-8.15,8.247-8.605
			c4.707-0.261,5.35,1.429,5.314,5.577c-0.19,21.663,0.035,43.331-0.155,64.995c-0.033,3.793,0.976,4.707,4.678,4.617
			c10.827-0.262,21.668-0.268,32.494,0.002c3.751,0.094,4.232-1.314,4.224-4.57c-0.048-20.828,0.122-41.656,0.199-62.482
			c0.03-8.023,0.022-7.697,8.213-8.135c4.63-0.247,5.392,1.317,5.353,5.54c-0.204,21.829-0.006,43.663-0.138,65.495
			c-0.02,3.254,0.835,4.195,4.12,4.137c11.163-0.207,22.333-0.207,33.496,0.002c3.163,0.059,3.811-0.904,3.849-3.914
			c0.399-32.148,0.392-64.295-0.014-96.443c-0.03-2.394-0.76-4.024-2.521-5.581c-5.313-4.695-10.493-9.54-16.658-15.18
			c5,0.445,7.821,0.309,7.579-5.196c-0.542-12.293-0.264-24.628-0.099-36.942c0.042-3.066-0.812-3.983-3.916-3.923
			c-9.996,0.195-20.005-0.157-29.993,0.184c-4.124,0.141-4.846-1.27-4.791-4.999c0.207-14.163,0.111-28.331,0.062-42.497
			c-0.011-3.165-0.641-6.48,4.461-5.8c0.822,0.109,1.906-1.185,2.758-1.954c7.543-6.814,15.014-13.71,22.621-20.451
			c1.786-1.583,2.458-3.218,2.489-5.59c0.42-32.151,0.392-64.301,0.046-96.453c-0.039-3.595-1.434-4.003-4.4-3.967
			c-10.831,0.129-21.67,0.237-32.495-0.049c-3.895-0.103-4.635,1.168-4.606,4.791c0.163,20.664,0.06,41.33,0.05,61.996
			c-0.004,8.375-0.011,8.11-8.43,8.421c-4.39,0.162-5.138-1.453-5.12-5.417c0.095-21.661-0.179-43.324-0.098-64.985
			c0.014-3.632-0.755-4.906-4.636-4.803c-10.492,0.282-21.002,0.292-31.493-0.002c-4.063-0.113-5.346,0.827-5.297,5.125
			c0.232,20.662,0.084,41.329,0.075,61.995c-0.004,8.028-0.009,7.798-8.264,8.075c-4.138,0.14-5.322-1.042-5.298-5.24
			c0.125-21.827-0.16-43.656-0.09-65.484c0.011-3.51-0.979-4.522-4.465-4.449c-10.329,0.216-20.676,0.368-30.992-0.05
			c-4.897-0.198-5.971,1.226-5.942,6.007c0.219,36.996,0.102,73.995,0.161,110.993c0.004,2.899,0.207,5.124-3.962,4.771
			c-4.798-0.406-9.67-0.301-14.487-0.021c-3.176,0.184-3.884-0.926-3.847-3.931c0.159-12.826-0.039-25.657,0.144-38.483
			c0.046-3.253-0.82-4.355-4.154-4.276c-8.662,0.204-17.333-0.04-25.996,0.125c-3.12,0.06-4.537-0.704-4.333-4.13
			c0.267-4.483,0.248-9.006,0.003-13.492c-0.17-3.124,0.925-3.958,3.965-3.893c8.829,0.191,17.666-0.041,26.496,0.129
			c2.941,0.056,4.055-0.6,4.019-3.823c-0.17-15.326-0.157-30.656-0.006-45.983c0.031-3.127-0.981-3.98-3.991-3.924
			c-8.83,0.167-17.667-0.051-26.496,0.117c-3.048,0.059-4.033-0.902-3.991-3.971c0.108-7.826-0.251-15.659-0.139-23.485
			c0.043-3.019-0.76-4.024-3.903-3.969c-10.829,0.188-21.668,0.248-32.495-0.021c-3.893-0.097-5.03,0.915-4.968,4.906
			c0.245,15.651,0.1,31.308,0.1,47.392c-2.432-0.528-4.488-1.172-6.588-1.39c-4.009-0.415-5.566-2.101-5.229-6.438
			c0.395-5.08-1.338-9.874-4.744-13.854c-1.83-2.138-4.073-3.475-7.036-2.828c-3.212,0.701-4.74,3.108-5.269,6.014
			c-1.294,7.113-0.257,13.731,5.581,18.658c1.998,1.686,2.134,2.967,0.771,4.968c-1.985,2.912-4.123,5.7-6.912,7.846
			c-5.412,4.162-10.907,8.218-16.427,12.236c-16.974,12.359-29.834,27.905-37.453,47.643c-4.226,10.949-5.458,21.913-1.251,33.139
			c0.377,1.006,1.247,2.007-0.058,3.106c-2.666,2.246-8.192,1.426-10.199-1.693c-1.72-2.673-3.881-4.725-7.212-4.583
			c-7.644,0.324-10.536,3.067-11.877,10.842c-0.11,0.64-0.226,1.374-0.603,1.857c-4.788,6.136-4.948,13.32-4.248,20.484
			c1.036,10.596,2.482,21.154,3.885,31.712c1.01,7.6,7.313,11.738,14.785,10.163c5.601-1.181,8.459-4.992,10.075-9.972
			c1.226-3.779,2.027-7.695,3.076-11.534c0.337-1.236,0.635-3.054,2.435-2.427c9.243,3.218,14.372-1.361,18.28-9.036
			c1.682-3.304,9.601-4.572,12.551-2.428c6.527,4.745,12.282,4.767,18.556-0.495c1.983-1.663,2.838-1.437,4.371,0.249
			c2.908,3.198,5.853,6.399,9.083,9.261c4.429,3.923,10.914,4.442,15.268,1.618c5.208-3.376,6.891-7.625,4.594-14.264
			c-3.688-10.659-7.744-21.197-11.878-31.694c-2.438-6.189-6.356-11.283-12.655-14.106c-1.147-0.515-1.834-1.401-2.371-2.447
			c-2.836-5.524-7.273-5.104-12.367-3.777c-5.095,1.326-7.177,4.397-6.977,9.379c0.087,2.183-0.26,3.728-2.874,4.348
			c-8.097,1.923-16.155,4.018-24.182,6.215c-2.601,0.712-3.565-0.165-4.142-2.602c-1.41-5.951-1.45-11.906-0.224-17.841
			c2.47-11.959,8.029-22.501,14.997-32.418c8.008-11.397,18.849-19.646,29.993-27.62c6.226-4.454,13.174-8.477,16.884-15.329
			c2.992-5.525,6.458-6.757,11.853-4.632c0.303,0.119,0.664,0.192,0.982,0.154c4.552-0.55,4.853,2.036,4.828,5.72
			c-0.148,22.164-0.018,44.331-0.137,66.495c-0.016,2.933,0.833,4.913,3.037,6.846c7.39,6.482,14.641,13.127,21.831,19.832
			c1.844,1.72,3.72,2.367,6.227,2.344c12.499-0.116,25.002,0.126,37.495-0.159c3.893-0.089,4.58,1.124,4.559,4.727
			c-0.154,27.164-0.2,54.331,0.034,81.494c0.039,4.456-1.143,5.447-5.476,5.416c-28.664-0.206-57.33-0.104-85.995-0.109
			c-2.472-0.001-4.76-0.618-4.744,3.551c0.16,40.497,0.125,80.995,0.038,121.493c-0.006,2.842,0.813,3.633,3.621,3.596
			c11.331-0.148,22.667-0.205,33.996,0.025c3.379,0.068,3.717-1.299,3.691-4.08c-0.071-7.826,0.245-15.658,0.158-23.484
			c-0.031-2.807,0.777-3.729,3.645-3.689c11.164,0.146,22.333,0.15,33.497-0.004c2.854-0.041,3.669,0.807,3.629,3.639
			c-0.11,7.824,0.268,15.658,0.1,23.48c-0.072,3.344,0.994,4.184,4.234,4.127c10.996-0.197,22-0.205,32.996,0.002
			c3.39,0.064,4.511-0.711,4.495-4.33c-0.147-31.828-0.119-63.659-0.021-95.488c0.009-2.775-0.877-4.61-2.919-6.39
			c-5.3-4.618-10.419-9.442-16.359-14.869c7.184,0,13.194-0.379,19.131,0.121c4.704,0.396,5.492-1.39,5.281-5.54
			c-0.338-6.649,0.15-13.34-0.182-19.989c-0.188-3.772,0.917-4.693,4.657-4.652c18.83,0.207,37.666-0.059,56.494,0.211
			c4.314,0.062,5.174-1.221,5.074-5.255c-0.277-11.158-0.875-22.403,0.15-33.476c1.142-12.323-1.607-22.101-12.579-28.722
			C309.455,201.783,309.313,201.426,308.426,200.243z M834.993,367.726c0,16.153,0.09,32.31-0.076,48.462
			c-0.035,3.256,0.836,4.152,4.113,4.129c20.482-0.152,40.969-0.127,61.453-0.014c2.586,0.014,4.361-0.912,6.15-2.561
			c7.225-6.658,14.459-13.309,21.85-19.781c2.105-1.842,2.748-3.781,2.742-6.477c-0.076-31.786-0.096-63.572,0.023-95.357
			c0.014-3.387-0.762-4.563-4.365-4.533c-20.316,0.17-40.635,0.119-60.953,0.035c-2.523-0.01-4.391,0.743-6.223,2.448
			c-7.313,6.807-14.691,13.544-22.166,20.173c-1.916,1.698-2.631,3.454-2.611,6.012
			C835.048,336.082,834.989,351.904,834.993,367.726z M15.987,355.962c0,20.161,0.071,40.325-0.074,60.485
			c-0.022,3.094,0.791,3.883,3.874,3.869c27.327-0.125,54.655-0.113,81.982-0.014c2.82,0.01,3.607-0.777,3.655-3.607
			c0.257-15.314,0.293-30.621,0.018-45.936c-0.06-3.311-0.994-4.209-4.249-4.164c-12.828,0.177-25.664-0.085-38.489,0.164
			c-4.052,0.079-5.38-0.903-5.354-5.18c0.135-21.824-0.149-43.65-0.092-65.475c0.009-3.414-0.809-4.596-4.394-4.52
			c-10.826,0.228-21.663,0.215-32.49,0.005c-3.434-0.067-4.505,0.815-4.474,4.384C16.076,315.969,15.985,335.966,15.987,355.962z"/>
		<path fill-rule="evenodd" clip-rule="evenodd" fill="#1A4E7E" d="M658.671,201.275c1.526-1.275,3.28-2.361,4.534-3.864
			c2.934-3.519,6.527-4.947,10.996-4.181c3.928,0.674,4.895-0.907,4.883-4.809c-0.143-47.499-0.021-94.999-0.211-142.497
			c-0.018-4.648,1.254-5.799,5.748-5.654c10.49,0.337,21,0.243,31.494,0.029c3.375-0.069,4.199,1.03,4.139,4.247
			c-0.145,7.658,0.262,15.327,0.119,22.985c-0.061,3.314,1.053,4.242,4.271,4.205c13.164-0.15,26.334,0.024,39.498-0.125
			c3.074-0.035,5.377,0.816,7.547,2.967c3.43,3.397,7.145,6.507,10.68,9.801c3.578,3.333,6.816,4.2,11.617,1.303
			c13.821-8.343,27.532-16.95,42.392-23.445c6.139-2.684,12.43-4.795,19.104-5.65c13.742-1.762,22.977,3.669,27.611,16.748
			c3.832,10.811,4.646,22.173,4.703,33.52c0.094,18.609-2.916,36.861-7.756,54.773c-1.029,3.81-0.01,4.918,3.338,5.517
			c3.092,0.555,6.285,1.007,9.172,2.158c5.092,2.032,7.49-0.058,9.855-4.469c5.691-10.617,22.666-11.441,29.266-1.701
			c0.279,0.413,0.838,0.791,0.857,1.205c0.426,8.65,5.32,15.611,8.592,23.205c4.057,9.42,2.307,19.259,1.436,29.003
			c-1.197,13.416-3.914,26.635-4.705,40.134c-0.385,6.538-0.77,13.671-6.771,18.651c-10.625,8.816-24.537,6.437-31.42-5.576
			c-3.6-6.284-4.881-13.319-6.734-20.174c-0.217-0.799-0.465-1.599-0.578-2.414c-0.672-4.813-3.098-6.287-7.867-4.834
			c-8.721,2.658-16.008-0.15-21.979-6.718c-1.209-1.331-2.582-2.919-2.906-4.579c-1.004-5.165-4.398-7.035-9.082-7.587
			c-0.99-0.116-2.059-0.146-2.932-0.555c-5.434-2.543-9.869-0.79-14.492,2.454c-10.041,7.043-17.145,6.57-26.52-1.453
			c-3.038-2.602-4.772-3.132-8.042,0.334c-4.324,4.584-7.604,10.065-12.523,14.111c-6.732,5.536-13.533,9.786-23.008,6.826
			c-10.826-3.383-17.115-14.738-13.373-25.534c0.924-2.668,2.25-5.206,3.061-7.902c1.342-4.462,4.623-7.972,2.381-13.896
			c-2.053-5.424-0.738-12.154-0.756-18.31c-0.049-16.5-0.166-33.002,0.088-49.497c0.063-4.091-1.252-4.968-5.033-4.837
			c-7.99,0.274-16.004,0.281-23.994-0.003c-3.84-0.136-5.08,0.861-5.021,4.89c0.238,16.163,0.105,32.332,0.09,48.498
			c-0.002,1.997-0.336,4.016-0.133,5.984c0.332,3.227-2.002,7.178,2.455,9.451c0.453,0.23,0.242,1.875,0.242,2.863
			c0.01,26.333-0.033,52.666,0.066,78.999c0.01,2.612-0.828,4.325-2.773,5.954c-3.285,2.75-6.359,5.755-9.613,8.735
			c1.762,1.849,3.688,1.067,5.359,1.071c23.666,0.062,47.334,0.127,70.998-0.044c3.816-0.027,6.586,1.104,9.295,3.674
			c6.768,6.423,13.706,12.672,20.702,18.846c2.027,1.788,2.938,3.604,2.93,6.384c-0.1,31.83-0.098,63.661-0.014,95.493
			c0.01,2.99-0.389,4.42-3.959,4.342c-11.329-0.242-22.667-0.172-33.997-0.031c-2.797,0.035-3.746-0.73-3.709-3.617
			c0.104-7.99-0.227-15.988-0.117-23.98c0.039-2.842-0.793-3.672-3.637-3.633c-11.164,0.154-22.334,0.15-33.498,0.004
			c-2.859-0.037-3.684,0.869-3.65,3.684c0.09,7.826-0.309,15.662-0.123,23.484c0.08,3.385-1.049,4.123-4.213,4.07
			c-10.83-0.182-21.67-0.244-32.496,0.025c-3.73,0.094-4.672-0.865-4.656-4.629c0.156-37.166,0.01-74.332,0.205-111.497
			c0.023-4.301-1.197-5.208-5.24-5.068c-9.135,0.317-18.291,0.1-29.023,0.1c5.359,4.879,9.619,9.103,14.254,12.864
			c3.625,2.941,5.123,6.116,5.055,10.979c-0.311,22.329-0.238,44.665-0.045,66.996c0.035,3.883-1.166,6.43-4.061,8.914
			c-7.078,6.074-13.906,12.443-20.752,18.785c-1.795,1.662-3.564,2.537-6.146,2.527c-24.999-0.109-50-0.152-74.998,0.027
			c-3.719,0.027-4.235-1.246-4.226-4.533c0.111-37.164,0.094-74.33-0.003-111.496c-0.004-1.864,1.632-4.769-2.365-5.372
			c-1.111-0.168-0.567-2.405-0.576-3.695c-0.053-7.333-0.162-14.669,0.001-21.998c0.063-2.867-0.442-4.536-3.752-3.972
			c-5.41,0.923-9.408-1.247-13.132-5.171c-5.026-5.298-12.675-9.165-15.367-15.322c-2.698-6.17-0.707-14.399-0.732-21.727
			c-0.026-7.833-0.046-15.667,0.021-23.499c0.018-2.052-0.038-3.432-2.813-3.367c-7.619,0.178-15.246,0.062-24.31,0.062
			c4.117,3.79,7.172,6.922,10.567,9.628c2.727,2.173,3.691,4.579,3.667,8.085c-0.162,22.832-0.042,45.665-0.131,68.498
			c-0.013,3.296-0.129,6.076,4.492,5.268c1.858-0.326,3.039,1.1,4.269,2.217c7.649,6.945,15.258,13.937,22.977,20.804
			c1.658,1.475,2.165,3.041,2.228,5.191c0.172,5.9-1.304,11.766-0.101,17.697c1.1,5.423-0.852,9.674-5.556,12.702
			c-1.222,0.787-2.187,1.972-3.273,2.977c0.373,0.405,0.565,0.806,0.779,0.817c8.093,0.433,8.093,0.428,8.093,8.642
			c0,9.497-0.083,18.997,0.048,28.493c0.038,2.703-0.661,4.625-2.77,6.475c-7.643,6.697-15.134,13.572-22.583,20.486
			c-1.586,1.473-3.172,2.061-5.317,2.057c-29.833-0.057-59.666-0.115-89.498,0.061c-3.738,0.021-3.837-1.568-3.833-4.402
			c0.063-37-0.022-73.999,0.127-110.997c0.017-4.22-0.6-6.7-5.474-5.701c-4.068,0.834-3.629-1.911-3.626-4.472
			c0.024-29.833-0.08-59.667,0.121-89.498c0.028-4.189-1.032-5.813-5.165-5.028c-3.453,0.654-4.006-1.064-4.001-4.145
			c0.084-50.499,0.083-100.999,0-151.498c-0.005-3.071,0.509-4.382,4.017-4.306c10.994,0.237,21.999,0.183,32.997,0.026
			c3.092-0.044,4.321,0.582,4.312,4.056c-0.114,47.473,0.612,94.946-0.052,142.42c-0.11,7.876-0.729,6.328,6.207,6.404
			c8.967,0.098,17.936,0.023,28.181,0.023c-6.117-5.593-11.346-10.536-16.773-15.251c-2.064-1.793-2.894-3.64-2.888-6.403
			c0.086-42.333,0.09-84.665-0.004-126.998c-0.007-3.123,0.596-4.347,4.05-4.274c10.995,0.228,21.999,0.186,32.997,0.021
			c3.136-0.048,4.383,0.646,4.292,4.089c-0.195,7.322,0.43,14.674,0.06,21.98c-0.236,4.671,1.482,5.544,5.679,5.383
			c8.154-0.312,16.331,0.011,24.495-0.144c3.028-0.058,4.432,0.468,4.383,4.042c-0.208,15.325-0.154,30.656-0.032,45.984
			c0.022,2.814-0.76,3.74-3.636,3.686c-8.83-0.169-17.667,0.04-26.498-0.117c-3.026-0.054-4.592,0.462-4.344,4.015
			c0.313,4.479,0.233,9.002,0.021,13.492c-0.143,3.031,0.856,4.073,3.946,4.011c8.663-0.175,17.335,0.086,25.997-0.133
			c3.412-0.086,4.606,0.785,4.543,4.4c-0.22,12.491,0.103,24.994-0.194,37.482c-0.098,4.093,1.226,5.066,5.011,4.811
			c4.646-0.314,9.334,0.065,13.992-0.129c2.603-0.109,3.445,0.651,3.384,3.328c-0.175,7.662,0.114,15.337-0.144,22.995
			c-0.108,3.223,0.976,3.865,3.947,3.798c8.495-0.192,17-0.183,25.497-0.003c2.872,0.061,3.714-0.823,3.61-3.653
			c-0.201-5.492-0.047-10.997-0.022-16.497c0.007-1.536,0.159-3.28-2.167-2.857c-3.12,0.568-4.914-1.384-6.885-3.187
			c-7.13-6.524-14.242-13.073-21.477-19.48c-1.782-1.578-2.498-3.188-2.489-5.572c0.082-24,0.08-47.999-0.001-71.999
			c-0.008-2.355,0.613-4.02,2.396-5.607c7.715-6.87,15.331-13.853,22.931-20.851c1.437-1.323,2.937-1.941,4.915-1.936
			c18.5,0.053,37,0.081,55.499-0.023c2.785-0.016,3.682,0.771,3.733,3.637c0.283,15.483,0.306,30.961,0.001,46.444
			c-0.055,2.809-0.801,3.663-3.645,3.633c-13.332-0.141-26.667,0.063-39.998-0.146c-3.554-0.055-4.628,1.026-4.394,4.483
			c0.282,4.147,0.343,8.353-0.012,12.488c-0.345,4.021,1.428,4.629,4.913,4.582c12.831-0.173,25.668,0.092,38.497-0.166
			c3.858-0.077,4.686,1.12,4.658,4.779c-0.119,16.136,0.08,32.274,0.163,48.413c-6.45,1.035-12.946,0.394-19.416,0.386
			c-3.12-0.004-4.341,0.624-4.224,4.058c0.276,8.152,0.146,16.319,0.109,24.48c-0.031,6.818,1.749,14.483-0.791,20.215
			c-2.538,5.729-9.638,9.333-14.375,14.221c-4.132,4.263-8.413,7.422-14.74,6.158c-2.823-0.563-3.263,1.03-3.195,3.438
			c0.142,4.993,0.28,10.008-0.04,14.984c-0.227,3.517,1.227,4.06,4.284,4.023c12.157-0.144,24.319-0.195,36.475,0.026
			c3.539,0.064,4.414-0.992,4.385-4.443c-0.166-18.986,0.611-38.009-0.331-56.95c-0.599-12.055,1.468-21.802,12.376-28.289
			C658.369,201.927,658.488,201.548,658.671,201.275z M700.01,347.73c0,16,0.082,32-0.068,47.998c-0.029,3.205,0.354,4.73,4.17,4.59
			c8.488-0.314,17-0.217,25.494-0.033c2.896,0.063,3.646-0.895,3.576-3.668c-0.18-6.996,0.01-13.998-0.084-20.998
			c-0.061-4.584,1.908-6.671,6.611-6.62c11.998,0.129,23.998,0.011,35.998,0.057c5.525,0.021,6.762,1.195,6.854,6.724
			c0.115,6.832,0.152,13.67-0.027,20.498c-0.076,2.895,0.506,4.115,3.779,4.023c8.658-0.24,17.332-0.201,25.995-0.014
			c2.969,0.063,3.564-1.021,3.555-3.742c-0.09-24.999-0.057-49.998-0.041-74.997c0-1.688-0.08-3.13-1.557-4.444
			c-7.092-6.313-14.099-12.724-21.05-19.19c-1.736-1.614-3.605-2.049-5.887-2.044c-27.666,0.053-55.332,0.1-82.998-0.048
			c-3.504-0.019-4.443,0.924-4.402,4.412C700.115,316.064,700.01,331.898,700.01,347.73z M575.01,347.987
			c0,16.147,0.085,32.296-0.075,48.44c-0.031,3.088,0.781,3.885,3.866,3.867c23.305-0.137,46.611-0.1,69.916-0.033
			c2.146,0.006,3.751-0.564,5.335-2.033c6.831-6.338,13.712-12.621,20.71-18.773c1.848-1.627,2.273-3.383,2.264-5.678
			c-0.068-17.313-0.098-34.626,0.027-51.938c0.02-2.625-0.922-4.274-2.793-5.926c-6.611-5.834-13.154-11.75-19.588-17.778
			c-1.713-1.606-3.422-2.278-5.746-2.271c-23.305,0.064-46.611,0.111-69.916-0.041c-3.386-0.021-4.095,1.076-4.067,4.222
			C575.088,316.025,575.01,332.007,575.01,347.987z M436.01,347.695c0,16.16,0.091,32.32-0.077,48.477
			c-0.034,3.264,0.847,4.139,4.117,4.123c27.821-0.131,55.642-0.074,83.463-0.072c1.651,0,3.173,0.051,4.601-1.273
			c7.202-6.68,14.502-13.256,21.805-19.828c1.332-1.199,1.969-2.506,1.924-4.346c-0.109-4.495-0.154-8.999,0.011-13.491
			c0.09-2.463-0.845-3.138-3.18-3.084c-5.661,0.131-11.328,0.003-16.992,0.059c-2.614,0.025-5.157-0.175-6.41-2.85
			c-1.37-2.925,0.779-4.624,2.643-6.319c7.268-6.61,14.59-13.163,21.792-19.846c2.891-2.683,3.123-9.652,0.478-12.105
			c-6.959-6.452-14.04-12.776-20.987-19.242c-1.738-1.617-3.615-2.03-5.891-2.026c-27.654,0.051-55.309,0.097-82.963-0.047
			c-3.482-0.019-4.459,0.886-4.417,4.395C436.118,316.041,436.01,331.869,436.01,347.695z M683.01,112.226
			c0,21.317,0.072,42.636-0.076,63.952c-0.021,3.264,0.846,4.216,4.121,4.121c8.154-0.236,16.326-0.28,24.477,0.014
			c3.693,0.132,4.727-0.811,4.689-4.614c-0.207-20.649-0.104-41.301-0.096-61.952c0.002-7.48,0.947-8.467,8.193-8.487
			c8.326-0.022,16.654-0.007,24.98-0.005c8.721,0.003,9.49,0.751,9.49,9.259c0.004,20.65-0.02,41.302,0.049,61.953
			c0.004,1.374-1.064,3.632,1.801,3.732c2.131,0.074,4.158,0.401,5.068-2.579c1.154-3.778,2.479-7.52,4.271-11.108
			c4.699-9.413,9.473-18.656,19.973-23.012c2.135-0.885,1.938-2.832,1.932-4.69c-0.021-9.826,0.049-19.653-0.035-29.479
			c-0.043-4.967-0.021-8.916-4.639-13.576c-5.514-5.566-11.523-10.84-16.742-16.776c-2.184-2.484-4.715-3.174-7.938-3.137
			c-12.988,0.149-25.98,0.106-38.971,0.041c-5.926-0.029-7.369-1.528-7.424-7.419c-0.057-6.162-0.26-12.338,0.074-18.481
			c0.227-4.162-0.611-5.901-5.322-5.615c-7.633,0.465-15.322,0.332-22.973,0.039c-3.836-0.147-5.049,0.814-5.008,4.869
			C683.129,70.256,683.01,91.242,683.01,112.226z M474.01,101.259c0,17.493,0.006,34.985-0.008,52.479
			c-0.001,2.004-0.006,3.776,1.799,5.364c7.127,6.267,14.106,12.704,21.094,19.128c1.408,1.295,2.813,2.052,4.844,2.036
			c12.161-0.091,24.323-0.102,36.484,0.002c2.498,0.021,3.555-0.563,3.495-3.301c-0.164-7.493-0.176-14.995,0.004-22.487
			c0.07-2.914-0.974-3.683-3.74-3.629c-7.827,0.151-15.659,0.112-23.489,0.032c-5.874-0.061-7.327-1.558-7.355-7.496
			c-0.051-10.328-0.046-20.658-0.001-30.986c0.025-5.796,1.265-7.072,7.034-7.128c7.83-0.074,15.662-0.129,23.489,0.039
			c2.868,0.062,4.195-0.445,4.082-3.758c-0.25-7.321-0.188-14.66-0.022-21.987c0.063-2.802-0.762-3.783-3.648-3.722
			c-7.993,0.17-15.993,0.137-23.988,0.029c-5.32-0.071-6.86-1.638-6.936-6.899c-0.093-6.496-0.211-13.002,0.05-19.488
			c0.149-3.695-0.598-5.297-4.804-5.102c-7.979,0.37-15.993,0.276-23.982,0.028c-3.44-0.107-4.523,0.786-4.485,4.369
			C474.113,66.272,474.01,83.767,474.01,101.259z M572.01,127.877c0,8.66,0.024,17.32-0.018,25.979
			c-0.01,2.041,0.129,3.762,1.902,5.322c7.121,6.269,14.107,12.692,21.083,19.124c1.428,1.316,2.868,1.969,4.87,1.96
			c16.653-0.073,33.308-0.121,49.96,0.029c3.076,0.027,3.506-1.181,3.451-3.798c-0.146-7.158-0.208-14.326,0.021-21.479
			c0.104-3.265-0.889-4.235-4.169-4.185c-11.988,0.185-23.98,0.101-35.971,0.062c-6.597-0.021-7.986-1.394-8.008-7.848
			c-0.035-9.991-0.025-19.984-0.003-29.976c0.015-6.686,1.111-7.788,7.868-7.806c11.991-0.031,23.984-0.156,35.971,0.08
			c3.613,0.071,4.447-1.089,4.318-4.486c-0.26-6.817-0.34-13.667,0.023-20.476c0.213-3.993-1.311-4.6-4.834-4.555
			c-14.486,0.184-28.98,0.284-43.462-0.027c-5.648-0.122-10.041,1.01-14.077,5.372c-4.954,5.353-10.727,9.959-16.258,14.76
			c-1.901,1.649-2.782,3.362-2.731,5.968C572.115,110.555,572.01,119.217,572.01,127.877z M795.943,133.831
			c1.9-0.779,3.254-1.37,4.635-1.894c8.499-3.227,21.595,2.312,23.817,10.202c0.619,2.202,0.922,4.6,0.805,6.878
			c-0.172,3.357,1.285,4.64,4.422,5.336c11.291,2.506,22.572,5.087,33.752,8.04c3.252,0.859,3.928-0.269,4.645-2.895
			c3.346-12.24,5.334-24.73,6.717-37.302c1.594-14.492,1.17-28.968-2.791-43.091c-2.553-9.106-6.674-11.462-15.963-10.08
			c-6.83,1.017-13.234,3.474-19.246,6.69c-13.051,6.985-25.889,14.366-38.901,21.428c-1.957,1.063-1.889,2.46-1.889,4.108
			C795.941,111.902,795.943,122.552,795.943,133.831z M427.01,238.298c0,12.157,0.188,24.32-0.108,36.471
			c-0.096,3.927,1.163,4.729,4.747,4.531c5.479-0.301,10.995-0.244,16.48-0.013c2.981,0.125,4.121-0.578,3.938-3.8
			c-0.292-5.146-0.039-10.321-0.084-15.484c-0.035-3.932,1.781-5.795,5.768-5.769c9.826,0.065,19.652,0.051,29.478,0.011
			c3.962-0.016,5.8,1.873,5.757,5.809c-0.053,4.829,0.204,9.673-0.081,14.485c-0.208,3.51,0.467,5.082,4.492,4.783
			c5.466-0.406,10.991-0.265,16.478-0.038c3.107,0.129,4.265-0.571,4.232-4.013c-0.181-18.984-0.116-37.972-0.045-56.957
			c0.008-2.168-0.552-3.73-2.213-5.2c-5.234-4.634-10.394-9.356-15.431-14.202c-1.504-1.448-3.073-1.688-4.954-1.687
			c-21.484,0.026-42.969,0.094-64.452-0.063c-3.338-0.024-4.123,0.966-4.076,4.164C427.117,213.647,427.01,225.974,427.01,238.298z
			 M584.69,227.241c-4.828,0-9.66-0.115-14.482,0.034c-4.47,0.139-6.353-1.836-6.257-6.283c0.146-6.823-0.084-13.654,0.098-20.475
			c0.071-2.665-0.765-3.408-3.372-3.332c-6.154,0.179-12.322,0.2-18.475-0.008c-2.784-0.094-3.321,0.98-3.24,3.46
			c0.163,4.988,0.677,10.084-0.077,14.962c-1.823,11.794,2.452,20.08,12.06,26.981c5.05,3.629,9.015,7.865,16.013,6.82
			c3.768-0.563,5.057,2.36,5.032,5.859c-0.049,6.825,0.128,13.655-0.079,20.475c-0.088,2.919,0.932,3.628,3.674,3.543
			c5.987-0.186,11.991-0.223,17.975,0.012c3.007,0.117,3.563-1.058,3.483-3.728c-0.174-5.821-0.057-11.652-0.053-17.479
			c0.005-8.442,0.375-8.776,8.669-8.857c2.237-0.022,4.51,0.536,6.542-1.434c5.256-5.093,10.704-9.99,16.14-14.894
			c1.22-1.101,1.716-2.267,1.707-3.896c-0.055-9.655-0.083-19.313,0.015-28.967c0.022-2.178-0.652-2.88-2.838-2.837
			c-6.323,0.124-12.655,0.172-18.976-0.018c-2.676-0.08-3.391,0.79-3.328,3.382c0.166,6.821-0.054,13.652,0.094,20.475
			c0.098,4.514-1.959,6.348-6.342,6.23C594.016,227.144,589.352,227.24,584.69,227.241z M674.68,279.221
			c7.166,0,14.332-0.033,21.498,0.021c2.057,0.015,3.775-0.249,5.412-1.833c4.906-4.748,9.967-9.34,15.07-13.876
			c1.611-1.432,2.422-2.88,2.381-5.121c-0.137-7.497-0.24-15.006,0.035-22.495c0.121-3.313-1.135-3.783-4.006-3.735
			c-9.664,0.159-19.332,0.061-28.998,0.061c-11.336,0-11.336,0-11.082-11.396c0.123-5.555,1.141-6.56,6.924-6.584
			c8-0.035,16.002,0.101,23.998-0.054c4.262-0.081,10.088,1.949,12.352-0.902c2.135-2.688,0.475-8.277,0.779-12.569
			c0.205-2.921-0.904-3.577-3.652-3.554c-14.332,0.125-28.666,0.079-42.998,0.034c-1.914-0.006-3.441,0.333-4.914,1.78
			c-3.322,3.268-6.656,6.6-10.395,9.349c-5.772,4.243-8.064,9.47-7.193,16.647c0.617,5.092,0.322,10.33,0.045,15.481
			c-0.17,3.154,0.853,3.912,3.898,3.851c9.662-0.196,19.332-0.072,28.998-0.072c11.355,0,11.223,0,11.209,11.408
			c-0.006,4.669-1.787,6.708-6.502,6.621c-8.164-0.151-16.334-0.146-24.498,0.001c-4.26,0.076-10.093-1.933-12.342,0.928
			c-2.127,2.704-0.436,8.29-0.746,12.585c-0.221,3.032,1.07,3.538,3.729,3.478C660.678,279.115,667.68,279.221,674.68,279.221z
			 M451.122,127.729c0-15.989-0.079-31.979,0.069-47.967c0.028-3.061-0.795-4.004-3.896-3.929
			c-8.489,0.205-16.99,0.207-25.479-0.002c-3.1-0.076-3.885,0.854-3.875,3.913c0.111,32.312,0.104,64.623,0.007,96.934
			c-0.009,2.841,0.759,3.67,3.606,3.608c8.49-0.183,16.991-0.209,25.479,0.008c3.221,0.083,4.203-0.778,4.167-4.1
			C451.026,160.041,451.122,143.885,451.122,127.729z M472.41,291.676c0.995,0,1.995,0.066,2.984-0.012
			c4.394-0.348,10.402,1.995,12.75-1.003c2.201-2.812,0.506-8.561,0.829-12.995c0.225-3.085-1.196-3.518-3.793-3.439
			c-5.302,0.158-10.615-0.054-15.919,0.079c-4.265,0.105-9.947-1.879-12.418,0.767c-2.655,2.842-0.422,8.525-0.885,12.93
			c-0.35,3.329,1.188,3.854,4.016,3.723C464.111,291.532,468.264,291.675,472.41,291.676z M434.826,44.493
			c-4.48,0-8.966,0.13-13.44-0.033c-5.653-0.206-2.874,3.983-3.296,6.32c-0.442,2.448-0.632,4.795,3.499,4.582
			c7.448-0.385,14.93-0.108,22.397-0.108c7.838,0,7.75,0.006,7.192-7.925c-0.149-2.114-0.763-2.923-2.911-2.869
			C443.789,44.573,439.306,44.494,434.826,44.493z"/>
		<path fill-rule="evenodd" clip-rule="evenodd" fill="#1C4F7F" d="M308.426,200.243c0.886,1.183,1.028,1.54,1.291,1.698
			c10.972,6.621,13.721,16.398,12.579,28.722c-1.026,11.072-0.428,22.317-0.15,33.476c0.1,4.034-0.76,5.316-5.074,5.255
			c-18.829-0.27-37.664-0.004-56.494-0.211c-3.739-0.041-4.845,0.88-4.657,4.652c0.332,6.649-0.156,13.34,0.182,19.989
			c0.211,4.15-0.577,5.936-5.281,5.54c-5.937-0.5-11.947-0.121-19.131-0.121c5.94,5.427,11.059,10.251,16.359,14.869
			c2.042,1.779,2.928,3.614,2.919,6.39c-0.099,31.829-0.127,63.66,0.021,95.488c0.017,3.619-1.105,4.395-4.495,4.33
			c-10.996-0.207-22-0.199-32.996-0.002c-3.24,0.057-4.307-0.783-4.234-4.127c0.168-7.822-0.21-15.656-0.1-23.48
			c0.04-2.832-0.775-3.68-3.629-3.639c-11.164,0.154-22.333,0.15-33.497,0.004c-2.868-0.039-3.676,0.883-3.645,3.689
			c0.087,7.826-0.229,15.658-0.158,23.484c0.025,2.781-0.312,4.148-3.691,4.08c-11.328-0.23-22.665-0.174-33.996-0.025
			c-2.808,0.037-3.627-0.754-3.621-3.596c0.087-40.498,0.122-80.996-0.038-121.493c-0.016-4.169,2.271-3.552,4.744-3.551
			c28.665,0.005,57.331-0.097,85.995,0.109c4.333,0.031,5.515-0.96,5.476-5.416c-0.234-27.163-0.188-54.33-0.034-81.494
			c0.021-3.603-0.667-4.815-4.559-4.727c-12.493,0.285-24.997,0.043-37.495,0.159c-2.506,0.023-4.382-0.624-6.227-2.344
			c-7.19-6.705-14.44-13.35-21.831-19.832c-2.204-1.933-3.052-3.913-3.037-6.846c0.119-22.164-0.011-44.331,0.137-66.495
			c0.025-3.684-0.276-6.27-4.828-5.72c-0.318,0.038-0.68-0.035-0.982-0.154c-5.396-2.125-8.861-0.894-11.853,4.632
			c-3.71,6.853-10.659,10.875-16.884,15.329c-11.144,7.975-21.985,16.223-29.993,27.62c-6.967,9.917-12.527,20.459-14.997,32.418
			c-1.226,5.935-1.187,11.89,0.224,17.841c0.577,2.437,1.541,3.313,4.142,2.602c8.027-2.197,16.085-4.292,24.182-6.215
			c2.614-0.62,2.961-2.165,2.874-4.348c-0.2-4.981,1.882-8.053,6.977-9.379c5.094-1.326,9.53-1.747,12.367,3.777
			c0.537,1.046,1.223,1.933,2.371,2.447c6.299,2.823,10.217,7.917,12.655,14.106c4.134,10.497,8.19,21.035,11.878,31.694
			c2.296,6.639,0.614,10.888-4.594,14.264c-4.354,2.824-10.839,2.305-15.268-1.618c-3.23-2.861-6.175-6.063-9.083-9.261
			c-1.532-1.686-2.388-1.912-4.371-0.249c-6.274,5.262-12.029,5.24-18.556,0.495c-2.951-2.145-10.869-0.876-12.551,2.428
			c-3.908,7.675-9.037,12.254-18.28,9.036c-1.8-0.627-2.098,1.19-2.435,2.427c-1.048,3.839-1.85,7.755-3.076,11.534
			c-1.615,4.979-4.474,8.791-10.075,9.972c-7.473,1.575-13.775-2.563-14.785-10.163c-1.403-10.558-2.849-21.116-3.885-31.712
			c-0.7-7.164-0.54-14.349,4.248-20.484c0.377-0.483,0.493-1.218,0.603-1.857c1.341-7.774,4.233-10.518,11.877-10.842
			c3.331-0.142,5.492,1.91,7.212,4.583c2.007,3.119,7.533,3.939,10.199,1.693c1.305-1.1,0.435-2.101,0.058-3.106
			c-4.206-11.226-2.975-22.189,1.251-33.139c7.618-19.737,20.479-35.283,37.453-47.643c5.52-4.019,11.015-8.074,16.427-12.236
			c2.789-2.146,4.927-4.934,6.912-7.846c1.363-2.001,1.228-3.282-0.771-4.968c-5.837-4.927-6.875-11.545-5.581-18.658
			c0.529-2.905,2.057-5.313,5.269-6.014c2.962-0.646,5.206,0.69,7.036,2.828c3.406,3.979,5.139,8.773,4.744,13.854
			c-0.337,4.338,1.219,6.023,5.229,6.438c2.1,0.218,4.156,0.861,6.588,1.39c0-16.084,0.145-31.74-0.1-47.392
			c-0.063-3.991,1.075-5.003,4.968-4.906c10.826,0.27,21.666,0.21,32.495,0.021c3.143-0.056,3.947,0.95,3.903,3.969
			c-0.113,7.826,0.247,15.659,0.139,23.485c-0.042,3.068,0.943,4.029,3.991,3.971c8.83-0.168,17.667,0.05,26.496-0.117
			c3.01-0.057,4.021,0.797,3.991,3.924c-0.151,15.327-0.164,30.657,0.006,45.983c0.036,3.224-1.078,3.879-4.019,3.823
			c-8.83-0.17-17.667,0.063-26.496-0.129c-3.04-0.065-4.136,0.769-3.965,3.893c0.245,4.486,0.264,9.009-0.003,13.492
			c-0.204,3.426,1.214,4.189,4.333,4.13c8.663-0.165,17.334,0.079,25.996-0.125c3.334-0.079,4.2,1.023,4.154,4.276
			c-0.182,12.826,0.016,25.657-0.144,38.483c-0.037,3.005,0.67,4.114,3.847,3.931c4.817-0.279,9.688-0.385,14.487,0.021
			c4.169,0.354,3.967-1.871,3.962-4.771c-0.059-36.998,0.058-73.997-0.161-110.993c-0.028-4.781,1.045-6.205,5.942-6.007
			c10.316,0.418,20.663,0.266,30.992,0.05c3.486-0.073,4.476,0.939,4.465,4.449c-0.069,21.828,0.216,43.657,0.09,65.484
			c-0.024,4.198,1.16,5.38,5.298,5.24c8.255-0.277,8.26-0.047,8.264-8.075c0.01-20.666,0.158-41.333-0.075-61.995
			c-0.048-4.298,1.234-5.238,5.297-5.125c10.491,0.294,21.001,0.284,31.493,0.002c3.881-0.104,4.65,1.171,4.636,4.803
			c-0.081,21.661,0.193,43.324,0.098,64.985c-0.018,3.964,0.73,5.579,5.12,5.417c8.419-0.311,8.425-0.046,8.43-8.421
			c0.01-20.666,0.113-41.332-0.05-61.996c-0.028-3.623,0.711-4.894,4.606-4.791c10.825,0.286,21.664,0.178,32.495,0.049
			c2.966-0.036,4.361,0.372,4.4,3.967c0.346,32.152,0.374,64.302-0.046,96.453c-0.031,2.372-0.703,4.007-2.489,5.59
			c-7.607,6.741-15.078,13.637-22.621,20.451c-0.852,0.77-1.936,2.063-2.758,1.954c-5.103-0.681-4.472,2.635-4.461,5.8
			c0.049,14.166,0.145,28.334-0.062,42.497c-0.055,3.729,0.667,5.14,4.791,4.999c9.988-0.341,19.998,0.012,29.993-0.184
			c3.104-0.061,3.957,0.856,3.916,3.923c-0.165,12.314-0.443,24.649,0.099,36.942c0.242,5.505-2.579,5.642-7.579,5.196
			c6.165,5.64,11.345,10.484,16.658,15.18c1.762,1.557,2.491,3.188,2.521,5.581c0.405,32.148,0.413,64.295,0.014,96.443
			c-0.038,3.01-0.686,3.973-3.849,3.914c-11.162-0.209-22.333-0.209-33.496-0.002c-3.285,0.059-4.14-0.883-4.12-4.137
			c0.131-21.832-0.066-43.666,0.138-65.495c0.039-4.223-0.723-5.787-5.353-5.54c-8.191,0.438-8.184,0.111-8.213,8.135
			c-0.077,20.826-0.248,41.654-0.199,62.482c0.008,3.256-0.473,4.664-4.224,4.57c-10.826-0.27-21.667-0.264-32.494-0.002
			c-3.702,0.09-4.711-0.824-4.678-4.617c0.19-21.664-0.035-43.332,0.155-64.995c0.036-4.148-0.607-5.838-5.314-5.577
			c-8.222,0.455-8.215,0.114-8.247,8.605c-0.076,20.66-0.292,41.322-0.167,61.982c0.023,3.84-1.069,4.68-4.722,4.598
			c-10.994-0.248-21.998-0.176-32.995-0.029c-2.786,0.037-3.645-0.713-3.638-3.578c0.089-40.498,0.108-80.995-0.026-121.493
			c-0.012-3.539,1.603-3.604,4.216-3.596c19.666,0.06,39.332-0.068,58.996,0.119c3.831,0.036,5-0.88,4.972-4.882
			c-0.188-27.331-0.167-54.664-0.018-81.995c0.02-3.574-0.61-4.954-4.546-4.737C322.78,200.513,316.003,200.243,308.426,200.243z
			 M329.959,295.91c-18.665,0-37.33,0.053-55.994-0.056c-2.864-0.018-4.043,0.47-4.03,3.754c0.13,32.329,0.136,64.66-0.007,96.989
			c-0.015,3.377,1.272,3.725,4.058,3.672c8.163-0.15,16.337-0.24,24.494,0.033c3.613,0.121,4.789-0.682,4.741-4.568
			c-0.229-18.828-0.101-37.661-0.104-56.492c-0.002-14.384-1.422-14.134,14.192-13.996c6.871,0.061,7.665,0.836,7.668,7.885
			c0.012,20.998,0.071,41.996-0.066,62.992c-0.021,3.189,0.718,4.279,4.077,4.176c8.158-0.252,16.335-0.27,24.492,0.004
			c3.614,0.121,4.788-0.684,4.741-4.568c-0.229-18.83-0.101-37.661-0.104-56.493c-0.002-14.383-1.422-14.133,14.192-13.995
			c6.871,0.061,7.664,0.836,7.668,7.885c0.012,20.998,0.071,41.996-0.066,62.992c-0.021,3.189,0.719,4.277,4.078,4.176
			c8.325-0.25,16.669-0.285,24.991,0.01c3.718,0.133,4.266-1.248,4.249-4.543c-0.131-24.495-0.119-48.993-0.006-73.49
			c0.013-2.771-0.844-4.654-2.864-6.436c-6.496-5.728-12.947-11.511-19.25-17.448c-1.98-1.865-3.991-2.543-6.654-2.529
			C366.289,295.953,348.124,295.909,329.959,295.91z M311.58,180.217c15.495,0,31.007-0.436,46.479,0.172
			c8.566,0.337,15.357-1.37,21.078-8.172c3.93-4.672,8.984-8.409,13.622-12.466c1.439-1.259,2.451-2.407,2.444-4.541
			c-0.074-25.325-0.082-50.65,0.003-75.976c0.009-2.646-0.843-3.413-3.423-3.373c-8.495,0.134-17,0.227-25.489-0.036
			c-3.539-0.109-4.423,0.966-4.393,4.434c0.168,19.159,0.081,38.32,0.081,57.48c0,13.229,0,13.229-13.126,13.17
			c-7.538-0.034-8.73-1.196-8.734-8.647c-0.01-20.659-0.084-41.32,0.075-61.979c0.027-3.459-0.838-4.573-4.396-4.457
			c-8.155,0.267-16.331,0.263-24.487,0.002c-3.51-0.112-4.445,0.917-4.414,4.412c0.171,19.159,0.082,38.32,0.082,57.48
			c0,13.248,0,13.248-13.107,13.189c-7.553-0.033-8.75-1.193-8.753-8.628c-0.01-20.66-0.083-41.32,0.074-61.979
			c0.026-3.434-0.788-4.597-4.375-4.478c-8.155,0.271-16.331,0.266-24.486,0.002c-3.523-0.114-4.413,0.938-4.398,4.416
			c0.134,31.989,0.132,63.979,0,95.969c-0.014,3.335,0.964,4.104,4.162,4.078C274.591,180.142,293.085,180.217,311.58,180.217z
			 M131.014,348.06c0,16.164,0.053,32.329-0.053,48.493c-0.018,2.66,0.471,3.805,3.481,3.734c8.661-0.201,17.334-0.238,25.992,0.014
			c3.305,0.096,3.821-1.15,3.742-4.021c-0.184-6.66-0.089-13.33-0.049-19.996c0.035-5.891,1.261-7.209,6.907-7.232
			c11.998-0.048,23.999,0.12,35.994-0.08c4.857-0.081,6.583,2.208,6.572,6.623c-0.018,6.998,0.116,14-0.06,20.994
			c-0.07,2.781,0.684,3.754,3.594,3.693c8.662-0.182,17.334-0.23,25.993,0.018c3.35,0.096,3.74-1.256,3.729-4.084
			c-0.091-24.828-0.062-49.658-0.035-74.488c0.002-1.883-0.187-3.398-1.81-4.832c-6.863-6.065-13.583-12.296-20.299-18.525
			c-1.792-1.662-3.656-2.521-6.217-2.513c-27.829,0.086-55.659,0.115-83.488-0.026c-3.405-0.018-4.087,1.104-4.059,4.237
			C131.09,316.063,131.014,332.062,131.014,348.06z M154.014,101.214c0,17.482,0.003,34.965-0.004,52.447
			c-0.001,1.989-0.07,3.788,1.744,5.385c7.244,6.379,14.347,12.918,21.452,19.452c1.304,1.199,2.639,1.763,4.444,1.753
			c12.154-0.066,24.31-0.123,36.462,0.029c2.94,0.036,3.609-1.015,3.55-3.73c-0.159-7.322-0.16-14.652-0.002-21.975
			c0.06-2.807-0.843-3.771-3.68-3.716c-7.822,0.152-15.65,0.109-23.475,0.03c-5.883-0.06-7.345-1.556-7.374-7.47
			c-0.05-10.322-0.045-20.646-0.002-30.969c0.025-5.955,1.272-7.149,7.473-7.189c7.659-0.05,15.324-0.186,22.974,0.067
			c3.378,0.111,4.198-1.044,4.099-4.226c-0.217-6.986-0.213-13.988-0.002-20.975c0.096-3.192-0.775-4.386-4.139-4.289
			c-7.819,0.223-15.65,0.15-23.474,0.04c-5.32-0.074-6.847-1.636-6.92-6.907c-0.09-6.492-0.298-13.002,0.075-19.474
			c0.248-4.305-1.271-5.273-5.317-5.098c-7.645,0.332-15.321,0.298-22.969,0.011c-3.814-0.144-5.079,0.776-5.02,4.855
			C154.157,66.58,154.014,83.897,154.014,101.214z M227.014,238.326c0,12.496,0.057,24.992-0.048,37.488
			c-0.021,2.466,0.442,3.562,3.237,3.467c6.158-0.209,12.331-0.191,18.49-0.005c2.647,0.08,3.422-0.731,3.35-3.36
			c-0.179-6.493-0.086-12.995-0.05-19.493c0.035-6.313,0.899-7.161,7.333-7.167c18.161-0.018,36.323-0.064,54.483,0.051
			c3.002,0.02,4.411-0.395,4.301-3.955c-0.28-8.988-0.148-17.992-0.053-26.988c0.023-2.156-0.507-3.739-2.18-5.219
			c-5.238-4.632-10.398-9.359-15.438-14.207c-1.5-1.442-3.058-1.712-4.947-1.71c-21.494,0.029-42.988,0.096-64.48-0.063
			c-3.351-0.024-4.117,0.985-4.071,4.173C227.12,213.665,227.014,225.996,227.014,238.326z M338.014,237.693
			c0,12.645,0.075,25.29-0.059,37.934c-0.029,2.751,0.656,3.674,3.549,3.654c18.799-0.126,37.601-0.132,56.4,0.003
			c3.048,0.022,3.556-1.167,3.463-3.793c-0.168-4.819-0.243-9.659,0.021-14.47c0.173-3.152-0.919-3.91-3.937-3.845
			c-8.98,0.193-17.967,0.081-26.952,0.065c-6.754-0.012-7.505-0.747-7.512-7.437c-0.015-16.139-0.078-32.278,0.06-48.415
			c0.026-3.08-0.531-4.421-4.003-4.229c-5.64,0.312-11.317,0.269-16.962,0.012c-3.228-0.146-4.207,0.769-4.151,4.085
			C338.137,213.4,338.014,225.548,338.014,237.693z M130.87,86.438c-0.041-4.011-0.569-6.634-2.554-9.505
			C127.782,80.471,128.398,83.039,130.87,86.438z"/>
		<path fill-rule="evenodd" clip-rule="evenodd" fill="#1A4E7E" d="M834.991,367.726c-0.002-15.821,0.057-31.644-0.061-47.464
			c-0.02-2.558,0.695-4.313,2.611-6.012c7.475-6.629,14.854-13.366,22.166-20.173c1.832-1.705,3.699-2.458,6.223-2.448
			c20.318,0.084,40.637,0.135,60.953-0.035c3.604-0.03,4.379,1.146,4.365,4.533c-0.119,31.785-0.1,63.571-0.023,95.357
			c0.006,2.695-0.637,4.635-2.742,6.477c-7.391,6.473-14.625,13.123-21.85,19.781c-1.789,1.648-3.564,2.574-6.15,2.561
			c-20.484-0.113-40.971-0.139-61.453,0.014c-3.277,0.023-4.148-0.873-4.113-4.129C835.083,400.035,834.993,383.879,834.991,367.726
			z M871.019,400.221c8.998,0,18-0.129,26.994,0.07c3.098,0.07,5.357-0.912,7.549-2.971c6.434-6.043,12.924-12.035,19.574-17.84
			c1.783-1.557,2.016-3.195,2.006-5.248c-0.041-10.165-0.186-20.335,0.07-30.493c0.092-3.679-1.219-4.368-4.564-4.32
			c-12.662,0.182-25.33,0.073-37.994,0.073c-12.609,0-12.609,0-12.529-12.667c0.041-6.773,1.025-7.771,7.879-7.779
			c14.332-0.018,28.664-0.097,42.994,0.064c3.23,0.037,4.393-0.794,4.199-4.153c-0.285-4.982-0.277-10.005-0.002-14.989
			c0.184-3.341-0.98-4.158-4.199-4.134c-18.662,0.142-37.328,0.085-55.992,0.047c-2.08-0.005-3.727,0.409-5.363,1.944
			c-6.684,6.265-13.523,12.362-20.361,18.459c-1.594,1.421-2.348,2.92-2.322,5.152c0.123,10.497,0.164,20.998-0.014,31.494
			c-0.051,2.98,1.027,3.545,3.73,3.519c12.83-0.125,25.662-0.056,38.494-0.056c12.949,0,12.949,0,12.811,12.91
			c-0.07,6.692-1.152,7.79-7.891,7.8c-14.498,0.018-28.998,0.074-43.494-0.055c-2.795-0.025-3.76,0.727-3.643,3.598
			c0.215,5.322,0.205,10.668,0.002,15.992c-0.105,2.785,0.691,3.699,3.57,3.646C852.019,400.111,861.519,400.221,871.019,400.221z"
			/>
		<path fill-rule="evenodd" clip-rule="evenodd" fill="#1C4F7F" d="M15.986,355.962c-0.001-19.996,0.09-39.993-0.085-59.987
			c-0.031-3.568,1.04-4.451,4.474-4.384c10.827,0.21,21.664,0.223,32.49-0.005c3.585-0.076,4.402,1.105,4.394,4.52
			c-0.058,21.824,0.227,43.65,0.092,65.475c-0.026,4.276,1.302,5.259,5.354,5.18c12.826-0.249,25.661,0.013,38.489-0.164
			c3.255-0.045,4.189,0.854,4.249,4.164c0.275,15.314,0.239,30.621-0.018,45.936c-0.048,2.83-0.835,3.617-3.655,3.607
			c-27.328-0.1-54.655-0.111-81.982,0.014c-3.083,0.014-3.896-0.775-3.874-3.869C16.058,396.287,15.987,376.123,15.986,355.962z
			 M20.014,348.03c0,16.158,0.049,32.317-0.05,48.476c-0.016,2.602,0.354,3.797,3.428,3.781c24.821-0.127,49.643-0.105,74.464-0.02
			c2.583,0.01,3.463-0.672,3.403-3.336c-0.167-7.326-0.232-14.664,0.021-21.986c0.117-3.391-1.091-4.146-4.252-4.102
			c-11.825,0.165-23.654,0.084-35.482,0.059c-7.159-0.015-8.419-1.284-8.423-8.447c-0.013-20.657-0.107-41.314,0.089-61.97
			c0.036-3.777-0.981-4.799-4.707-4.666c-8.152,0.291-16.328,0.262-24.483,0.009c-3.396-0.104-4.103,1.073-4.074,4.226
			C20.092,316.044,20.014,332.037,20.014,348.03z"/>
		<path fill-rule="evenodd" clip-rule="evenodd" fill="#FEFEFE" d="M700.01,347.73c0-15.832,0.105-31.666-0.082-47.497
			c-0.041-3.488,0.898-4.431,4.402-4.412c27.666,0.147,55.332,0.101,82.998,0.048c2.281-0.005,4.15,0.43,5.887,2.044
			c6.951,6.467,13.958,12.878,21.05,19.19c1.477,1.314,1.557,2.756,1.557,4.444c-0.016,24.999-0.049,49.998,0.041,74.997
			c0.01,2.721-0.586,3.805-3.555,3.742c-8.663-0.188-17.337-0.227-25.995,0.014c-3.273,0.092-3.855-1.129-3.779-4.023
			c0.18-6.828,0.143-13.666,0.027-20.498c-0.092-5.528-1.328-6.702-6.854-6.724c-12-0.046-24,0.072-35.998-0.057
			c-4.703-0.051-6.672,2.036-6.611,6.62c0.094,7-0.096,14.002,0.084,20.998c0.07,2.773-0.68,3.73-3.576,3.668
			c-8.494-0.184-17.006-0.281-25.494,0.033c-3.816,0.141-4.199-1.385-4.17-4.59C700.092,379.73,700.01,363.73,700.01,347.73z
			 M757.789,352.11c6.166,0,12.332-0.014,18.5,0.005c4.076,0.012,6.232-1.987,6.283-6.063c0.061-4.999,0.063-10-0.008-14.999
			c-0.049-3.528-1.789-5.748-5.463-5.766c-12.832-0.06-25.666-0.05-38.498,0.015c-3.617,0.019-5.498,1.967-5.482,5.66
			c0.02,4.833,0.053,9.667-0.018,14.499c-0.064,4.584,2.113,6.72,6.686,6.667C745.789,352.06,751.789,352.111,757.789,352.11z"/>
		<path fill-rule="evenodd" clip-rule="evenodd" fill="#FEFEFE" d="M575.01,347.987c0-15.98,0.078-31.962-0.067-47.942
			c-0.028-3.146,0.681-4.243,4.067-4.222c23.304,0.152,46.61,0.105,69.916,0.041c2.324-0.007,4.033,0.665,5.746,2.271
			c6.434,6.028,12.977,11.944,19.588,17.778c1.871,1.651,2.813,3.301,2.793,5.926c-0.125,17.312-0.096,34.625-0.027,51.938
			c0.01,2.295-0.416,4.051-2.264,5.678c-6.998,6.152-13.879,12.436-20.71,18.773c-1.584,1.469-3.189,2.039-5.335,2.033
			c-23.305-0.066-46.611-0.104-69.916,0.033c-3.085,0.018-3.897-0.779-3.866-3.867C575.096,380.283,575.01,364.135,575.01,347.987z
			 M643.841,348.236c0-5.485-0.089-10.972,0.028-16.454c0.094-4.331-1.776-6.544-6.178-6.533c-7.812,0.019-15.624,0.02-23.435,0
			c-4.396-0.012-6.221,2.161-6.175,6.52c0.114,10.802,0.08,21.606,0.017,32.409c-0.026,4.563,2.118,6.746,6.647,6.733
			c7.479-0.021,14.958-0.019,22.438-0.001c4.512,0.011,6.724-2.163,6.673-6.719C643.797,358.873,643.842,353.555,643.841,348.236z"
			/>
		<path fill-rule="evenodd" clip-rule="evenodd" fill="#FEFEFE" d="M436.01,347.695c0-15.826,0.107-31.654-0.083-47.478
			c-0.042-3.509,0.935-4.413,4.417-4.395c27.654,0.144,55.309,0.098,82.963,0.047c2.275-0.004,4.153,0.409,5.891,2.026
			c6.948,6.466,14.028,12.79,20.987,19.242c2.645,2.453,2.414,9.423-0.478,12.105c-7.202,6.683-14.523,13.235-21.792,19.846
			c-1.863,1.695-4.012,3.395-2.643,6.319c1.253,2.675,3.795,2.875,6.41,2.85c5.664-0.056,11.331,0.072,16.992-0.059
			c2.335-0.054,3.271,0.621,3.18,3.084c-0.165,4.492-0.12,8.996-0.011,13.491c0.045,1.84-0.592,3.146-1.924,4.346
			c-7.302,6.572-14.603,13.148-21.805,19.828c-1.428,1.324-2.95,1.273-4.601,1.273c-27.821-0.002-55.642-0.059-83.463,0.072
			c-3.271,0.016-4.151-0.859-4.117-4.123C436.102,380.016,436.01,363.855,436.01,347.695z M494.077,319.014
			c-6.152,0-12.306,0.102-18.455-0.033c-4.717-0.104-6.628,2.153-6.526,6.689c0.1,4.486,0.083,8.979,0.005,13.466
			c-0.079,4.547,2.057,6.779,6.606,6.774c12.137-0.014,24.274-0.006,36.411-0.005c4.254,0,6.469-2.066,6.471-6.378
			c0.002-4.821,0.027-9.643-0.005-14.464c-0.03-4.314-2.118-6.254-6.552-6.102C506.053,319.167,500.063,319.013,494.077,319.014z
			 M493.65,383.238c6.332,0,12.663-0.002,18.995,0c3.886,0,5.866-2.002,5.919-5.824c0.068-4.83,0.003-9.663,0.024-14.495
			c0.02-4.615-2.358-6.568-6.858-6.545c-11.997,0.062-23.993,0.055-35.99,0.006c-4.617-0.02-6.671,2.251-6.627,6.753
			c0.045,4.665,0.099,9.332-0.016,13.996c-0.105,4.25,1.984,6.107,6.059,6.107C481.321,383.236,487.485,383.236,493.65,383.238z"/>
		<path fill-rule="evenodd" clip-rule="evenodd" fill="#FEFEFE" d="M683.01,112.226c0-20.983,0.119-41.97-0.104-62.951
			c-0.041-4.055,1.172-5.017,5.008-4.869c7.65,0.293,15.34,0.426,22.973-0.039c4.711-0.286,5.549,1.453,5.322,5.615
			c-0.334,6.144-0.131,12.319-0.074,18.481c0.055,5.891,1.498,7.39,7.424,7.419c12.99,0.065,25.982,0.108,38.971-0.041
			c3.223-0.037,5.754,0.652,7.938,3.137c5.219,5.937,11.229,11.21,16.742,16.776c4.617,4.66,4.596,8.609,4.639,13.576
			c0.084,9.825,0.014,19.652,0.035,29.479c0.006,1.858,0.203,3.806-1.932,4.69c-10.5,4.355-15.273,13.599-19.973,23.012
			c-1.793,3.589-3.117,7.33-4.271,11.108c-0.91,2.98-2.938,2.653-5.068,2.579c-2.865-0.101-1.797-2.358-1.801-3.732
			c-0.068-20.651-0.045-41.303-0.049-61.953c0-8.508-0.77-9.256-9.49-9.259c-8.326-0.002-16.654-0.018-24.98,0.005
			c-7.246,0.021-8.191,1.007-8.193,8.487c-0.008,20.651-0.111,41.303,0.096,61.952c0.037,3.804-0.996,4.746-4.689,4.614
			c-8.15-0.294-16.322-0.25-24.477-0.014c-3.275,0.095-4.143-0.857-4.121-4.121C683.082,154.861,683.01,133.543,683.01,112.226z"/>
		<path fill-rule="evenodd" clip-rule="evenodd" fill="#FEFEFE" d="M474.01,101.259c0-17.492,0.103-34.986-0.086-52.477
			c-0.039-3.583,1.045-4.477,4.485-4.369c7.989,0.248,16.003,0.342,23.982-0.028c4.206-0.195,4.953,1.406,4.804,5.102
			c-0.261,6.486-0.143,12.992-0.05,19.488c0.075,5.262,1.616,6.828,6.936,6.899c7.995,0.107,15.995,0.141,23.988-0.029
			c2.887-0.062,3.712,0.92,3.648,3.722c-0.166,7.327-0.228,14.666,0.022,21.987c0.113,3.313-1.214,3.819-4.082,3.758
			c-7.827-0.168-15.659-0.113-23.489-0.039c-5.769,0.056-7.009,1.332-7.034,7.128c-0.045,10.328-0.049,20.658,0.001,30.986
			c0.029,5.938,1.482,7.436,7.355,7.496c7.83,0.08,15.662,0.119,23.489-0.032c2.767-0.054,3.811,0.715,3.74,3.629
			c-0.18,7.492-0.168,14.994-0.004,22.487c0.06,2.737-0.997,3.321-3.495,3.301c-12.161-0.104-24.323-0.093-36.484-0.002
			c-2.03,0.016-3.436-0.741-4.844-2.036c-6.988-6.424-13.967-12.861-21.094-19.128c-1.806-1.588-1.801-3.36-1.799-5.364
			C474.016,136.244,474.01,118.752,474.01,101.259z"/>
		<path fill-rule="evenodd" clip-rule="evenodd" fill="#FEFEFE" d="M572.01,127.877c0-8.66,0.105-17.322-0.064-25.979
			c-0.051-2.605,0.831-4.318,2.731-5.968c5.531-4.801,11.304-9.407,16.258-14.76c4.036-4.362,8.429-5.494,14.077-5.372
			c14.482,0.312,28.977,0.211,43.462,0.027c3.523-0.045,5.047,0.562,4.834,4.555c-0.363,6.809-0.283,13.658-0.023,20.476
			c0.129,3.397-0.705,4.558-4.318,4.486c-11.986-0.236-23.98-0.111-35.971-0.08c-6.757,0.018-7.853,1.12-7.868,7.806
			c-0.022,9.991-0.031,19.984,0.003,29.976c0.022,6.454,1.411,7.826,8.008,7.848c11.991,0.039,23.983,0.123,35.971-0.062
			c3.28-0.051,4.272,0.92,4.169,4.185c-0.229,7.153-0.168,14.321-0.021,21.479c0.055,2.617-0.375,3.825-3.451,3.798
			c-16.652-0.15-33.307-0.103-49.96-0.029c-2.002,0.009-3.442-0.644-4.87-1.96c-6.976-6.432-13.961-12.855-21.083-19.124
			c-1.773-1.561-1.912-3.281-1.902-5.322C572.034,145.197,572.01,136.537,572.01,127.877z"/>
		<path fill-rule="evenodd" clip-rule="evenodd" fill="#FEFEFE" d="M795.943,133.831c0-11.279-0.002-21.929,0.002-32.578
			c0-1.648-0.068-3.046,1.889-4.108c13.013-7.062,25.851-14.442,38.901-21.428c6.012-3.217,12.416-5.674,19.246-6.69
			c9.289-1.382,13.41,0.974,15.963,10.08c3.961,14.123,4.385,28.599,2.791,43.091c-1.383,12.571-3.371,25.062-6.717,37.302
			c-0.717,2.626-1.393,3.754-4.645,2.895c-11.18-2.953-22.461-5.534-33.752-8.04c-3.137-0.696-4.594-1.979-4.422-5.336
			c0.117-2.278-0.186-4.676-0.805-6.878c-2.223-7.891-15.318-13.429-23.817-10.202C799.197,132.461,797.844,133.052,795.943,133.831
			z"/>
		<path fill-rule="evenodd" clip-rule="evenodd" fill="#FEFEFE" d="M427.01,238.298c0-12.324,0.107-24.65-0.073-36.972
			c-0.047-3.198,0.738-4.188,4.076-4.164c21.483,0.157,42.968,0.09,64.452,0.063c1.881-0.002,3.449,0.238,4.954,1.687
			c5.037,4.846,10.197,9.568,15.431,14.202c1.661,1.47,2.221,3.032,2.213,5.2c-0.071,18.985-0.135,37.973,0.045,56.957
			c0.033,3.441-1.125,4.142-4.232,4.013c-5.487-0.227-11.012-0.368-16.478,0.038c-4.025,0.299-4.7-1.273-4.492-4.783
			c0.285-4.813,0.027-9.656,0.081-14.485c0.043-3.936-1.795-5.824-5.757-5.809c-9.826,0.04-19.652,0.055-29.478-0.011
			c-3.987-0.026-5.803,1.837-5.768,5.769c0.046,5.163-0.207,10.338,0.084,15.484c0.183,3.222-0.957,3.925-3.938,3.8
			c-5.486-0.231-11.001-0.288-16.48,0.013c-3.584,0.197-4.843-0.604-4.747-4.531C427.198,262.618,427.01,250.455,427.01,238.298z
			 M472.363,242.233c4.995,0,9.99-0.019,14.985,0.007c3.634,0.019,5.645-1.59,5.628-5.378c-0.017-3.996-0.033-7.993,0.001-11.988
			c0.034-4.023-2.056-5.656-5.926-5.636c-9.823,0.053-19.647,0.044-29.471,0.006c-3.704-0.015-5.578,1.706-5.579,5.428
			c-0.001,3.996,0.035,7.993-0.021,11.988c-0.057,4.045,2.009,5.67,5.897,5.602C462.705,242.177,467.534,242.241,472.363,242.233z"
			/>
		<path fill-rule="evenodd" clip-rule="evenodd" fill="#FEFEFE" d="M584.69,227.241c4.661-0.001,9.325-0.098,13.983,0.027
			c4.383,0.117,6.44-1.717,6.342-6.23c-0.148-6.822,0.072-13.653-0.094-20.475c-0.063-2.592,0.651-3.462,3.328-3.382
			c6.32,0.189,12.652,0.142,18.976,0.018c2.186-0.043,2.86,0.659,2.838,2.837c-0.098,9.654-0.07,19.312-0.015,28.967
			c0.009,1.63-0.487,2.796-1.707,3.896c-5.437,4.903-10.884,9.801-16.14,14.894c-2.032,1.97-4.305,1.411-6.542,1.434
			c-8.294,0.081-8.664,0.415-8.669,8.857c-0.003,5.826-0.121,11.657,0.053,17.479c0.08,2.67-0.476,3.845-3.483,3.728
			c-5.984-0.234-11.988-0.197-17.975-0.012c-2.742,0.085-3.762-0.624-3.674-3.543c0.207-6.819,0.03-13.649,0.079-20.475
			c0.025-3.499-1.265-6.422-5.032-5.859c-6.999,1.045-10.963-3.191-16.013-6.82c-9.608-6.901-13.883-15.188-12.06-26.981
			c0.754-4.878,0.24-9.974,0.077-14.962c-0.081-2.479,0.456-3.554,3.24-3.46c6.153,0.208,12.321,0.187,18.475,0.008
			c2.607-0.076,3.443,0.667,3.372,3.332c-0.182,6.82,0.048,13.651-0.098,20.475c-0.096,4.447,1.787,6.422,6.257,6.283
			C575.031,227.126,579.862,227.241,584.69,227.241z"/>
		<path fill-rule="evenodd" clip-rule="evenodd" fill="#FEFEFE" d="M674.68,279.221c-7,0-14.002-0.105-20.998,0.054
			c-2.658,0.061-3.949-0.445-3.729-3.478c0.311-4.295-1.381-9.881,0.746-12.585c2.249-2.86,8.082-0.852,12.342-0.928
			c8.164-0.146,16.334-0.152,24.498-0.001c4.715,0.087,6.496-1.952,6.502-6.621c0.014-11.408,0.146-11.408-11.209-11.408
			c-9.666,0-19.336-0.124-28.998,0.072c-3.046,0.062-4.068-0.696-3.898-3.851c0.277-5.151,0.572-10.39-0.045-15.481
			c-0.871-7.178,1.421-12.404,7.193-16.647c3.738-2.749,7.072-6.081,10.395-9.349c1.473-1.447,3-1.786,4.914-1.78
			c14.332,0.045,28.666,0.091,42.998-0.034c2.748-0.023,3.857,0.633,3.652,3.554c-0.305,4.292,1.355,9.881-0.779,12.569
			c-2.264,2.852-8.09,0.821-12.352,0.902c-7.996,0.154-15.998,0.019-23.998,0.054c-5.783,0.024-6.801,1.029-6.924,6.584
			c-0.254,11.396-0.254,11.396,11.082,11.396c9.666,0,19.334,0.099,28.998-0.061c2.871-0.048,4.127,0.422,4.006,3.735
			c-0.275,7.489-0.172,14.998-0.035,22.495c0.041,2.241-0.77,3.689-2.381,5.121c-5.104,4.536-10.164,9.128-15.07,13.876
			c-1.637,1.584-3.355,1.848-5.412,1.833C689.012,279.188,681.846,279.221,674.68,279.221z"/>
		<path fill-rule="evenodd" clip-rule="evenodd" fill="#FEFEFE" d="M451.122,127.729c0,16.156-0.096,32.313,0.079,48.466
			c0.036,3.321-0.946,4.183-4.167,4.1c-8.489-0.217-16.989-0.19-25.479-0.008c-2.848,0.062-3.615-0.768-3.606-3.608
			c0.098-32.311,0.104-64.622-0.007-96.934c-0.01-3.059,0.775-3.989,3.875-3.913c8.489,0.209,16.99,0.207,25.479,0.002
			c3.101-0.075,3.924,0.868,3.896,3.929C451.043,95.75,451.122,111.739,451.122,127.729z"/>
		<path display="none" fill-rule="evenodd" clip-rule="evenodd" fill="#FEFEFE" d="M658.671,201.275
			c-0.183,0.272-0.302,0.651-0.556,0.803c-10.908,6.487-12.975,16.234-12.376,28.289c0.942,18.941,0.165,37.964,0.331,56.95
			c0.029,3.451-0.846,4.508-4.385,4.443c-12.155-0.222-24.317-0.17-36.475-0.026c-3.057,0.036-4.51-0.507-4.284-4.023
			c0.32-4.977,0.182-9.991,0.04-14.984c-0.068-2.408,0.372-4.002,3.195-3.438c6.327,1.264,10.608-1.896,14.74-6.158
			c4.737-4.888,11.837-8.492,14.375-14.221c2.54-5.731,0.76-13.396,0.791-20.215c0.038-8.161,0.167-16.328-0.109-24.48
			c-0.117-3.434,1.104-4.062,4.224-4.058c6.469,0.008,12.965,0.649,19.416-0.386C657.956,200.271,658.313,200.773,658.671,201.275z"
			/>
		<path display="none" fill-rule="evenodd" clip-rule="evenodd" fill="#FEFEFE" d="M472.41,291.676
			c-4.146-0.001-8.299-0.144-12.437,0.049c-2.827,0.132-4.366-0.394-4.016-3.723c0.463-4.404-1.77-10.088,0.885-12.93
			c2.471-2.646,8.154-0.661,12.418-0.767c5.304-0.133,10.617,0.079,15.919-0.079c2.598-0.078,4.018,0.354,3.793,3.439
			c-0.323,4.435,1.372,10.184-0.829,12.995c-2.348,2.998-8.356,0.655-12.75,1.003C474.405,291.742,473.405,291.676,472.41,291.676z"
			/>
		<path fill-rule="evenodd" clip-rule="evenodd" fill="#FEFEFE" d="M434.826,44.493c4.48,0.001,8.963,0.08,13.441-0.033
			c2.148-0.054,2.762,0.755,2.911,2.869c0.558,7.931,0.646,7.925-7.192,7.925c-7.467,0-14.95-0.276-22.397,0.108
			c-4.13,0.213-3.94-2.134-3.499-4.582c0.422-2.337-2.357-6.526,3.296-6.32C425.86,44.623,430.345,44.493,434.826,44.493z"/>
		<path fill-rule="evenodd" clip-rule="evenodd" fill="#FEFEFE" d="M329.959,295.91c18.165-0.001,36.33,0.043,54.494-0.048
			c2.664-0.014,4.674,0.664,6.654,2.529c6.303,5.938,12.753,11.721,19.25,17.448c2.02,1.781,2.877,3.665,2.864,6.436
			c-0.112,24.497-0.125,48.995,0.006,73.49c0.018,3.295-0.53,4.676-4.249,4.543c-8.322-0.295-16.667-0.26-24.991-0.01
			c-3.358,0.102-4.098-0.986-4.078-4.176c0.137-20.996,0.079-41.994,0.066-62.992c-0.004-7.049-0.797-7.824-7.668-7.885
			c-15.614-0.138-14.195-0.388-14.192,13.995c0.003,18.832-0.125,37.663,0.104,56.493c0.047,3.885-1.127,4.689-4.741,4.568
			c-8.157-0.273-16.334-0.256-24.492-0.004c-3.359,0.104-4.098-0.986-4.077-4.176c0.137-20.996,0.079-41.994,0.066-62.992
			c-0.004-7.049-0.797-7.824-7.668-7.885c-15.614-0.138-14.194-0.388-14.192,13.996c0.003,18.831-0.125,37.664,0.104,56.492
			c0.047,3.887-1.128,4.689-4.741,4.568c-8.157-0.273-16.331-0.184-24.494-0.033c-2.785,0.053-4.072-0.295-4.058-3.672
			c0.144-32.329,0.138-64.66,0.007-96.989c-0.013-3.284,1.166-3.771,4.03-3.754C292.63,295.963,311.295,295.91,329.959,295.91z"/>
		<path fill-rule="evenodd" clip-rule="evenodd" fill="#FEFEFE" d="M311.58,180.217c-18.494,0-36.989-0.075-55.482,0.072
			c-3.198,0.025-4.176-0.743-4.162-4.078c0.131-31.989,0.134-63.979,0-95.969c-0.015-3.479,0.875-4.53,4.398-4.416
			c8.155,0.264,16.332,0.27,24.486-0.002c3.587-0.119,4.402,1.044,4.375,4.478c-0.156,20.659-0.084,41.319-0.074,61.979
			c0.003,7.435,1.2,8.595,8.753,8.628c13.107,0.059,13.107,0.059,13.107-13.189c0-19.16,0.089-38.321-0.082-57.48
			c-0.031-3.495,0.903-4.524,4.414-4.412c8.156,0.261,16.332,0.265,24.487-0.002c3.558-0.116,4.422,0.998,4.396,4.457
			c-0.159,20.659-0.085,41.32-0.075,61.979c0.004,7.451,1.197,8.613,8.734,8.647c13.126,0.06,13.126,0.06,13.126-13.17
			c0-19.16,0.087-38.321-0.081-57.48c-0.03-3.468,0.854-4.543,4.393-4.434c8.489,0.263,16.994,0.17,25.489,0.036
			c2.581-0.04,3.433,0.728,3.423,3.373c-0.085,25.325-0.077,50.65-0.003,75.976c0.006,2.134-1.005,3.282-2.444,4.541
			c-4.638,4.057-9.692,7.794-13.622,12.466c-5.721,6.802-12.512,8.509-21.078,8.172C342.587,179.781,327.075,180.217,311.58,180.217
			z"/>
		<path fill-rule="evenodd" clip-rule="evenodd" fill="#FEFEFE" d="M131.014,348.06c0-15.998,0.076-31.996-0.065-47.992
			c-0.028-3.133,0.654-4.255,4.059-4.237c27.829,0.142,55.659,0.112,83.488,0.026c2.562-0.008,4.425,0.851,6.217,2.513
			c6.717,6.229,13.436,12.46,20.299,18.525c1.623,1.434,1.812,2.949,1.81,4.832c-0.027,24.83-0.056,49.66,0.035,74.488
			c0.011,2.828-0.38,4.18-3.729,4.084c-8.659-0.248-17.331-0.199-25.993-0.018c-2.91,0.061-3.664-0.912-3.594-3.693
			c0.176-6.994,0.042-13.996,0.06-20.994c0.011-4.415-1.715-6.704-6.572-6.623c-11.995,0.2-23.996,0.032-35.994,0.08
			c-5.646,0.023-6.872,1.342-6.907,7.232c-0.041,6.666-0.135,13.336,0.049,19.996c0.079,2.871-0.437,4.117-3.742,4.021
			c-8.658-0.252-17.332-0.215-25.992-0.014c-3.01,0.07-3.499-1.074-3.481-3.734C131.067,380.389,131.014,364.224,131.014,348.06z
			 M189.296,325.254c-6.333,0-12.667,0.004-19-0.001c-4.021-0.003-6.256,1.752-6.193,6.017c0.071,4.832,0.028,9.666,0.015,14.499
			c-0.011,4.015,1.828,6.317,5.977,6.327c12.5,0.03,24.999,0.027,37.499,0.002c3.842-0.007,5.893-2.032,5.961-5.853
			c0.087-4.831,0.003-9.665,0.046-14.498c0.041-4.619-2.238-6.621-6.807-6.526C200.964,325.342,195.129,325.25,189.296,325.254z"/>
		<path fill-rule="evenodd" clip-rule="evenodd" fill="#FEFEFE" d="M154.014,101.214c0-17.316,0.143-34.634-0.105-51.946
			c-0.059-4.079,1.206-4.999,5.02-4.855c7.648,0.287,15.325,0.321,22.969-0.011c4.046-0.176,5.565,0.793,5.317,5.098
			c-0.374,6.472-0.166,12.981-0.075,19.474c0.073,5.271,1.6,6.833,6.92,6.907c7.824,0.11,15.655,0.183,23.474-0.04
			c3.364-0.097,4.235,1.097,4.139,4.289c-0.21,6.986-0.215,13.988,0.002,20.975c0.099,3.182-0.721,4.337-4.099,4.226
			c-7.65-0.253-15.315-0.117-22.974-0.067c-6.201,0.04-7.448,1.234-7.473,7.189c-0.043,10.323-0.048,20.646,0.002,30.969
			c0.029,5.914,1.491,7.41,7.374,7.47c7.824,0.079,15.652,0.122,23.475-0.03c2.837-0.055,3.74,0.909,3.68,3.716
			c-0.158,7.322-0.157,14.652,0.002,21.975c0.059,2.716-0.61,3.767-3.55,3.73c-12.152-0.152-24.308-0.096-36.462-0.029
			c-1.806,0.01-3.141-0.554-4.444-1.753c-7.105-6.534-14.208-13.073-21.452-19.452c-1.813-1.597-1.745-3.396-1.744-5.385
			C154.017,136.179,154.014,118.696,154.014,101.214z"/>
		<path fill-rule="evenodd" clip-rule="evenodd" fill="#FEFEFE" d="M227.014,238.326c0-12.33,0.105-24.661-0.073-36.988
			c-0.046-3.188,0.721-4.197,4.071-4.173c21.492,0.158,42.986,0.092,64.48,0.063c1.889-0.002,3.447,0.268,4.947,1.71
			c5.04,4.848,10.2,9.575,15.438,14.207c1.673,1.479,2.203,3.063,2.18,5.219c-0.095,8.996-0.227,18,0.053,26.988
			c0.11,3.561-1.298,3.975-4.301,3.955c-18.161-0.115-36.322-0.068-54.483-0.051c-6.434,0.006-7.298,0.854-7.333,7.167
			c-0.036,6.498-0.128,13,0.05,19.493c0.072,2.629-0.703,3.44-3.35,3.36c-6.159-0.187-12.333-0.204-18.49,0.005
			c-2.795,0.095-3.258-1.001-3.237-3.467C227.071,263.318,227.014,250.822,227.014,238.326z M272.142,237.228
			c5.161,0,10.323,0.007,15.484-0.003c3.413-0.007,5.32-1.626,5.339-5.143c0.022-4.162,0.01-8.324-0.004-12.487
			c-0.012-3.438-1.712-5.304-5.189-5.314c-10.156-0.031-20.313-0.016-30.47-0.022c-3.47-0.002-5.254,1.73-5.287,5.193
			c-0.037,3.829,0.095,7.663-0.055,11.487c-0.174,4.413,1.691,6.478,6.197,6.336C262.814,237.127,267.48,237.241,272.142,237.228z"
			/>
		<path fill-rule="evenodd" clip-rule="evenodd" fill="#FEFEFE" d="M338.014,237.693c0-12.146,0.123-24.293-0.081-36.435
			c-0.056-3.316,0.923-4.231,4.151-4.085c5.645,0.257,11.323,0.3,16.962-0.012c3.472-0.192,4.029,1.148,4.003,4.229
			c-0.137,16.137-0.074,32.276-0.06,48.415c0.006,6.689,0.757,7.425,7.512,7.437c8.984,0.016,17.971,0.128,26.952-0.065
			c3.018-0.065,4.11,0.692,3.937,3.845c-0.265,4.811-0.19,9.65-0.021,14.47c0.092,2.626-0.416,3.815-3.463,3.793
			c-18.799-0.135-37.601-0.129-56.4-0.003c-2.893,0.02-3.579-0.903-3.549-3.654C338.089,262.983,338.014,250.338,338.014,237.693z"
			/>
		<path fill-rule="evenodd" clip-rule="evenodd" fill="#FEFEFE" d="M130.87,86.438c-2.472-3.398-3.088-5.967-2.554-9.505
			C130.301,79.804,130.83,82.427,130.87,86.438z"/>
		<path fill-rule="evenodd" clip-rule="evenodd" fill="#FEFEFE" d="M871.019,400.221c-9.5,0-19-0.109-28.496,0.064
			c-2.879,0.053-3.676-0.861-3.57-3.646c0.203-5.324,0.213-10.67-0.002-15.992c-0.117-2.871,0.848-3.623,3.643-3.598
			c14.496,0.129,28.996,0.072,43.494,0.055c6.738-0.01,7.82-1.107,7.891-7.8c0.139-12.91,0.139-12.91-12.811-12.91
			c-12.832,0-25.664-0.069-38.494,0.056c-2.703,0.026-3.781-0.538-3.73-3.519c0.178-10.496,0.137-20.997,0.014-31.494
			c-0.025-2.232,0.729-3.731,2.322-5.152c6.838-6.097,13.678-12.194,20.361-18.459c1.637-1.535,3.283-1.949,5.363-1.944
			c18.664,0.038,37.33,0.095,55.992-0.047c3.219-0.024,4.383,0.793,4.199,4.134c-0.275,4.984-0.283,10.007,0.002,14.989
			c0.193,3.359-0.969,4.19-4.199,4.153c-14.33-0.161-28.662-0.082-42.994-0.064c-6.854,0.009-7.838,1.006-7.879,7.779
			c-0.08,12.667-0.08,12.667,12.529,12.667c12.664,0,25.332,0.108,37.994-0.073c3.346-0.048,4.656,0.642,4.564,4.32
			c-0.256,10.158-0.111,20.328-0.07,30.493c0.01,2.053-0.223,3.691-2.006,5.248c-6.65,5.805-13.141,11.797-19.574,17.84
			c-2.191,2.059-4.451,3.041-7.549,2.971C889.019,400.092,880.017,400.221,871.019,400.221z"/>
		<path fill-rule="evenodd" clip-rule="evenodd" fill="#FEFEFE" d="M20.014,348.03c0-15.993,0.078-31.986-0.067-47.977
			c-0.029-3.152,0.678-4.33,4.074-4.226c8.155,0.253,16.331,0.282,24.483-0.009c3.726-0.133,4.743,0.889,4.707,4.666
			c-0.196,20.655-0.102,41.313-0.089,61.97c0.004,7.163,1.264,8.433,8.423,8.447c11.828,0.025,23.657,0.106,35.482-0.059
			c3.162-0.044,4.37,0.711,4.252,4.102c-0.253,7.322-0.188,14.66-0.021,21.986c0.06,2.664-0.82,3.346-3.403,3.336
			c-24.821-0.086-49.643-0.107-74.464,0.02c-3.075,0.016-3.444-1.18-3.428-3.781C20.063,380.348,20.014,364.188,20.014,348.03z"/>
		<path fill-rule="evenodd" clip-rule="evenodd" fill="#1C4F7F" d="M757.789,352.111c-6,0-12-0.052-18,0.018
			c-4.572,0.053-6.75-2.083-6.686-6.667c0.07-4.832,0.037-9.666,0.018-14.499c-0.016-3.693,1.865-5.642,5.482-5.66
			c12.832-0.064,25.666-0.074,38.498-0.015c3.674,0.018,5.414,2.237,5.463,5.766c0.07,4.999,0.068,10,0.008,14.999
			c-0.051,4.075-2.207,6.074-6.283,6.063C770.121,352.097,763.955,352.11,757.789,352.111z M757.992,345.278
			c-5.648,0-11.299-0.062-16.945,0.048c-1.236,0.023-3.465-0.923-3.398,1.448c0.053,1.891,2.037,1.242,3.236,1.247
			c11.299,0.044,22.598,0.045,33.895-0.002c1.18-0.005,3.064,0.647,3.154-1.341c0.102-2.218-1.904-1.337-2.994-1.355
			C769.291,345.227,763.643,345.278,757.992,345.278z"/>
		<path fill-rule="evenodd" clip-rule="evenodd" fill="#1C4F7F" d="M643.842,348.236c0,5.318-0.045,10.637,0.014,15.955
			c0.051,4.556-2.161,6.729-6.673,6.719c-7.479-0.018-14.958-0.02-22.438,0.001c-4.529,0.013-6.673-2.171-6.647-6.733
			c0.063-10.803,0.097-21.607-0.017-32.409c-0.046-4.358,1.779-6.531,6.175-6.52c7.812,0.02,15.624,0.019,23.435,0
			c4.402-0.011,6.272,2.202,6.178,6.533C643.752,337.265,643.841,342.751,643.842,348.236z M626.036,345.606
			c0-0.109-0.001-0.219-0.001-0.328c-3.316,0-6.642,0.149-9.946-0.047c-2.715-0.162-3.882,0.589-3.749,3.541
			c0.217,4.799,0.209,9.621,0.002,14.421c-0.127,2.965,1.112,3.668,3.801,3.587c5.136-0.155,10.28-0.045,15.42-0.045
			c7.896,0,7.997-0.002,7.856-7.811c-0.08-4.438,1.936-10.342-0.906-12.88C636.126,343.913,630.325,345.606,626.036,345.606z"/>
		<path fill-rule="evenodd" clip-rule="evenodd" fill="#1C4F7F" d="M494.077,319.014c5.985-0.001,11.976,0.153,17.954-0.052
			c4.435-0.152,6.522,1.787,6.552,6.102c0.033,4.821,0.007,9.643,0.005,14.464c-0.002,4.312-2.217,6.378-6.471,6.378
			c-12.137-0.001-24.274-0.009-36.411,0.005c-4.549,0.005-6.685-2.228-6.606-6.774c0.078-4.487,0.095-8.979-0.005-13.466
			c-0.102-4.536,1.81-6.793,6.526-6.689C481.771,319.115,487.925,319.014,494.077,319.014z M493.494,339.145
			c-5.813,0-11.625-0.021-17.438,0.022c-0.875,0.007-2.221-0.335-2.225,1.17c-0.004,1.437,1.286,1.29,2.212,1.293
			c11.792,0.03,23.583,0.037,35.374,0.012c1.062-0.003,2.659,0.286,2.442-1.518c-0.156-1.293-1.517-0.965-2.43-0.97
			C505.451,339.124,499.472,339.139,493.494,339.145z"/>
		<path fill-rule="evenodd" clip-rule="evenodd" fill="#1A4E7E" d="M493.65,383.236c-6.165,0-12.33,0-18.495,0
			c-4.074,0-6.164-1.857-6.059-6.107c0.115-4.664,0.062-9.331,0.016-13.996c-0.044-4.502,2.01-6.772,6.627-6.753
			c11.997,0.049,23.993,0.056,35.99-0.006c4.5-0.023,6.877,1.93,6.858,6.545c-0.021,4.832,0.044,9.665-0.024,14.495
			c-0.054,3.822-2.034,5.824-5.919,5.824C506.313,383.236,499.982,383.238,493.65,383.236z M493.795,379.219
			c5.817,0,11.634,0.035,17.45-0.033c0.987-0.012,2.599,0.662,2.718-1.154c0.113-1.734-1.361-1.553-2.495-1.555
			c-11.8-0.012-23.6-0.012-35.4-0.006c-1.159,0.002-2.627-0.1-2.496,1.578c0.139,1.762,1.76,1.131,2.772,1.141
			C482.161,379.252,487.978,379.221,493.795,379.219z"/>
		<path fill-rule="evenodd" clip-rule="evenodd" fill="#1A4E7E" d="M472.363,242.237c-4.829,0.004-9.658-0.061-14.485,0.024
			c-3.889,0.068-5.954-1.557-5.897-5.602c0.057-3.995,0.021-7.992,0.021-11.988c0.001-3.722,1.875-5.442,5.579-5.428
			c9.823,0.038,19.647,0.047,29.471-0.006c3.87-0.021,5.959,1.612,5.926,5.636c-0.034,3.995-0.018,7.992-0.001,11.988
			c0.017,3.788-1.994,5.396-5.628,5.378C482.353,242.215,477.358,242.233,472.363,242.237z"/>
		<path fill-rule="evenodd" clip-rule="evenodd" fill="#1C4F7F" d="M189.296,325.252c5.833-0.002,11.668,0.09,17.499-0.031
			c4.569-0.095,6.848,1.907,6.807,6.526c-0.043,4.833,0.041,9.667-0.046,14.498c-0.069,3.82-2.12,5.846-5.961,5.853
			c-12.5,0.025-24.999,0.028-37.499-0.002c-4.149-0.01-5.988-2.313-5.977-6.327c0.013-4.833,0.057-9.667-0.015-14.499
			c-0.063-4.265,2.172-6.02,6.193-6.017C176.63,325.258,182.963,325.254,189.296,325.252z M188.491,348.044
			c5.981,0,11.962,0.014,17.944-0.012c1.103-0.005,2.554,0.28,2.54-1.504c-0.011-1.483-1.283-1.23-2.195-1.231
			c-11.962-0.022-23.925-0.021-35.888-0.004c-0.929,0.002-2.225-0.262-2.311,1.157c-0.104,1.736,1.319,1.587,2.464,1.589
			C176.86,348.053,182.676,348.046,188.491,348.044z"/>
		<path fill-rule="evenodd" clip-rule="evenodd" fill="#1A4E7E" d="M272.142,237.234c-4.662,0.007-9.328-0.107-13.985,0.04
			c-4.506,0.142-6.371-1.923-6.197-6.336c0.15-3.824,0.019-7.658,0.055-11.487c0.033-3.463,1.817-5.195,5.287-5.193
			c10.157,0.007,20.313-0.009,30.47,0.022c3.477,0.011,5.178,1.877,5.189,5.314c0.014,4.163,0.027,8.325,0.004,12.487
			c-0.019,3.517-1.926,5.136-5.339,5.143C282.465,237.234,277.303,237.228,272.142,237.234z"/>
		<path display="none" fill-rule="evenodd" clip-rule="evenodd" fill="#FEFEFE" d="M757.992,345.278
			c5.65,0,11.299-0.052,16.947,0.045c1.09,0.019,3.096-0.862,2.994,1.355c-0.09,1.988-1.975,1.336-3.154,1.341
			c-11.297,0.047-22.596,0.046-33.895,0.002c-1.199-0.005-3.184,0.644-3.236-1.247c-0.066-2.371,2.162-1.425,3.398-1.448
			C746.693,345.217,752.344,345.278,757.992,345.278z"/>
		<path display="none" fill-rule="evenodd" clip-rule="evenodd" fill="#FEFEFE" d="M626.036,345.606
			c4.29,0,10.091-1.693,12.477,0.438c2.842,2.538,0.826,8.441,0.906,12.88c0.141,7.809,0.04,7.811-7.856,7.811
			c-5.14,0-10.284-0.11-15.42,0.045c-2.689,0.081-3.929-0.622-3.801-3.587c0.207-4.8,0.215-9.622-0.002-14.421
			c-0.134-2.952,1.034-3.703,3.749-3.541c3.305,0.196,6.63,0.047,9.946,0.047C626.035,345.388,626.035,345.497,626.036,345.606z"/>
		<path display="none" fill-rule="evenodd" clip-rule="evenodd" fill="#FEFEFE" d="M493.494,339.142
			c5.979-0.003,11.958-0.018,17.936,0.013c0.913,0.005,2.274-0.323,2.43,0.97c0.217,1.804-1.38,1.515-2.442,1.518
			c-11.792,0.025-23.583,0.019-35.374-0.012c-0.927-0.003-2.217,0.144-2.212-1.293c0.004-1.505,1.349-1.163,2.225-1.17
			C481.868,339.123,487.681,339.145,493.494,339.142z"/>
		<path display="none" fill-rule="evenodd" clip-rule="evenodd" fill="#FEFEFE" d="M493.795,379.219
			c-5.817,0.002-11.634,0.033-17.451-0.029c-1.013-0.01-2.634,0.621-2.772-1.141c-0.131-1.678,1.337-1.576,2.496-1.578
			c11.8-0.006,23.6-0.006,35.4,0.006c1.133,0.002,2.608-0.18,2.495,1.555c-0.119,1.816-1.731,1.143-2.718,1.154
			C505.429,379.254,499.612,379.219,493.795,379.219z"/>
		<path display="none" fill-rule="evenodd" clip-rule="evenodd" fill="#FEFEFE" d="M188.491,348.045
			c-5.815,0.001-11.631,0.008-17.446-0.006c-1.146-0.002-2.569,0.147-2.464-1.589c0.085-1.419,1.381-1.155,2.311-1.157
			c11.963-0.018,23.926-0.019,35.888,0.004c0.913,0.001,2.184-0.252,2.195,1.231c0.014,1.784-1.438,1.499-2.54,1.504
			C200.454,348.058,194.472,348.044,188.491,348.045z"/>
	</g>
</g>
</svg>
