<?xml version="1.0" encoding="utf-8"?>
<!-- Generator: Adobe Illustrator 16.0.0, SVG Export Plug-In . SVG Version: 6.00 Build 0)  -->
<!DOCTYPE svg PUBLIC "-//W3C//DTD SVG 1.1//EN" "http://www.w3.org/Graphics/SVG/1.1/DTD/svg11.dtd">
<svg version="1.1" id="Layer_1" xmlns="http://www.w3.org/2000/svg" xmlns:xlink="http://www.w3.org/1999/xlink" x="0px" y="0px"
	 width="532px" height="312px" viewBox="0 0 532 312" enable-background="new 0 0 532 312" xml:space="preserve">
<g>
	<path display="none" fill-rule="evenodd" clip-rule="evenodd" fill="#FEFEFE" d="M259.382,17c77.823,0,155.646,0.023,233.471-0.083
		c3.232-0.004,4.199,0.39,4.194,3.995c-0.136,89.655-0.127,179.31-0.024,268.965c0.004,3.232-0.39,4.195-3.993,4.193
		c-155.647-0.122-311.294-0.117-466.941-0.024c-3.232,0.002-4.2-0.388-4.194-3.992c0.135-89.655,0.146-179.311-0.024-268.965
		c-0.008-4.055,1.368-4.152,4.541-4.149C104.068,17.017,181.725,17,259.382,17z M250.981,70.006l-0.021-0.021
		c-0.417-0.507-0.744-1.32-1.265-1.474c-7.774-2.286-13.905-7.607-20.85-11.397c-15.807-8.627-32.301-15.488-49.337-21.167
		c-16.835-5.613-34.054-9.584-51.552-12.524c-11.418-1.918-22.889-3.509-34.404-4.277c-10.449-0.696-20.984-0.009-31.476-0.222
		c-3.77-0.076-5.562,0.773-5.157,4.949c0.353,3.63-0.114,7.335,0.127,10.985c0.223,3.393-1.203,4.265-4.369,4.195
		c-7.827-0.174-15.668,0.171-23.486-0.147c-4.22-0.173-5.286,1.24-5.28,5.349c0.114,76.802,0.112,153.604,0.003,230.406
		c-0.006,4.04,0.949,5.459,5.226,5.402c17.49-0.232,34.984-0.097,52.477-0.097c48.647,0,97.294,0.004,145.941-0.012
		c2.676-0.001,4.478,0.207,6.345,3.15c2.846,4.485,7.425,7.772,13.305,7.837c7.829,0.086,15.685,0.391,23.479-0.14
		c3.692-0.252,7.493-0.793,10.317-4.819c3.034-4.322,7.444-7.196,13.872-6.22c6.188,0.939,12.631,0.203,18.962,0.203
		c58.143,0,116.286-0.057,174.429,0.107c4.692,0.013,6.034-1.359,5.766-5.888c-0.365-6.143-0.091-12.323-0.091-18.487
		c0-70.305-0.04-140.609,0.092-210.914c0.009-4.48-1.014-6.168-5.76-5.895c-7.141,0.41-14.332-0.126-21.481,0.192
		c-4.395,0.196-6.515-0.842-5.924-5.699c0.398-3.283-0.135-6.671,0.132-9.982c0.29-3.614-1.222-4.485-4.607-4.465
		c-18.58,0.106-37.099,0.058-55.604,2.863c-19.677,2.983-38.99,7.13-58.087,12.688c-12.487,3.634-24.65,8.386-36.498,13.334
		c-8.802,3.676-17.702,8.57-25.731,14.278c-4.292,3.05-9.326,4.703-13.494,7.885l-0.021,0.021c-1.414,0.025-2.444,0.629-2.979,1.979
		l-0.021,0.021c-3.326,4.194-6.653,4.194-9.979,0l-0.021-0.021C253.425,70.635,252.396,70.031,250.981,70.006z"/>
	<path fill-rule="evenodd" clip-rule="evenodd" fill="#DBE3ED" d="M263.98,71.984c0.534-1.35,1.564-1.953,2.979-1.979
		c0.05,0.115,0.078,0.248,0.155,0.338c0.049,0.058,0.172,0.051,0.261,0.073c-0.132-0.144-0.264-0.288-0.396-0.432
		c4.168-3.182,9.202-4.834,13.494-7.885c8.029-5.708,16.93-10.602,25.731-14.278c11.848-4.949,24.011-9.7,36.498-13.334
		c19.097-5.558,38.41-9.705,58.087-12.688c18.506-2.805,37.024-2.756,55.604-2.863c3.386-0.02,4.897,0.852,4.607,4.465
		c-0.267,3.311,0.267,6.699-0.132,9.982c-0.591,4.857,1.529,5.896,5.924,5.699c7.149-0.318,14.341,0.218,21.481-0.192
		c4.746-0.273,5.769,1.415,5.76,5.895c-0.132,70.304-0.092,140.609-0.092,210.914c0,6.164-0.274,12.345,0.091,18.487
		c0.269,4.528-1.073,5.9-5.766,5.888c-58.143-0.164-116.286-0.107-174.429-0.107c-6.331,0-12.773,0.736-18.962-0.203
		c-6.428-0.977-10.838,1.897-13.872,6.22c-2.824,4.026-6.625,4.567-10.317,4.819c-7.794,0.53-15.649,0.226-23.479,0.14
		c-5.88-0.064-10.459-3.352-13.305-7.837c-1.867-2.943-3.669-3.151-6.345-3.15c-48.647,0.016-97.294,0.012-145.941,0.012
		c-17.493,0-34.987-0.136-52.477,0.097c-4.277,0.057-5.232-1.362-5.226-5.402c0.108-76.802,0.11-153.604-0.003-230.406
		c-0.006-4.109,1.06-5.522,5.28-5.349c7.817,0.318,15.659-0.026,23.486,0.147c3.166,0.07,4.592-0.802,4.369-4.195
		c-0.241-3.65,0.226-7.354-0.127-10.985c-0.405-4.175,1.387-5.025,5.157-4.949c10.492,0.213,21.027-0.475,31.476,0.222
		c11.515,0.768,22.985,2.358,34.404,4.277c17.498,2.94,34.717,6.911,51.552,12.524c17.036,5.679,33.53,12.54,49.337,21.167
		c6.945,3.79,13.076,9.111,20.85,11.397c0.521,0.153,0.848,0.967,1.265,1.474c-0.113,0.055-0.243,0.091-0.331,0.172
		c-0.055,0.051-0.045,0.17-0.065,0.259c0.139-0.137,0.277-0.273,0.416-0.41c1.415,0.025,2.444,0.629,2.979,1.979
		c-0.113,0.055-0.243,0.091-0.331,0.172c-0.055,0.051-0.045,0.17-0.065,0.259c0.139-0.137,0.277-0.273,0.416-0.41
		c3.326,4.194,6.653,4.194,9.979-0.001c0.049,0.115,0.078,0.248,0.155,0.338c0.049,0.057,0.171,0.051,0.261,0.073
		C264.244,72.272,264.112,72.128,263.98,71.984z M275.978,83.979c-0.049-0.115-0.077-0.248-0.155-0.338
		c-0.049-0.057-0.171-0.05-0.261-0.072c0.132,0.144,0.264,0.288,0.396,0.431c-7.771,2.966-8.131,9.194-8.1,16.372
		c0.215,50.815,0.107,101.631,0.141,152.446c0.001,1.756-0.482,3.597,0.455,5.4c0.526-0.099,1.071-0.063,1.456-0.293
		c13.037-7.821,27.162-13.208,41.442-18.132c23.677-8.162,47.988-13.619,72.834-16.961c17.891-2.405,35.789-4.441,53.833-4.75
		c4.02-0.069,5.01-1.258,5.003-5.129c-0.11-58.646-0.111-117.293,0.001-175.939c0.007-3.879-0.962-5.346-5.013-5.077
		c-15.346,1.021-30.611,2.433-45.829,4.901c-29.372,4.762-57.346,13.717-84.037,26.693c-4.682,2.276-9.167,5.257-13.545,8.153
		c-3.107,2.054-6.632,5.235-10.951,5.968C279.954,78.279,279.657,83.216,275.978,83.979z M249.969,258.776c0-2.568,0-4.387,0-6.204
		c0-51.994,0.004-103.987-0.009-155.981c-0.001-3.198,0.16-6.183-2.273-9.131c-1.452-1.76-2.976-0.332-4.172-1.586
		c-2.639-2.767-5.243-5.872-8.506-7.669c-4.822-2.655-9.156-6.003-13.924-8.712c-20.037-11.386-41.358-19.563-63.493-25.719
		c-25.134-6.991-50.82-10.409-76.825-11.844c-4.542-0.251-5.908,1.069-5.88,5.751c0.204,33.995,0.109,67.992,0.109,101.987
		c0,24.497,0.008,48.994-0.012,73.491c-0.002,2.589-0.297,4.837,3.646,4.887c18.558,0.23,36.952,2.369,55.342,4.805
		c22.704,3.008,44.909,8.036,66.702,14.948C217.456,243.123,233.711,249.76,249.969,258.776z M134.76,264.969
		c-2.31,1.479-3.984,0.971-5.555,0.973c-26.659,0.038-53.32-0.114-79.977,0.152c-5.073,0.05-6.365-1.26-6.351-6.345
		c0.181-67.149,0.125-134.298,0.094-201.447c0-1.752,0.494-3.594-0.733-5.846c-0.105,1.512-0.231,2.476-0.231,3.44
		c-0.009,68.815,0.036,137.63-0.109,206.445c-0.009,4.485,2.012,4.678,5.423,4.671c38.49-0.069,76.979-0.037,115.469-0.073
		c1.348-0.001,2.833,0.53,4.938-1.136c-3.821,0-6.814,0.287-9.736-0.048c-16.078-1.844-32.128-3.922-48.207-5.756
		c-13.136-1.499-26.32-2.59-39.435-4.245c-4.191-0.529-8.574-0.8-12.472-2.95c-3.121-1.72-4.294-7.042-1.519-8.146
		c3.116-1.24,5.997-3.217,9.824-2.772c11.331,1.314,22.72,2.113,34.06,3.354c9.03,0.988,18.015,2.304,27.081,3.097
		c13.65,1.194,27.243,3.05,40.858,4.638c7.381,0.859,14.759,1.752,22.14,2.619c7.528,0.884,15.058,1.753,22.587,2.629
		c-3.591-2.325-7.364-3.88-11.221-5.18c-22.004-7.42-44.457-12.782-67.448-16.361c-23.642-3.682-47.372-5.243-71.216-5.583
		c-4.728-0.067-6.153-1.163-6.138-6.045c0.173-55.652,0.11-111.304,0.11-166.956c0-1.648,0-3.295,0-4.943
		c-0.352,0.013-0.703,0.026-1.055,0.039c0,58.91,0,117.819,0,177.611c-1.423-2.543-0.917-4.379-0.917-6.121
		c-0.033-55.652-0.078-111.304,0.072-166.956c0.012-4.336-1.746-4.908-5.314-4.807c-3.372,0.094-5.903-0.244-5.891,4.735
		c0.16,67.482,0.146,134.963,0.014,202.446c-0.008,4.149,1.416,4.956,5.177,4.938c26.492-0.135,52.985-0.071,79.478-0.071
		C130.351,264.969,132.142,264.969,134.76,264.969z M351.178,266.682c1.502,0.154,2.142,0.277,2.782,0.277
		c39.16,0.01,78.321-0.07,117.481,0.114c4.661,0.021,4.533-2.302,4.531-5.555c-0.039-68.156-0.024-136.313-0.072-204.47
		c-0.001-1.251,0.728-2.744-0.957-4.153c0,2.144,0,3.949,0,5.755c0,67.157-0.037,134.314,0.085,201.471
		c0.008,4.374-0.857,6.011-5.69,5.966c-26.994-0.248-53.991-0.111-80.987-0.141c-1.453-0.002-2.987,0.424-5.298-0.979
		c2.679,0,4.446,0,6.214,0c26.329,0,52.66-0.118,78.987,0.11c4.674,0.04,5.797-1.344,5.786-5.873
		c-0.146-58.325-0.097-116.649-0.097-174.976c0-8.999,0.023-17.998-0.026-26.996c-0.008-1.4,0.525-3.047-1.207-3.995
		c-4.511-2.466-9.763,0.427-9.763,5.412c-0.004,55.325,0.003,110.651-0.027,165.976c-0.001,1.777,0.473,3.634-1.042,6.551
		c0-60.145,0-119.08,0-178.015c-0.312,0-0.622-0.001-0.934-0.001c0,1.801,0,3.602,0,5.402c0,54.992,0,109.985,0,164.977
		c0,1.333-0.095,2.674,0.014,3.998c0.217,2.637-1.001,3.464-3.533,3.463c-17.253-0.004-34.425,1.229-51.61,2.821
		c-14.027,1.299-27.852,3.639-41.645,6.208c-12.364,2.303-24.588,5.388-36.571,9.247c-7.341,2.365-14.817,4.459-22.184,8.114
		c3.693,1.503,6.644-0.17,9.663-0.462c13.161-1.271,26.317-2.61,39.458-4.084c16.742-1.879,33.472-3.88,50.199-5.893
		c10.164-1.223,20.3-2.705,30.477-3.806c6.089-0.658,12.232-1.065,18.353-1.078c3.684-0.007,7.955,0.932,9.188,4.813
		c1.68,5.291-3.37,5.931-6.692,7.455c-0.874,0.401-1.911,0.513-2.888,0.617c-12.817,1.369-25.65,2.603-38.455,4.088
		C393.894,261.461,373.088,264.039,351.178,266.682z"/>
	<path display="none" fill-rule="evenodd" clip-rule="evenodd" fill="#FEFEFE" d="M249.969,258.776
		c-16.257-9.017-32.513-15.653-49.295-20.978c-21.793-6.912-43.998-11.94-66.702-14.948c-18.391-2.436-36.784-4.574-55.342-4.805
		c-3.944-0.05-3.648-2.298-3.646-4.887c0.021-24.497,0.012-48.994,0.012-73.491c0-33.996,0.094-67.992-0.109-101.987
		c-0.028-4.682,1.338-6.002,5.88-5.751c26.005,1.436,51.691,4.853,76.825,11.844c22.135,6.156,43.456,14.333,63.493,25.719
		c4.768,2.709,9.102,6.057,13.924,8.712c3.263,1.797,5.867,4.902,8.506,7.669c1.196,1.254,2.72-0.174,4.172,1.586
		c2.434,2.949,2.272,5.934,2.273,9.131c0.013,51.994,0.009,103.987,0.009,155.981C249.969,254.39,249.969,256.208,249.969,258.776z"
		/>
	<path display="none" fill-rule="evenodd" clip-rule="evenodd" fill="#FEFEFE" d="M275.978,83.979
		c3.68-0.762,3.977-5.699,7.67-6.325c4.319-0.732,7.844-3.914,10.951-5.968c4.378-2.896,8.863-5.877,13.545-8.153
		c26.691-12.976,54.665-21.931,84.037-26.693c15.218-2.468,30.483-3.879,45.829-4.901c4.051-0.27,5.02,1.197,5.013,5.077
		c-0.112,58.646-0.111,117.292-0.001,175.939c0.007,3.871-0.983,5.06-5.003,5.129c-18.044,0.309-35.942,2.345-53.833,4.75
		c-24.846,3.342-49.157,8.799-72.834,16.961c-14.28,4.924-28.405,10.311-41.442,18.132c-0.385,0.23-0.93,0.194-1.456,0.293
		c-0.938-1.804-0.454-3.645-0.455-5.4c-0.033-50.815,0.074-101.631-0.141-152.446c-0.031-7.178,0.329-13.406,8.1-16.372
		L275.978,83.979z"/>
	<path display="none" fill-rule="evenodd" clip-rule="evenodd" fill="#FEFEFE" d="M134.76,264.969c-2.618,0-4.41,0-6.201,0
		c-26.493,0-52.986-0.063-79.478,0.071c-3.761,0.019-5.185-0.788-5.177-4.938c0.131-67.482,0.146-134.964-0.014-202.446
		c-0.012-4.979,2.519-4.641,5.891-4.735c3.568-0.101,5.326,0.471,5.314,4.807c-0.15,55.651-0.105,111.303-0.072,166.956
		c0.001,1.742-0.506,3.578,0.917,6.121c0-59.792,0-118.702,0-177.611c0.352-0.013,0.704-0.026,1.055-0.039c0,1.647,0,3.295,0,4.943
		c0,55.651,0.063,111.303-0.11,166.956c-0.015,4.882,1.41,5.978,6.138,6.045c23.844,0.34,47.574,1.901,71.216,5.583
		c22.992,3.579,45.444,8.941,67.448,16.361c3.857,1.3,7.63,2.854,11.221,5.18c-7.53-0.876-15.059-1.745-22.587-2.629
		c-7.381-0.867-14.759-1.76-22.14-2.619c-13.615-1.588-27.208-3.443-40.858-4.638c-9.066-0.793-18.051-2.108-27.081-3.097
		c-11.34-1.24-22.729-2.039-34.06-3.354c-3.828-0.444-6.708,1.532-9.824,2.772c-2.775,1.104-1.602,6.426,1.519,8.146
		c3.898,2.15,8.281,2.421,12.472,2.95c13.115,1.655,26.299,2.746,39.435,4.245c16.079,1.834,32.129,3.912,48.207,5.756
		c2.922,0.335,5.915,0.048,9.736,0.048c-2.105,1.666-3.59,1.135-4.938,1.136c-38.49,0.036-76.979,0.004-115.469,0.073
		c-3.411,0.007-5.432-0.186-5.423-4.671c0.145-68.815,0.1-137.63,0.109-206.445c0-0.964,0.126-1.928,0.231-3.44
		c1.228,2.251,0.733,4.093,0.733,5.846c0.031,67.149,0.087,134.297-0.094,201.447c-0.014,5.085,1.278,6.395,6.351,6.345
		c26.657-0.267,53.318-0.114,79.977-0.152C130.776,265.939,132.45,266.448,134.76,264.969z"/>
	<path display="none" fill-rule="evenodd" clip-rule="evenodd" fill="#FEFEFE" d="M351.178,266.682
		c21.91-2.643,42.716-5.221,63.54-7.638c12.805-1.485,25.638-2.719,38.455-4.088c0.977-0.104,2.014-0.216,2.888-0.617
		c3.322-1.524,8.372-2.164,6.692-7.455c-1.233-3.881-5.505-4.819-9.188-4.813c-6.12,0.013-12.264,0.42-18.353,1.078
		c-10.177,1.101-20.313,2.583-30.477,3.806c-16.728,2.013-33.457,4.014-50.199,5.893c-13.141,1.474-26.297,2.813-39.458,4.084
		c-3.02,0.292-5.97,1.965-9.663,0.462c7.366-3.655,14.843-5.749,22.184-8.114c11.983-3.859,24.207-6.944,36.571-9.247
		c13.793-2.569,27.617-4.909,41.645-6.208c17.186-1.593,34.357-2.825,51.61-2.821c2.532,0.001,3.75-0.826,3.533-3.463
		c-0.108-1.324-0.014-2.665-0.014-3.998c0-54.992,0-109.985,0-164.977c0-1.8,0-3.601,0-5.402c0.312,0,0.622,0.001,0.934,0.001
		c0,58.935,0,117.87,0,178.015c1.515-2.917,1.041-4.773,1.042-6.551c0.03-55.325,0.023-110.651,0.027-165.976
		c0-4.985,5.252-7.878,9.763-5.412c1.732,0.947,1.199,2.595,1.207,3.995c0.05,8.998,0.026,17.997,0.026,26.996
		c0,58.326-0.05,116.65,0.097,174.976c0.011,4.529-1.112,5.913-5.786,5.873c-26.327-0.229-52.658-0.11-78.987-0.11
		c-1.768,0-3.535,0-6.214,0c2.311,1.402,3.845,0.977,5.298,0.979c26.996,0.029,53.993-0.107,80.987,0.141
		c4.833,0.045,5.698-1.592,5.69-5.966c-0.122-67.157-0.085-134.314-0.085-201.471c0-1.806,0-3.612,0-5.755
		c1.685,1.409,0.956,2.902,0.957,4.153c0.048,68.156,0.033,136.313,0.072,204.47c0.002,3.253,0.13,5.576-4.531,5.555
		c-39.16-0.185-78.321-0.104-117.481-0.114C353.319,266.959,352.68,266.836,351.178,266.682z"/>
	<path display="none" fill-rule="evenodd" clip-rule="evenodd" fill="#FEFEFE" d="M250.981,70.006
		c-0.139,0.137-0.277,0.273-0.416,0.41c0.02-0.089,0.01-0.208,0.065-0.259c0.088-0.081,0.218-0.117,0.331-0.172
		C250.96,69.985,250.981,70.006,250.981,70.006z"/>
	<path display="none" fill-rule="evenodd" clip-rule="evenodd" fill="#FEFEFE" d="M266.979,69.984
		c0.132,0.144,0.264,0.288,0.396,0.432c-0.089-0.022-0.212-0.016-0.261-0.073c-0.077-0.09-0.105-0.223-0.155-0.338
		C266.959,70.006,266.979,69.984,266.979,69.984z"/>
	<path display="none" fill-rule="evenodd" clip-rule="evenodd" fill="#FEFEFE" d="M253.98,72.006
		c-0.139,0.137-0.277,0.273-0.416,0.41c0.02-0.089,0.01-0.208,0.065-0.259c0.088-0.081,0.218-0.117,0.331-0.172
		C253.96,71.985,253.98,72.006,253.98,72.006z"/>
	<path display="none" fill-rule="evenodd" clip-rule="evenodd" fill="#FEFEFE" d="M263.98,71.984
		c0.132,0.144,0.264,0.288,0.396,0.432c-0.09-0.022-0.212-0.017-0.261-0.073c-0.077-0.09-0.106-0.223-0.155-0.338
		C263.96,72.006,263.98,71.984,263.98,71.984z"/>
	<path display="none" fill-rule="evenodd" clip-rule="evenodd" fill="#FEFEFE" d="M275.957,84c-0.132-0.144-0.264-0.288-0.396-0.431
		c0.09,0.022,0.212,0.016,0.261,0.072c0.078,0.09,0.106,0.223,0.155,0.337L275.957,84z"/>
</g>
</svg>
