<?xml version="1.0" encoding="utf-8"?>
<!-- Generator: Adobe Illustrator 16.0.0, SVG Export Plug-In . SVG Version: 6.00 Build 0)  -->
<!DOCTYPE svg PUBLIC "-//W3C//DTD SVG 1.1//EN" "http://www.w3.org/Graphics/SVG/1.1/DTD/svg11.dtd">
<svg version="1.1" id="Layer_1" xmlns="http://www.w3.org/2000/svg" xmlns:xlink="http://www.w3.org/1999/xlink" x="0px" y="0px"
	 width="1395.745px" height="1200.726px" viewBox="104.255 299.274 1395.745 1200.726"
	 enable-background="new 104.255 299.274 1395.745 1200.726" xml:space="preserve">
<g id="mountainleft">
	<g id="Layer_7">
	</g>
</g>
<g id="mountainright">
	<g id="Layer_6">
	</g>
</g>
<g id="flag">
</g>
<g id="middle">
	<g>
		<g>
			<g>
				<polygon id="XMLID_3_" fill="#DAE3E9" points="728.715,1499.379 434.079,1498.813 139.442,1498.244 287.397,1167.609 
					323.094,1087.839 345.645,1037.444 435.353,836.975 582.034,1168.177 				"/>
			</g>
			<g>
				<defs>
					<polygon id="SVGID_1_" points="728.715,1499.379 434.079,1498.813 139.442,1498.244 287.397,1167.609 323.094,1087.839 
						345.645,1037.444 435.353,836.975 582.034,1168.177 					"/>
				</defs>
				<clipPath id="SVGID_2_">
					<use xlink:href="#SVGID_1_"  overflow="visible"/>
				</clipPath>
				<polygon clip-path="url(#SVGID_2_)" fill="#EEF1F4" points="390.624,1044.198 434.079,1053.198 456.621,1033.699 
					491.119,1038.199 519.295,1026.514 435.353,836.975 348.849,1030.285 375.625,1026.199 				"/>
			</g>
		</g>
		<g>
			<g>
				<polygon id="XMLID_2_" fill="#DAE4EA" points="1500,1499.729 1114.357,1498.988 728.715,1498.244 922.37,1065.485 
					1024.627,836.977 1028.973,827.262 1116.023,632.727 1308.012,1066.229 				"/>
			</g>
			<g>
				<defs>
					<polygon id="SVGID_3_" points="1500,1499.729 1114.357,1498.988 728.715,1498.244 922.37,1065.485 1024.627,836.977 
						1028.973,827.262 1116.023,632.727 1308.012,1066.229 					"/>
				</defs>
				<clipPath id="SVGID_4_">
					<use xlink:href="#SVGID_3_"  overflow="visible"/>
				</clipPath>
				<path clip-path="url(#SVGID_4_)" fill="#F2F7FC" d="M1073.09,813.211l31.498,44.997l34.5-32.998l26.998,11.765
					c0,0,7.5-11.765,9-16.265s25.516,2.992,25.516,2.992l-84.578-190.976l-76.042,169.935l21.11-10.449L1073.09,813.211z"/>
			</g>
		</g>
		
			<line fill="none" stroke="#8BAEC6" stroke-width="5" stroke-miterlimit="10" x1="803.586" y1="368.905" x2="803.586" y2="494.123"/>
		<g>
			<g>
				<path fill="#8BAEC6" d="M804.369,373.052c11.975,23.323,44.049,14.507,63.488,7.815c-1.024-0.582-2.051-1.164-3.074-1.746
					c1.514,7.743,4.297,15.218,4.865,23.137c0.646,9.012-8.027,11.182-15.303,13.061c-15.271,3.944-37.545,5.908-47.66-8.79
					c-1.814-2.638-6.15-0.142-4.316,2.522c11.945,17.357,36.419,15.45,54.539,10.771c6.975-1.802,16.504-4.993,17.57-13.266
					c1.249-9.696-3.043-19.402-4.875-28.765c-0.25-1.279-1.856-2.166-3.074-1.746c-17.105,5.887-47.134,15.341-57.844-5.518
					C807.213,367.659,802.898,370.189,804.369,373.052L804.369,373.052z"/>
			</g>
		</g>
		<g>
			<g>
				<path fill="#8BAEC6" d="M802.027,371.123c-1.626,12.498,1.85,25.531,2.666,38c0.053,0.806,0.42,1.811,1.238,2.159
					c2.576,1.098,4.757,2.903,7.334,4c2.932,1.248,5.48-3.059,2.522-4.317c-2.577-1.097-4.757-2.902-7.334-4
					c0.413,0.721,0.825,1.439,1.238,2.159c-0.817-12.469-4.292-25.502-2.666-38C807.442,367.933,802.438,367.973,802.027,371.123
					L802.027,371.123z"/>
			</g>
		</g>
		<g>
			<g>
				<path fill="#8BAEC6" d="M810.525,394.712c-4.98-0.76-5.821,3.258-4.35,7.204c1.164,3.116,3.74,10.374,7.685,10.374
					c1.329,0,2.544-1.137,2.5-2.5c-0.165-5.131-1.61-9.59-4.341-13.929c-1.28-2.034-4.734-1.313-4.659,1.262
					c0.118,4.034,0.812,7.819,3.009,11.262c1.749,2.743,5.71,0.361,4.316-2.522c-3.284-6.804-6.164-15.086-5.082-22.74
					c-1.521,0.199-3.046,0.398-4.568,0.597c1.146,2.403,1.856,4.81,2.414,7.403c0.689,3.206,5.303,1.782,4.822-1.329
					c-0.729-4.712-2.387-9.212-2.578-14.002c-1.667,0-3.333,0-5,0c1.496,14.062,3.487,29.371,14.066,39.768
					c1.964,1.931,5.668-0.694,3.926-3.028c-5.778-7.744-7.067-18.092-8.414-27.403c-1.607,0.443-3.215,0.886-4.822,1.329
					c2.037,9.299,4.637,18.424,8,27.333c1.119,2.963,5.657,1.844,4.822-1.329c-2.833-10.761-7.727-20.926-9.334-32
					c-1.521,0.642-3.046,1.284-4.568,1.926c6.383,11.341,4.432,25.869,13.725,35.839c1.89,2.028,4.499-0.175,4.179-2.432
					c-1.478-10.385-5.709-20.186-6.578-30.669c-1.637,0.222-3.272,0.443-4.91,0.665c1.578,10.941,3.192,25.294,11.978,33.103
					c1.9,1.691,4.703,0.053,4.178-2.432c-2.075-9.825-5.771-19.263-6.577-29.335c-1.637,0.222-3.272,0.443-4.911,0.665
					c2.83,10.963,4.119,22.59,11.312,31.771c1.434,1.83,4.214,0.193,4.268-1.769c0.293-10.611-5.659-19.65-6.667-30
					c-1.637,0.222-3.273,0.443-4.911,0.665c3.384,9.896,4.259,21.101,10.252,29.93c1.331,1.96,4.72,1.367,4.659-1.262
					c-0.236-10.302-3.859-20.037-6.089-29.998c-1.606,0.443-3.215,0.886-4.822,1.329c2.784,10.217,3.345,21.922,11.312,29.771
					c1.441,1.42,4.478,0.493,4.268-1.769c-0.884-9.514-4.452-18.5-5.334-28c-1.637,0.222-3.273,0.443-4.91,0.665
					c3.688,8.765,2.523,21.546,11.148,27.494c1.322,0.912,3.303-0.007,3.672-1.494c2.388-9.598-3.451-17.436-4.576-26.665
					c-1.637,0.222-3.273,0.443-4.91,0.665c3.294,8.423,4.247,17.505,7.332,26c0.688,1.89,3.493,2.669,4.57,0.597
					c4.533-8.725,0.514-19.109-1.748-27.926c-0.807-3.141-5.482-1.804-4.822,1.329c1.407,6.67,3.539,13.017,6.252,19.264
					c0.979,2.253,4.902,1.15,4.659-1.262c-0.688-6.837-1.456-13.591-4.089-19.998c-1.223-2.972-5.354-1.888-4.822,1.329
					c0.952,5.757,3.419,10.881,6.252,15.93c1.504,2.68,4.929,0.692,4.57-1.926c-0.771-5.624-2.094-11.133-3.334-16.667
					c-1.606,0.443-3.215,0.886-4.82,1.329c1.816,6.148,4.119,12.162,6.918,17.931c1.232,2.542,5.53,0.737,4.568-1.926
					c-1.885-5.222-3.235-10.5-4-16c-1.522,0.642-3.047,1.284-4.568,1.926c1.891,3.952,3.441,8.048,5.334,12
					c1.321,2.763,4.979,0.652,4.568-1.926c-0.705-4.451-1.76-8.814-1.91-13.335c-1.637,0.222-3.273,0.443-4.91,0.665
					c1.379,3.539,2.619,7.128,4,10.667c1.173,3.007,5.363,1.866,4.82-1.329c-0.486-2.872-0.178-5.784-0.666-8.667
					c-1.607,0.443-3.215,0.886-4.822,1.329c0.82,2.035,1.849,3.967,2.668,6c0.992,2.463,4.972,2.362,4.91-0.665
					c-0.082-4.024-0.492-7.987,0-12c-1.553,0.42-3.105,0.841-4.658,1.262c2.798,6.498,6.721,17.114,3.771,24.045
					c-2.988,7.024-17.653,4.902-23.613,4.859c0.222,1.637,0.442,3.274,0.664,4.911c13.707-3.196,20.92-14.01,21.168-27.744
					c0.043-2.312-2.691-3.134-4.268-1.768c-5.058,4.385-12.818,20.563-2.697,23.418c9.123,2.573,10.514-14.417,7.957-19.579
					c-0.785-1.584-2.752-1.426-3.927-0.506c-4.733,3.709-5.321,9.567-3.978,15.099c0.459,1.88,2.856,2.357,4.18,1.103
					c5.061-4.797,6.74-12.717,3.724-19.028c-0.795-1.665-3.502-1.6-4.315,0c-3.217,6.312-3.035,14.768,3.563,18.754
					c1.348,0.813,3.305,0.071,3.673-1.494c0.146-0.806,0.507-1.496,1.08-2.069c-1.438-0.841-2.878-1.682-4.315-2.522
					c-2.924,4.392-5.711,8.764-10.438,11.383c-4.638,2.568-10.397,0.246-15.401,1.468c-3.188,0.779-1.783,5.329,1.33,4.821
					c16.59-2.707,20.053-21.747,24.412-35.08c0.551-1.679-1.305-3.796-3.074-3.075c-9.963,4.059,0.022,18.209,2.254,24.409
					c0.59,1.638,2.845,2.625,4.179,1.103c1.551-1.771,2.498-3.566,3.309-5.77c1.131-3.069-3.627-4.24-4.819-1.329
					c-4.713,11.481-19.541,10.248-27.357,18.23c-2.257,2.304,1.275,5.842,3.535,3.534c3.992-4.076,10.449-5.434,15.533-7.704
					c5.944-2.656,10.612-6.647,13.108-12.731c-1.606-0.443-3.214-0.886-4.819-1.329c-0.377,1.36-1.052,2.547-2.023,3.564
					c1.393,0.368,2.785,0.734,4.178,1.103c-0.869-2.418-8.877-16.982-5.746-18.258c-1.023-1.025-2.05-2.05-3.074-3.075
					c-3.791,11.592-6.428,29.224-20.922,31.587c0.443,1.607,0.888,3.214,1.33,4.821c2.983-0.729,6.047-0.214,9.074-0.098
					c2.704,0.104,5.096-0.791,7.521-1.875c5.517-2.466,9.031-8.37,12.23-13.178c1.828-2.745-2.418-5.009-4.316-2.522
					c-0.787,1.031-1.289,2.007-1.586,3.264c1.226-0.498,2.449-0.996,3.674-1.494c-4.14-2.5-3.711-8.104-1.771-11.913
					c-1.438,0-2.878,0-4.316,0c2.053,4.296,0.383,9.817-2.941,12.971c1.393,0.368,2.785,0.734,4.179,1.103
					c-0.957-3.933-0.678-7.595,2.688-10.234c-1.309-0.168-2.616-0.337-3.926-0.506c1.031,2.083,0.926,11.861-2.281,12.209
					c-3.881,0.422,3.142-13.535,4.875-15.038c-1.424-0.589-2.846-1.178-4.269-1.768c-0.209,11.584-5.948,20.23-17.497,22.923
					c-2.795,0.652-2.117,4.892,0.664,4.911c8.001,0.058,22.623,1.896,27.492-6.571c4.926-8.567,0.23-21.58-3.334-29.856
					c-1.11-2.579-4.398-0.857-4.658,1.262c-0.492,4.013-0.082,7.976,0,12c1.637-0.222,3.273-0.443,4.91-0.665
					c-0.818-2.035-1.848-3.967-2.666-6c-1.202-2.983-5.367-1.881-4.822,1.329c0.488,2.872,0.178,5.784,0.668,8.667
					c1.606-0.443,3.215-0.886,4.82-1.329c-1.38-3.538-2.62-7.128-4-10.667c-0.965-2.476-5.012-2.349-4.91,0.665
					c0.166,4.968,1.313,9.772,2.09,14.665c1.521-0.642,3.046-1.284,4.568-1.926c-1.891-3.952-3.442-8.048-5.334-12
					c-1.338-2.795-4.924-0.624-4.568,1.926c0.764,5.5,2.114,10.778,4,16c1.521-0.642,3.046-1.284,4.568-1.926
					c-2.611-5.384-4.719-10.999-6.414-16.736c-0.916-3.102-5.524-1.81-4.82,1.329c1.24,5.534,2.563,11.043,3.332,16.667
					c1.523-0.642,3.047-1.284,4.57-1.926c-2.637-4.696-4.865-9.389-5.748-14.736c-1.607,0.443-3.215,0.886-4.822,1.329
					c2.467,6.001,3.264,12.254,3.911,18.668c1.553-0.42,3.104-0.841,4.659-1.262c-2.538-5.843-4.436-11.838-5.748-18.069
					c-1.607,0.443-3.215,0.886-4.822,1.329c1.855,7.231,5.986,16.89,2.252,24.074c1.523,0.199,3.047,0.397,4.57,0.597
					c-3.086-8.494-4.039-17.578-7.334-26c-0.939-2.404-5.277-2.353-4.91,0.665c1.025,8.425,6.896,16.731,4.756,25.335
					c1.225-0.498,2.447-0.996,3.672-1.494c-3.695-2.548-4.59-8.03-5.535-12.1c-0.969-4.172-1.646-8.437-3.316-12.406
					c-0.988-2.352-5.194-2.41-4.909,0.665c0.884,9.515,4.452,18.5,5.334,28c1.423-0.589,2.846-1.179,4.268-1.768
					c-7.183-7.077-7.512-18.342-10.022-27.563c-0.853-3.123-5.523-1.805-4.822,1.329c2.128,9.507,5.686,18.839,5.911,28.668
					c1.553-0.42,3.104-0.841,4.659-1.262c-5.728-8.433-6.512-19.269-9.748-28.736c-0.863-2.524-5.198-2.288-4.911,0.665
					c1.004,10.313,6.956,19.522,6.667,30c1.423-0.589,2.846-1.179,4.268-1.768c-6.508-8.309-7.468-19.662-10.023-29.564
					c-0.692-2.684-5.139-2.189-4.91,0.665c0.843,10.548,4.583,20.382,6.757,30.665c1.393-0.811,2.785-1.622,4.178-2.432
					c-8.013-7.124-9.25-20.904-10.69-30.897c-0.401-2.787-5.143-2.13-4.91,0.665c0.908,10.955,5.216,21.16,6.756,31.998
					c1.394-0.811,2.785-1.622,4.179-2.432c-8.683-9.316-6.874-24.045-12.942-34.828c-1.498-2.663-4.951-0.705-4.567,1.926
					c1.606,11.074,6.5,21.24,9.332,32c1.606-0.442,3.215-0.886,4.821-1.329c-3.363-8.909-5.963-18.034-8-27.333
					c-0.705-3.217-5.271-1.771-4.821,1.329c1.407,9.733,2.876,20.5,8.92,28.597c1.309-1.01,2.616-2.02,3.926-3.028
					c-9.555-9.392-11.252-23.548-12.603-36.232c-0.334-3.134-5.131-3.278-5,0c0.212,5.26,1.959,10.162,2.757,15.331
					c1.606-0.443,3.215-0.886,4.821-1.329c-0.651-3.033-1.584-5.802-2.92-8.597c-0.881-1.847-4.269-1.528-4.568,0.597
					c-1.297,9.163,1.632,18.402,5.587,26.593c1.438-0.841,2.878-1.682,4.315-2.522c-1.74-2.729-2.23-5.541-2.324-8.738
					c-1.553,0.42-3.105,0.841-4.659,1.263c2.272,3.612,3.521,7.118,3.659,11.404c0.833-0.833,1.667-1.667,2.5-2.5
					c-0.223,0-0.444,0-0.667,0c0.72,0.413,1.438,0.826,2.157,1.238c-0.943-1.568-1.877-3.143-2.766-4.743
					c-0.521-0.938-0.988-1.903-1.445-2.875c-0.155-0.397-0.313-0.797-0.469-1.196c-0.044-1.108-0.535-1.169-1.477-0.18
					C812.349,400.015,813.704,395.197,810.525,394.712L810.525,394.712z"/>
			</g>
		</g>
		<g>
			<g>
				<path fill="#8BAEC6" d="M850.295,401.355c-6.349-5.656-16.431-3.438-13.512,6.432c0.637,2.155,3.378,2.38,4.568,0.597
					c1.756-2.627,2.308-4.796,2.342-7.928c-1.667,0-3.333,0-5,0c0.182,2.032,0.709,3.474,1.676,5.262
					c1.106,2.047,3.868,1.313,4.568-0.597c2.101-5.723,1.479-12.021,1.423-17.998c-0.024-2.666-3.25-3.175-4.659-1.262
					c-7.236,9.828-15.798,21.103-28.506,23.518c-2.313,0.44-2.205,3.451-0.598,4.569c1.882,1.308,3.267,2.948,5.334,4
					c0.421-1.554,0.841-3.106,1.262-4.659c-0.744-0.2-1.488-0.401-2.232-0.602c-2.507-1.963-6.072,1.55-3.535,3.535
					c1.81,1.417,3.488,1.877,5.769,2.066c2.476,0.207,3.424-3.558,1.262-4.659c-2.009-1.021-3.49-2.719-5.333-4
					c-0.199,1.523-0.398,3.046-0.598,4.569c14.045-2.669,23.496-14.956,31.494-25.816c-1.554-0.42-3.105-0.841-4.658-1.262
					c0.051,5.541,0.701,11.368-1.243,16.669c1.521-0.199,3.046-0.397,4.567-0.597c-0.535-0.83-0.867-1.743-0.992-2.738
					c-0.282-3.162-4.963-3.271-5,0c-0.022,2.117-0.485,3.648-1.657,5.405c1.522,0.198,3.046,0.397,4.567,0.597
					c-1.432-4.842,2.709-3.749,5.156-1.568C849.158,407.028,852.707,403.504,850.295,401.355L850.295,401.355z"/>
			</g>
		</g>
		<g>
			<g>
				<polygon id="XMLID_1_" fill="#E6ECF3" points="1257.527,1500 801.586,1499.124 345.645,1498.244 574.601,986.597 
					803.556,474.95 1030.543,987.475 				"/>
			</g>
			<g>
				<defs>
					<polygon id="SVGID_5_" points="1257.527,1500 801.586,1499.124 345.645,1498.244 574.601,986.597 803.556,474.95 
						1030.543,987.475 					"/>
				</defs>
				<clipPath id="SVGID_6_">
					<use xlink:href="#SVGID_5_"  overflow="visible"/>
				</clipPath>
				<polyline clip-path="url(#SVGID_6_)" fill="#F2F7FC" points="606.908,914.398 728.715,863.123 801.586,863.123 832.527,859.123 
					848.527,836.975 876.527,855.123 920.527,836.975 981.397,876.509 803.556,474.95 606.908,914.398 				"/>
			</g>
		</g>
	</g>
	<g id="Layer_5">
	</g>
</g>
</svg>
