<?xml version="1.0" encoding="utf-8"?>
<!-- Generator: Adobe Illustrator 16.0.0, SVG Export Plug-In . SVG Version: 6.00 Build 0)  -->
<!DOCTYPE svg PUBLIC "-//W3C//DTD SVG 1.1//EN" "http://www.w3.org/Graphics/SVG/1.1/DTD/svg11.dtd">
<svg version="1.1" id="Layer_1" xmlns="http://www.w3.org/2000/svg" xmlns:xlink="http://www.w3.org/1999/xlink" x="0px" y="0px"
	 width="728px" height="780px" viewBox="0 0 728 780" enable-background="new 0 0 728 780" xml:space="preserve">
<g>
	<path display="none" fill-rule="evenodd" clip-rule="evenodd" fill="#FEFEFE" d="M461,781c-14,0-28,0-42,0
		c0-117.604,0-235.209,0-352.813c0-1.333-0.129-2.681,0.023-3.995c0.387-3.317-1.055-4.297-4.283-4.251
		c-10.992,0.157-21.988,0.059-32.982,0.06c-6.754,0.001-6.758,0.003-6.758,6.687c0,118.104,0,236.209,0,354.313c-12,0-24,0-36,0
		c0-117.604,0-235.209,0-352.813c0-1.333-0.129-2.681,0.024-3.995c0.386-3.317-1.055-4.297-4.284-4.251
		c-10.992,0.157-21.987,0.059-32.982,0.06c-6.754,0.001-6.757,0.003-6.757,6.687c0,118.104,0,236.209,0,354.313c-10,0-20,0-30,0
		c0-117.604,0-235.209,0-352.813c0-1.333-0.129-2.681,0.024-3.995c0.386-3.317-1.055-4.297-4.284-4.251
		c-10.992,0.157-21.987,0.059-32.982,0.06c-6.754,0.001-6.757,0.003-6.757,6.687c0,118.104,0,236.209,0,354.313
		c-79.333,0-158.667-0.028-238,0.096c-3.424,0.006-4.096-0.672-4.094-4.096c0.103-261.333,0.103-522.667,0-784
		c-0.001-3.423,0.67-4.096,4.094-4.094c254.667,0.103,509.333,0.103,764,0c3.423-0.002,4.096,0.669,4.094,4.094
		c-0.103,261.333-0.103,522.666,0,783.999c0.002,3.423-0.668,4.103-4.094,4.097C666.334,780.973,585.667,781,505,781
		c0-117.604,0-235.209,0-352.813c0-1.333-0.129-2.681,0.023-3.995c0.387-3.318-1.055-4.297-4.283-4.251
		c-10.992,0.157-21.988,0.059-32.982,0.06c-6.754,0.001-6.758,0.003-6.758,6.687C461,544.791,461,662.896,461,781z M363.688,239
		c68.164,0,136.329,0,204.493,0c1.333,0,2.667,0.03,4,0.004c1.922-0.038,2.371,0.573,2.188,2.695
		c-0.514,5.943-0.703,11.888,0.293,17.877c2.611,15.717,9.752,28.827,21.717,39.327c14.446,12.676,31.539,18.285,50.302,15.73
		c23.824-3.244,41.561-16.112,51.635-38.367c9.786-21.618,7.382-42.69-5.146-62.267c-13.711-21.425-35.639-28.766-59.451-30.782
		c-14.065-1.191-28.314-0.306-42.479-0.156c-3.503,0.037-4.388-0.826-3.128-4.228c2.828-7.628,5.396-15.353,8.057-23.043
		c0.408-1.182,1.533-2.6-0.189-3.477c-1.703-0.867-2.669,0.333-3.541,1.749c-2.088,3.394-4.275,6.726-6.486,10.041
		c-5.336,8.001-12.02,14.423-21.934,15.787c-13.383,1.843-26.9,1.286-40.355,1.007c-9.143-0.189-12.463-3.699-12.594-12.961
		c-0.23-16.33-0.092-32.665-0.045-48.998c0.012-3.913,1.641-6.11,6.078-6.004c8.994,0.217,18.039-0.465,26.984,0.239
		c6.713,0.528,14.015-0.158,19.477,5.744c3.484,3.767,3.938,8.189,4.646,12.784c0.222,1.432,0.199,3.976,2.247,3.912
		c2.505-0.077,1.479-2.565,1.495-3.998c0.15-13.532,0.891-27.077-0.09-40.59c-0.16-2.208,3.148-6.093-1.16-6.557
		c-3-0.324-2.034,4.004-2.479,6.068c-1.854,8.63-6.125,13.857-15.5,14.803c-12.642,1.275-25.266,0.35-37.894,0.53
		c-2.771,0.039-3.838-2.197-3.835-4.89c0.02-16.666,0.014-33.332,0.007-49.998c-0.001-3.422,1.327-5.084,5.099-5.045
		c14.998,0.152,29.998-0.009,44.997,0.094c9.432,0.063,15.957,4.962,19.018,13.977c0.745,2.194,1.284,4.457,1.988,6.666
		c0.44,1.379,0.695,3.315,2.643,3.006c1.765-0.28,1.272-2.124,1.226-3.355c-0.271-7.293-0.739-14.579-0.932-21.874
		c-0.17-6.428-0.049-6.449-6.406-6.45c-33.165-0.007-66.33-0.004-99.496-0.002c-1,0-2-0.004-3,0.029
		c-0.875,0.029-1.714,0.28-1.891,1.251c-0.172,0.944,0.434,1.626,1.273,1.882c1.252,0.383,2.549,0.631,3.838,0.88
		c6.283,1.219,9.986,4.378,10.533,9.721c0.505,4.935,1.214,9.837,1.184,14.859c-0.162,26.998-0.004,53.998-0.119,80.997
		c-0.037,8.456,0.611,16.923-0.873,25.378c-1.179,6.712-4.418,9.995-11.211,9.998c-26.166,0.011-52.332,0.007-78.498,0.002
		c-5.229-0.001-10.166-3.184-11.045-8.047c-0.475-2.622-2.307-7.271,2.496-7.705c5.625-0.509,11.149-1.49,16.705-2.288
		c16.224-2.329,30.237-8.8,39.697-22.817c7.217-10.694,9.014-22.94,7.623-35.36c-2.035-18.182-10.854-32.105-28.164-39.745
		c-10.759-4.747-22.159-6.492-33.768-6.95c-3.641-0.144-5.098-1.26-4.961-4.974c0.385-10.369,8.076-13.246,17.256-13.798
		c1.514-0.091,3.277,0.711,3.5-1.295c0.307-2.746-2.12-1.925-3.586-1.988c-4.813-0.208-9.762,1.186-14.334,0.664
		c-10.828-1.235-21.61-0.214-32.395-0.672c-0.979-0.042-2.034,0.037-2.941,0.369c-1.024,0.375-2.395,0.719-2.211,2.277
		c0.158,1.337,1.357,1.207,2.303,1.395c6.318,1.255,9.598,5.503,11.117,11.408c1.075,4.178-0.576,6.57-4.928,6.463
		c-6.694-0.165-13.239,0.822-19.721,2.142c-13.581,2.764-25.374,8.682-33.774,20.198c-6.931,9.502-9.226,20.178-9.371,31.846
		c-0.282,22.716,14.879,42.849,36.306,48.46c8.991,2.355,18.133,3.82,27.387,4.339c3.993,0.224,4.945,1.944,4.189,5.414
		c-1.85,8.487-4.592,10.667-13.417,10.668c-22.833,0.001-45.67-0.261-68.495,0.168c-6.372,0.12-10.509-2.455-13.977-6.967
		c-2.416-3.144-4.547-6.538-6.002-10.28c-7.938-20.407-15.925-40.796-23.791-61.231c-8.458-21.973-16.782-43.997-25.229-65.974
		c-0.649-1.688-0.8-4.001-3.784-3.748c-2.767,0.234-2.906,2.336-3.6,4.123c-9.238,23.802-18.493,47.597-27.685,71.416
		c-4.118,10.671-7.846,21.5-12.226,32.061c-4.506,10.866-7.772,22.318-14.462,32.203c-3.621,5.349-7.952,8.596-15.198,8.399
		c-18.652-0.507-37.327-0.179-55.993-0.152c-1.821,0.003-3.667,0.074-5.457,0.373c-15.96,2.657-29.564,9.626-40.31,21.935
		c-12.641,14.479-18.309,31.53-15.77,50.296c3.282,24.256,16.501,42.176,39.223,52.095c21.5,9.385,42.648,7.111,61.706-5.894
		c19.514-13.315,29.503-32.535,28.604-56.577c-0.19-5.089,1.205-6.379,6.306-6.365C226.693,239.06,295.19,239,363.688,239z
		 M363.875,279c-60.478,0-120.956,0.05-181.433-0.102c-4.467-0.011-5.671,1.233-5.544,5.61c0.312,10.653,0.1,21.323,0.102,31.985
		c0.002,6.5,0.005,6.505,6.441,6.505C297.399,323,411.357,323,525.315,323c7.164,0,14.332-0.142,21.491,0.062
		c3.314,0.094,4.299-1.085,4.253-4.319c-0.157-11.16-0.327-22.333,0.062-33.482c0.176-5.033-1.172-6.401-6.313-6.385
		C484.498,279.069,424.187,279,363.875,279z M362.87,344c-45.479,0-90.957,0.066-136.435-0.104
		c-4.479-0.017-5.659,1.254-5.536,5.619c0.307,10.819,0.344,21.661-0.011,32.479c-0.157,4.792,1.208,6.13,6.056,6.114
		c55.64-0.17,111.28-0.108,166.92-0.108c35.316,0,70.633-0.069,105.949,0.091c4.211,0.02,5.373-1.245,5.275-5.355
		c-0.264-10.989-0.305-21.994,0.014-32.979c0.132-4.561-1.146-5.88-5.799-5.861C453.827,344.069,408.349,344,362.87,344z"/>
	<path fill-rule="evenodd" clip-rule="evenodd" fill="#DBE3ED" d="M221,781c0-118.104,0-236.209,0-354.313
		c0-6.684,0.003-6.686,6.757-6.687c10.995-0.001,21.99,0.098,32.982-0.06c3.229-0.046,4.67,0.934,4.284,4.251
		c-0.153,1.314-0.024,2.662-0.024,3.995c0,117.604,0,235.209,0,352.813C250.333,781,235.667,781,221,781z"/>
	<path fill-rule="evenodd" clip-rule="evenodd" fill="#DBE3ED" d="M295,781c0-118.104,0-236.209,0-354.313
		c0-6.684,0.003-6.686,6.757-6.687c10.995-0.001,21.99,0.098,32.982-0.06c3.229-0.046,4.67,0.934,4.284,4.251
		c-0.153,1.314-0.024,2.662-0.024,3.995c0,117.604,0,235.209,0,352.813C324.333,781,309.667,781,295,781z"/>
	<path fill-rule="evenodd" clip-rule="evenodd" fill="#DBE3ED" d="M375,781c0-118.104,0-236.209,0-354.313
		c0-6.684,0.004-6.686,6.758-6.687c10.994-0.001,21.99,0.098,32.982-0.06c3.229-0.046,4.67,0.934,4.283,4.251
		c-0.152,1.314-0.023,2.662-0.023,3.995c0,117.604,0,235.209,0,352.813C404.334,781,389.666,781,375,781z"/>
	<path fill-rule="evenodd" clip-rule="evenodd" fill="#DBE3ED" d="M461,781c0-118.104,0-236.209,0-354.313
		c0-6.684,0.004-6.686,6.758-6.687c10.994-0.001,21.99,0.098,32.982-0.06c3.229-0.046,4.67,0.933,4.283,4.251
		c-0.152,1.314-0.023,2.662-0.023,3.995c0,117.604,0,235.209,0,352.813C490.334,781,475.666,781,461,781z"/>
	<path fill-rule="evenodd" clip-rule="evenodd" fill="#DBE3ED" d="M363.688,239c-68.498,0-136.996,0.06-205.493-0.12
		c-5.101-0.014-6.496,1.276-6.306,6.365c0.899,24.042-9.09,43.262-28.604,56.577c-19.057,13.005-40.206,15.278-61.706,5.894
		c-22.721-9.919-35.94-27.839-39.223-52.095c-2.54-18.766,3.129-35.817,15.77-50.296c10.746-12.309,24.35-19.277,40.31-21.935
		c1.791-0.299,3.636-0.37,5.457-0.373c18.666-0.026,37.341-0.354,55.993,0.152c7.246,0.196,11.578-3.051,15.198-8.399
		c6.69-9.885,9.956-21.337,14.462-32.203c4.379-10.561,8.107-21.39,12.226-32.061c9.192-23.819,18.447-47.614,27.685-71.416
		c0.694-1.787,0.833-3.889,3.6-4.123c2.984-0.253,3.135,2.06,3.784,3.748c8.447,21.977,16.771,44.001,25.229,65.974
		c7.866,20.436,15.853,40.824,23.791,61.231c1.456,3.742,3.587,7.137,6.002,10.28c3.467,4.512,7.605,7.087,13.977,6.967
		c22.825-0.429,45.662-0.167,68.495-0.168c8.825-0.001,11.567-2.181,13.417-10.668c0.756-3.47-0.196-5.19-4.189-5.414
		c-9.253-0.519-18.396-1.983-27.387-4.339c-21.427-5.611-36.588-25.744-36.306-48.46c0.145-11.668,2.439-22.344,9.371-31.846
		c8.4-11.517,20.194-17.435,33.774-20.198c6.481-1.319,13.027-2.307,19.721-2.142c4.352,0.107,6.003-2.285,4.928-6.463
		c-1.52-5.905-4.799-10.153-11.117-11.408c-0.945-0.188-2.145-0.058-2.303-1.395c-0.184-1.559,1.187-1.902,2.211-2.277
		c0.907-0.332,1.961-0.411,2.941-0.369c10.785,0.458,21.567-0.563,32.395,0.672c4.572,0.521,9.521-0.872,14.334-0.664
		c1.466,0.063,3.893-0.758,3.586,1.988c-0.223,2.006-1.986,1.204-3.5,1.295c-9.18,0.552-16.871,3.429-17.256,13.798
		c-0.137,3.714,1.32,4.83,4.961,4.974c11.608,0.458,23.009,2.203,33.768,6.95c17.311,7.64,26.129,21.563,28.164,39.745
		c1.391,12.42-0.406,24.666-7.623,35.36c-9.46,14.018-23.474,20.488-39.697,22.817c-5.556,0.798-11.08,1.779-16.705,2.288
		c-4.803,0.435-2.971,5.083-2.496,7.705c0.879,4.863,5.816,8.046,11.045,8.047c26.166,0.005,52.332,0.009,78.498-0.002
		c6.793-0.003,10.032-3.286,11.211-9.998c1.484-8.455,0.836-16.922,0.873-25.378c0.115-26.999-0.043-53.999,0.119-80.997
		c0.03-5.022-0.679-9.925-1.184-14.859c-0.547-5.343-4.25-8.502-10.533-9.721c-1.289-0.249-2.586-0.497-3.838-0.88
		c-0.84-0.256-1.445-0.938-1.273-1.882c0.177-0.971,1.016-1.222,1.891-1.251c1-0.033,2-0.029,3-0.029
		c33.166-0.002,66.331-0.005,99.496,0.002c6.357,0.001,6.236,0.022,6.406,6.45c0.192,7.295,0.66,14.581,0.932,21.874
		c0.047,1.231,0.539,3.075-1.226,3.355c-1.947,0.31-2.202-1.627-2.643-3.006c-0.704-2.209-1.243-4.472-1.988-6.666
		c-3.061-9.015-9.586-13.913-19.018-13.977c-14.999-0.103-29.999,0.059-44.997-0.094c-3.771-0.039-5.1,1.623-5.099,5.045
		c0.007,16.666,0.013,33.332-0.007,49.998c-0.003,2.692,1.064,4.929,3.835,4.89c12.628-0.181,25.252,0.745,37.894-0.53
		c9.375-0.945,13.646-6.173,15.5-14.803c0.444-2.064-0.521-6.393,2.479-6.068c4.309,0.464,1,4.349,1.16,6.557
		c0.98,13.513,0.24,27.058,0.09,40.59c-0.016,1.433,1.01,3.921-1.495,3.998c-2.048,0.063-2.025-2.48-2.247-3.912
		c-0.709-4.595-1.162-9.018-4.646-12.784c-5.462-5.902-12.764-5.216-19.477-5.744c-8.945-0.704-17.99-0.022-26.984-0.239
		c-4.438-0.106-6.066,2.091-6.078,6.004c-0.047,16.333-0.186,32.668,0.045,48.998c0.131,9.262,3.451,12.771,12.594,12.961
		c13.455,0.279,26.973,0.836,40.355-1.007c9.914-1.364,16.598-7.786,21.934-15.787c2.211-3.315,4.398-6.647,6.486-10.041
		c0.872-1.416,1.838-2.616,3.541-1.749c1.723,0.877,0.598,2.295,0.189,3.477c-2.66,7.69-5.229,15.415-8.057,23.043
		c-1.26,3.401-0.375,4.265,3.128,4.228c14.165-0.149,28.414-1.035,42.479,0.156c23.813,2.017,45.74,9.357,59.451,30.782
		c12.527,19.576,14.932,40.648,5.146,62.267c-10.074,22.255-27.811,35.123-51.635,38.367c-18.763,2.555-35.855-3.055-50.302-15.73
		c-11.965-10.5-19.105-23.61-21.717-39.327c-0.996-5.989-0.807-11.934-0.293-17.877c0.184-2.122-0.266-2.733-2.188-2.695
		c-1.333,0.026-2.667-0.004-4-0.004C500.018,239,431.853,239,363.688,239z M207.229,182.998c9.994,0,19.988-0.037,29.982,0.018
		c4.343,0.023,6.545-2.337,7.839-6.201c0.974-2.909,0.207-5.558-0.737-8.174c-3.598-9.974-7.196-19.95-10.984-29.854
		c-7.996-20.903-16.118-41.758-24.157-62.645c-0.417-1.081-0.483-2.591-1.836-2.665c-1.696-0.093-1.816,1.64-2.276,2.817
		c-4.443,11.399-8.888,22.799-13.292,34.213c-7.638,19.798-15.368,39.562-22.803,59.435c-2.727,7.288,1.546,12.99,9.282,13.041
		C187.908,183.048,197.569,182.999,207.229,182.998z M388.002,112.966c0,14.308,0.066,28.615-0.049,42.922
		c-0.028,3.464,0.848,5.236,4.738,5.16c15.475-0.302,31.333-8.528,37.457-24.636c4.021-10.578,4.77-21.458,3.594-32.287
		c-1.053-9.702-4.32-19.026-11.498-26.435c-7.188-7.416-16.191-10.444-26.095-11.879c-7.329-1.063-8.144-0.601-8.147,6.729
		C387.995,86.016,388,99.491,388.002,112.966z M367.999,113.677c0-13.985,0.015-27.971-0.007-41.956
		c-0.01-6.195-0.978-6.973-6.972-5.885c-0.812,0.147-1.665,0.055-2.485,0.174c-14.392,2.076-25.751,8.579-31.495,22.55
		c-5.851,14.232-6.437,28.782-2.208,43.672c5.351,18.841,19.03,27.391,37.726,28.798c4.117,0.31,5.574-1.212,5.515-5.397
		C367.875,141.649,367.998,127.662,367.999,113.677z"/>
	<path fill-rule="evenodd" clip-rule="evenodd" fill="#DBE3ED" d="M363.875,279c60.312,0,120.623,0.069,180.934-0.125
		c5.141-0.017,6.488,1.352,6.313,6.385c-0.389,11.149-0.219,22.322-0.062,33.482c0.046,3.234-0.938,4.413-4.253,4.319
		c-7.159-0.203-14.327-0.062-21.491-0.062c-113.958,0-227.916,0-341.874-0.001c-6.436,0-6.439-0.005-6.441-6.505
		c-0.002-10.662,0.209-21.332-0.102-31.985c-0.127-4.377,1.077-5.621,5.544-5.61C242.919,279.05,303.397,279,363.875,279z"/>
	<path fill-rule="evenodd" clip-rule="evenodd" fill="#DBE3ED" d="M362.87,344c45.479,0,90.957,0.069,136.435-0.105
		c4.652-0.019,5.931,1.301,5.799,5.861c-0.318,10.985-0.277,21.99-0.014,32.979c0.098,4.11-1.064,5.375-5.275,5.355
		c-35.316-0.16-70.633-0.091-105.949-0.091c-55.64,0-111.28-0.062-166.92,0.108c-4.847,0.016-6.212-1.322-6.056-6.114
		c0.354-10.817,0.317-21.659,0.011-32.479c-0.124-4.365,1.057-5.636,5.536-5.619C271.913,344.066,317.392,344,362.87,344z"/>
	<path display="none" fill-rule="evenodd" clip-rule="evenodd" fill="#FEFEFE" d="M207.229,182.999
		c-9.661,0-19.322,0.049-28.982-0.016c-7.735-0.051-12.009-5.753-9.282-13.041c7.436-19.873,15.166-39.637,22.803-59.435
		c4.403-11.414,8.849-22.813,13.292-34.213c0.459-1.178,0.58-2.91,2.276-2.817c1.353,0.074,1.419,1.584,1.836,2.665
		c8.04,20.887,16.162,41.741,24.157,62.645c3.788,9.903,7.386,19.88,10.984,29.854c0.944,2.616,1.711,5.265,0.737,8.174
		c-1.294,3.864-3.496,6.225-7.839,6.201C227.218,182.961,217.224,182.998,207.229,182.999z"/>
	<path display="none" fill-rule="evenodd" clip-rule="evenodd" fill="#FEFEFE" d="M388.001,112.966
		c-0.001-13.475-0.006-26.95,0.001-40.426c0.004-7.329,0.818-7.791,8.147-6.729c9.903,1.435,18.907,4.463,26.095,11.879
		c7.178,7.408,10.445,16.732,11.498,26.435c1.176,10.829,0.428,21.709-3.594,32.287c-6.124,16.107-21.982,24.334-37.457,24.636
		c-3.891,0.076-4.767-1.696-4.738-5.16C388.068,141.581,388.002,127.273,388.001,112.966z"/>
	<path display="none" fill-rule="evenodd" clip-rule="evenodd" fill="#FEFEFE" d="M367.999,113.677
		c-0.001,13.985-0.124,27.973,0.075,41.955c0.059,4.186-1.398,5.707-5.515,5.397c-18.696-1.407-32.375-9.957-37.726-28.798
		c-4.229-14.89-3.644-29.439,2.208-43.672c5.744-13.971,17.103-20.474,31.495-22.55c0.82-0.119,1.673-0.026,2.485-0.174
		c5.995-1.088,6.962-0.311,6.972,5.885C368.014,85.706,367.999,99.691,367.999,113.677z"/>
</g>
</svg>
