<?xml version="1.0" encoding="utf-8"?>
<!-- Generator: Adobe Illustrator 16.0.0, SVG Export Plug-In . SVG Version: 6.00 Build 0)  -->
<!DOCTYPE svg PUBLIC "-//W3C//DTD SVG 1.1//EN" "http://www.w3.org/Graphics/SVG/1.1/DTD/svg11.dtd">
<svg version="1.1" id="Layer_1" xmlns="http://www.w3.org/2000/svg" xmlns:xlink="http://www.w3.org/1999/xlink" x="0px" y="0px"
	 width="787.787px" height="598.074px" viewBox="0 0 787.787 598.074" enable-background="new 0 0 787.787 598.074"
	 xml:space="preserve">
<g>
	<g>
		<path display="none" fill-rule="evenodd" clip-rule="evenodd" fill="#FEFEFE" d="M377.255,594.925
			c-135.983,0-271.966-0.021-407.949,0.106c-3.94,0.004-4.501-1.097-4.5-4.689c0.095-194.976,0.099-389.951-0.022-584.927
			c-0.003-3.939,1.097-4.5,4.689-4.499c271.965,0.092,543.931,0.095,815.897-0.021c3.939-0.002,4.502,1.097,4.5,4.688
			c-0.095,194.976-0.099,389.951,0.022,584.927c0.002,3.939-1.098,4.502-4.69,4.499
			C649.221,594.909,513.237,594.925,377.255,594.925z M312.847,373.143c9.364,9.614,14.086,21.129,20.95,31.244
			c6.86,10.11,13.733,20.257,19.838,30.905c4.936,8.611,11.31,16.397,16.266,24.999c9.611,16.68,20.743,32.391,31.06,48.596
			c11.182,17.566,22.122,35.342,33.965,52.514c6.475,9.387,12.105,19.352,18.223,28.989c0.917,1.445,1.604,3.482,3.868,3.503
			c4.361,0.039,8.724,0.011,13.22,0.011c-0.228-1.131-0.205-1.506-0.368-1.762c-13.457-21.073-26.865-42.18-40.421-63.19
			c-10.499-16.273-20.841-32.649-31.323-48.932c-12.997-20.187-26.191-40.254-39.007-60.562
			c-10.778-17.079-21.753-34.033-32.584-51.078c-4.182-6.583-4.123-6.683,3.504-8.436c38.745-8.909,77.502-17.765,116.241-26.697
			c6.829-1.575,7.145-2.856,3.063-8.321c-13.685-18.318-25.117-37.912-33.731-59.152c-7.708-19.003-12.989-38.568-16.101-58.863
			c-2.889-18.848-3.171-37.58-0.596-56.415c0.232-1.705,2.01-3.707,0.071-5.059c-1.912-1.333-3.809,0.377-5.523,1.283
			c-9.706,5.126-19.389,10.295-29.058,15.488c-11.132,5.98-22.233,12.019-33.365,18.001c-19.482,10.468-38.961,20.944-58.476,31.354
			c-13.029,6.951-26.137,13.756-39.156,20.727c-1.825,0.978-3.616,2.084-3.591,4.865c0.157,17.938-0.927,35.936,2.234,53.731
			c4.813,27.083,15.094,51.83,31.637,73.955c3.581,4.788,6.523,9.652,13.667,7.18c0.146-0.05,0.445,0.346,0.704,0.559
			c-0.891,2.805-3.32,4.507-4.834,6.834c-10.289,15.813-20.606,31.61-30.706,47.545c-9.854,15.549-20.27,30.714-30.549,45.978
			c-10.463,15.537-20.605,31.286-31.177,46.758c-12.438,18.205-24.334,36.778-36.485,55.18c-2.191,3.318-4.496,6.56-6.712,9.861
			c-1.721,2.564-5.388,5.113-4.159,7.965c1.249,2.896,5.406,0.993,8.25,1.129c2.274,0.107,4.814,1.026,6.706-1.805
			c12.616-18.881,25.478-37.597,38.07-56.494c8.459-12.694,16.454-25.7,24.931-38.384c12.065-18.052,24.476-35.871,36.561-53.91
			c9.582-14.302,18.1-29.287,27.903-43.46c6.184-8.941,11.669-18.367,18.993-27.691c0,2.515,0,4.117,0,5.72
			c0,68.153,0,136.307,0,204.459c0,11.68,0.009,11.401,11.78,11.792c5.123,0.17,6.348-1.313,6.335-6.366
			c-0.175-69.485-0.118-138.972-0.118-208.458C312.847,377.447,312.847,375.666,312.847,373.143z M409.717,178.127
			c-0.643,2.958,1.004,7.146,1.127,11.46c0.417,14.658,3.282,28.961,7.113,43.024c5.479,20.117,13.334,39.304,23.844,57.38
			c6.356,10.934,13.496,21.319,21.048,31.441c3,4.021,6.51,5.15,11.691,3.903c24.316-5.847,48.741-11.239,73.118-16.832
			c22.768-5.222,45.535-10.446,68.282-15.754c13.068-3.049,26.134-6.123,39.128-9.469c6.056-1.56,6.22-2.503,1.882-6.623
			c-16.933-16.077-30.581-34.657-40.853-55.522c-16.692-33.907-27.88-69.656-30.988-107.387c-1.715-20.815-0.895-41.823,4.328-62.37
			c0.655-2.577,3.276-6.083,1.276-7.76c-2.709-2.271-5.879,0.872-8.558,2.296c-28.039,14.916-55.983,30.011-84.038,44.898
			c-26.302,13.956-52.684,27.764-79.095,41.513c-2.825,1.471-4.358,3.526-4.922,6.419
			C411.66,151.283,410.393,163.956,409.717,178.127z M216.836,247.268c0.012-5.19-2.846-6.746-7.863-4.011
			c-6.128,3.341-12.323,6.562-18.446,9.913c-27.393,14.993-54.753,30.046-82.16,45.014c-13.269,7.247-26.603,14.374-39.934,21.507
			c-2.231,1.194-3.046,2.868-3.718,5.374c-1.888,7.043-0.791,14.138,0.563,20.721c5.107,24.834,15.587,47.07,34.509,64.715
			c2.547,2.376,4.994,2.954,8.118,1.924c1.731-0.571,3.485-1.091,5.26-1.502c14.177-3.289,28.373-6.503,42.542-9.825
			c14.179-3.324,28.319-6.817,42.505-10.11c17.573-4.081,35.191-7.966,52.756-12.079c5.042-1.181,5.614-3.062,2.549-6.742
			c-11.528-13.84-19.385-29.749-25.543-46.489C218.712,300.493,215.42,274.371,216.836,247.268z M757.74,179.927
			c0.962-9.13-0.416-19.719-2.293-30.137c-5.84-32.432-17.44-62.607-37.362-89.137c-11.16-14.86-24.088-27.88-41.172-36.138
			c-8.52-4.118-17.515-6.838-26.834-6.189c-13.644,0.951-25.879,6.698-37.423,13.797c-2.969,1.826-5.324,4.119-6.412,7.838
			c-7.687,26.276-12.248,52.809-9.605,80.395c1.559,16.273,4.492,32.188,9.762,47.564c9.479,27.66,22.641,53.583,39.729,77.309
			c8.041,11.166,17.457,21.322,28.32,29.985c1.73,1.38,3.198,1.92,5.415,1.251c9.804-2.957,19.593-6.001,29.513-8.519
			c16.832-4.273,28.982-14.021,36.732-29.561C755.066,220.425,758.439,201.384,757.74,179.927z M42.835,426.788
			c10.59-1.987,22.454-4.072,34.254-6.469c10.566-2.146,10.536-2.297,3.954-10.729c-11.674-14.955-20.292-31.458-25.763-49.666
			c-2.65-8.819-3.113-17.911-4.311-26.913c-0.357-2.679-0.7-2.856-3.256-1.703c-8.117,3.668-15.571,8.661-23.955,11.783
			c-1.71,0.637-2.707,2.357-3.875,3.789c-7.751,9.503-7.515,20.704-5.674,31.627c1.943,11.531,6.886,22.316,12.018,32.797
			c2.518,5.142,6.369,9.662,10.379,13.892C38.002,426.668,39.65,427.128,42.835,426.788z"/>
		<path fill-rule="evenodd" clip-rule="evenodd" fill="#DBE3ED" d="M312.847,373.143c0,2.523,0,4.305,0,6.088
			c0,69.486-0.057,138.973,0.118,208.458c0.013,5.054-1.213,6.536-6.335,6.366c-11.771-0.391-11.78-0.112-11.78-11.792
			c0-68.152,0-136.306,0-204.459c0-1.603,0-3.205,0-5.72c-7.324,9.324-12.809,18.75-18.993,27.691
			c-9.803,14.173-18.322,29.158-27.903,43.46c-12.085,18.039-24.496,35.858-36.561,53.91c-8.477,12.684-16.471,25.689-24.931,38.384
			c-12.592,18.897-25.454,37.613-38.07,56.494c-1.892,2.831-4.432,1.912-6.706,1.805c-2.844-0.136-7.001,1.768-8.25-1.129
			c-1.229-2.852,2.438-5.4,4.159-7.965c2.216-3.302,4.521-6.543,6.712-9.861c12.151-18.401,24.048-36.975,36.485-55.18
			c10.571-15.472,20.714-31.221,31.177-46.758c10.279-15.264,20.695-30.429,30.549-45.978c10.1-15.935,20.417-31.731,30.706-47.545
			c1.514-2.327,3.943-4.029,4.834-6.834c-0.259-0.213-0.558-0.608-0.704-0.559c-7.144,2.473-10.087-2.392-13.667-7.18
			c-16.543-22.125-26.824-46.872-31.637-73.955c-3.162-17.795-2.077-35.793-2.234-53.731c-0.024-2.781,1.767-3.887,3.591-4.865
			c13.019-6.971,26.126-13.775,39.156-20.727c19.515-10.41,38.993-20.886,58.476-31.354c11.132-5.982,22.232-12.021,33.365-18.001
			c9.669-5.193,19.352-10.362,29.058-15.488c1.715-0.906,3.611-2.617,5.523-1.283c1.938,1.353,0.161,3.354-0.071,5.059
			c-2.575,18.835-2.293,37.567,0.596,56.415c3.111,20.294,8.393,39.86,16.101,58.863c8.614,21.24,20.047,40.834,33.731,59.152
			c4.082,5.465,3.767,6.746-3.063,8.321c-38.739,8.933-77.497,17.788-116.241,26.697c-7.627,1.753-7.687,1.853-3.504,8.436
			c10.831,17.045,21.806,33.999,32.584,51.078c12.815,20.308,26.01,40.375,39.007,60.562c10.482,16.282,20.824,32.658,31.323,48.932
			c13.556,21.011,26.964,42.117,40.421,63.19c0.163,0.256,0.141,0.631,0.368,1.762c-4.496,0-8.858,0.028-13.22-0.011
			c-2.264-0.021-2.951-2.058-3.868-3.503c-6.117-9.638-11.748-19.603-18.223-28.989c-11.843-17.172-22.783-34.947-33.965-52.514
			c-10.316-16.205-21.448-31.916-31.06-48.596c-4.957-8.602-11.33-16.388-16.266-24.999c-6.104-10.648-12.978-20.795-19.838-30.905
			C326.933,394.271,322.21,382.757,312.847,373.143z"/>
		<path fill-rule="evenodd" clip-rule="evenodd" fill="#DBE3ED" d="M409.717,178.127c0.676-14.171,1.943-26.844,4.385-39.382
			c0.563-2.893,2.097-4.948,4.922-6.419c26.411-13.749,52.793-27.557,79.095-41.513c28.055-14.887,55.999-29.982,84.038-44.898
			c2.679-1.425,5.849-4.568,8.558-2.296c2,1.676-0.621,5.183-1.276,7.76c-5.223,20.547-6.043,41.555-4.328,62.37
			c3.108,37.73,14.296,73.48,30.988,107.387c10.271,20.866,23.92,39.445,40.853,55.522c4.338,4.12,4.174,5.063-1.882,6.623
			c-12.994,3.346-26.06,6.419-39.128,9.469c-22.747,5.308-45.515,10.533-68.282,15.754c-24.377,5.593-48.802,10.985-73.118,16.832
			c-5.182,1.247-8.691,0.117-11.691-3.903c-7.552-10.122-14.691-20.507-21.048-31.441c-10.51-18.077-18.364-37.264-23.844-57.38
			c-3.831-14.063-6.696-28.366-7.113-43.024C410.721,185.272,409.074,181.084,409.717,178.127z"/>
		<path fill-rule="evenodd" clip-rule="evenodd" fill="#DBE3ED" d="M216.836,247.268c-1.416,27.103,1.876,53.226,11.14,78.408
			c6.158,16.74,14.015,32.649,25.543,46.489c3.065,3.681,2.493,5.562-2.549,6.742c-17.565,4.113-35.183,7.998-52.756,12.079
			c-14.187,3.293-28.326,6.786-42.505,10.11c-14.17,3.322-28.365,6.536-42.542,9.825c-1.775,0.411-3.529,0.931-5.26,1.502
			c-3.124,1.03-5.57,0.452-8.118-1.924c-18.921-17.645-29.401-39.881-34.509-64.715c-1.354-6.583-2.451-13.678-0.563-20.721
			c0.672-2.506,1.487-4.18,3.718-5.374c13.331-7.133,26.665-14.26,39.934-21.507c27.407-14.968,54.768-30.021,82.16-45.014
			c6.123-3.351,12.317-6.572,18.446-9.913C213.99,240.521,216.848,242.077,216.836,247.268z"/>
		<path fill-rule="evenodd" clip-rule="evenodd" fill="#DBE3ED" d="M757.74,179.927c0.699,21.457-2.674,40.499-11.631,58.46
			c-7.75,15.539-19.9,25.288-36.732,29.561c-9.92,2.517-19.709,5.562-29.513,8.519c-2.217,0.669-3.685,0.129-5.415-1.251
			c-10.863-8.663-20.279-18.82-28.32-29.985c-17.088-23.726-30.25-49.649-39.729-77.309c-5.27-15.377-8.203-31.291-9.762-47.564
			c-2.643-27.586,1.919-54.119,9.605-80.395c1.088-3.719,3.443-6.012,6.412-7.838c11.544-7.1,23.779-12.846,37.423-13.797
			c9.319-0.649,18.314,2.071,26.834,6.189c17.084,8.258,30.012,21.277,41.172,36.138c19.922,26.529,31.522,56.705,37.362,89.137
			C757.324,160.208,758.702,170.797,757.74,179.927z M744.67,190.046c1.017-11.607-1.143-23.521-3.164-35.432
			c-2.928-17.248-9.291-33.466-15.816-49.535c-6.871-16.919-15.283-33.152-27.059-47.299c-8.505-10.219-17.658-19.782-30.104-25.47
			c-9.469-4.328-19.713-2.651-27.06,4.476c-9,8.732-12.024,19.981-13.618,31.792c-2.789,20.66-0.089,40.955,4.74,61.021
			c5.342,22.189,13.642,43.221,24.561,63.314c8.48,15.607,18.59,29.752,32.28,41.179c5.508,4.597,11.247,8.954,18.349,10.677
			c12.441,3.019,23.072-2.533,29.666-15.069C743.904,217.421,745.432,204.23,744.67,190.046z"/>
		<path fill-rule="evenodd" clip-rule="evenodd" fill="#DBE3ED" d="M42.835,426.788c-3.185,0.34-4.833-0.12-6.229-1.593
			c-4.01-4.229-7.861-8.75-10.379-13.892c-5.132-10.48-10.074-21.266-12.018-32.797c-1.84-10.923-2.077-22.124,5.674-31.627
			c1.167-1.432,2.164-3.152,3.875-3.789c8.384-3.122,15.837-8.115,23.955-11.783c2.556-1.153,2.899-0.976,3.256,1.703
			c1.198,9.002,1.661,18.094,4.311,26.913c5.47,18.208,14.089,34.711,25.763,49.666c6.582,8.433,6.612,8.584-3.954,10.729
			C65.289,422.716,53.425,424.801,42.835,426.788z"/>
		<path fill-rule="evenodd" clip-rule="evenodd" fill="#B8C8D9" d="M744.67,190.046c0.762,14.184-0.766,27.375-7.225,39.653
			c-6.594,12.537-17.225,18.088-29.666,15.069c-7.102-1.723-12.841-6.081-18.349-10.677c-13.69-11.426-23.8-25.571-32.28-41.179
			c-10.919-20.093-19.219-41.125-24.561-63.314c-4.829-20.066-7.529-40.361-4.74-61.021c1.594-11.811,4.618-23.06,13.618-31.792
			c7.347-7.127,17.591-8.803,27.06-4.476c12.445,5.688,21.599,15.251,30.104,25.47c11.775,14.147,20.188,30.38,27.059,47.299
			c6.525,16.068,12.889,32.287,15.816,49.535C743.527,166.526,745.687,178.439,744.67,190.046z M733.896,189.606
			c-1.455-20.748-5.555-41.994-11.732-62.858c-1.039-3.503-2.017-7.072-4.257-10.051c-2.267-3.013-5.165-5.147-8.954-3.027
			c-3.912,2.189-3.859,5.888-2.434,9.623c8.72,22.832,13.288,46.427,13.36,70.9c0.014,4.653-0.617,8.952-3.601,12.625
			c-2.676,3.292-1.203,5.968,1.28,8.269c3.266,3.025,7.458,2.176,10.612-2.188C732.978,206.246,733.556,198.454,733.896,189.606z
			 M643.811,85.845c-0.339,13.916,3.52,26.23,10.287,37.81c3.369,5.764,7.526,8.06,11.521,5.753
			c3.811-2.202,3.644-6.019,0.023-12.185c-6.821-11.618-9.748-23.966-8.22-37.64c0.67-5.997,2.695-11.565,3.399-17.456
			c0.393-3.285-0.983-5.567-4.074-6.568c-2.815-0.911-5.33,0.193-7.086,2.332c-1.23,1.499-2.179,3.417-2.671,5.301
			C645.021,70.742,643.509,78.383,643.811,85.845z M676.431,69.029c-3.4-0.081-7.202,3.048-7.448,6.13
			c-0.243,3.039,5.079,8.557,8.434,8.747c2.91,0.164,6.382-3.646,6.372-6.994C683.777,72.676,680.462,69.125,676.431,69.029z"/>
		<path fill-rule="evenodd" clip-rule="evenodd" fill="#DBE3ED" d="M733.896,189.606c-0.341,8.848-0.919,16.64-5.725,23.291
			c-3.154,4.365-7.347,5.213-10.612,2.188c-2.483-2.301-3.956-4.977-1.28-8.269c2.983-3.672,3.614-7.972,3.601-12.625
			c-0.072-24.474-4.641-48.068-13.36-70.9c-1.426-3.735-1.479-7.434,2.434-9.623c3.789-2.12,6.688,0.014,8.954,3.027
			c2.24,2.979,3.218,6.548,4.257,10.051C728.342,147.612,732.441,168.858,733.896,189.606z"/>
		<path fill-rule="evenodd" clip-rule="evenodd" fill="#DBE3ED" d="M643.811,85.845c-0.302-7.462,1.211-15.103,3.18-22.653
			c0.492-1.884,1.44-3.802,2.671-5.301c1.756-2.138,4.271-3.243,7.086-2.332c3.091,1.001,4.467,3.284,4.074,6.568
			c-0.704,5.891-2.729,11.459-3.399,17.456c-1.528,13.674,1.398,26.022,8.22,37.64c3.62,6.166,3.787,9.983-0.023,12.185
			c-3.994,2.306-8.151,0.011-11.521-5.753C647.33,112.075,643.472,99.761,643.811,85.845z"/>
		<path fill-rule="evenodd" clip-rule="evenodd" fill="#DBE3ED" d="M676.431,69.029c4.031,0.096,7.347,3.647,7.357,7.883
			c0.01,3.348-3.462,7.158-6.372,6.994c-3.354-0.189-8.677-5.708-8.434-8.747C669.229,72.077,673.03,68.948,676.431,69.029z"/>
	</g>
</g>
</svg>
